/* XPM */
static char *b[] = {
/* columns rows colors chars-per-pixel */
"64 64 35 1 ",
"  c #222C22",
". c #222D22",
"X c #232E23",
"o c #242E24",
"O c #242F24",
"+ c #243024",
"@ c #253025",
"# c #253125",
"$ c #283428",
"% c #293529",
"& c #293629",
"* c #2A362A",
"= c #2A372A",
"- c #2B372B",
"; c #2B382B",
": c #2B392B",
"> c #2C392C",
", c #2D392D",
"< c #2C3A2C",
"1 c #2D3A2D",
"2 c #2D3B2D",
"3 c #2E3B2E",
"4 c #2E3C2E",
"5 c #2E3D2E",
"6 c #2F3D2F",
"7 c #2F3E2F",
"8 c #303F30",
"9 c #324232",
"0 c #334433",
"q c #344434",
"w c #344534",
"e c #344634",
"r c #354635",
"t c #364836",
"y c #364936",
/* pixels */
"111111111>11111>1111111>1>>>1>11111111111>11111>1111111>1>>>1>11",
"111111>111>>>>>1>11111>1>,11>>>>1>1111>111>>>>>1>11111>1>,11>>>>",
"11111>1>>>12121>1111>1>>1>;>1111>1111>1>>>12121>1111>1>>1>;>1111",
"111111>13240804>11111>111&+=:>;>1>1111>13240804>11111>111&+=:>;>",
"111111>3rq6eye3>1111>1>;-Xo&#$@-1>1111>3rq6eye3>1111>1>;-Xo&#$@-",
"111111>402=5w6>11111>1-@%@*-. o;1>1111>402=5w6>11111>1-@%@*-. o;",
"111111>1>@+;3>>1>111>1-+=;1;X *<>>1111>1>@+;3>>1>111>1-+=;1;X *<",
"11111>>,>-->>11>1111>1>;>1><&@;1>1111>>,>-->>11>1111>1>;>1><&@;1",
">>>1>1,<111111>111111>111>>1>;>1>>>1>1,<111111>111111>111>>1>;>1",
"111>>>>1>>>>1>111111>1>>>>>>,11>111>>>>1>>>>1>111111>1>>>>>>,11>",
">;>1111>1111111111111>1>,11>>>>1>;>1111>1111111111111>1>,11>>>>1",
"-+=:>;>1>1111111111>1>>1>;>1>1>1-+=:>;>1>1111111111>1>>1>;>1>111",
"-@%#$@-1>11111111111>111&+-1>1>1-@%#$@-1>11111111111>111&+-1>111",
">;=. o;1>1111111111>1>;-XX;1>1>1>;=. o;1>1111111111>1>;-XX;1>111",
">1;X *<>>1111111111>1-@%@&<>>11>>1;X *<>>1111111111>1-@%@&<>>111",
">><&@;1>1>111>>>1>1>1-+=:>1>11>1>><&@;1>1>111>>>1>1>1-+=:>1>1111",
"1>1>;>1>>11>>111>11>1>;>1>>1>1111>1>;>1>>11>>111>11>1>;>1>>1>111",
">1>>12121>>21>;>1>11>111>>1>1111>1>>12121>>21>;>1>11>111>>1>1111",
"1>1>408042704=+-1>1>1>>>1>1111111>1>408042704=+-1>1>1>>>1>111111",
"111>3eye60tr7-+-1>11111111111111111>3eye60tr7-+-1>11111111111111",
"1111>6w5=40892;>1>11>11111>111111111>6w5=40892;>1>11>11111>11111",
"11>1>>3;Oo>13111>11>1>>>>>1>111111>1>>3;Oo>13111>11>1>>>>>1>1111",
"111>11><&O-1>>>>1<>1113131>11111111>11><&O-1>>>>1<>1113131>11111",
"1111>111<;>111>11>11>39893>111111111>111<;>111>11>11>39893>11111",
"1>11111>>111>>>>11>1216w6>1111111>11111>>111>>>>11>1216w6>111111",
">1>>>>><1>;>1111>1>402203>1>1111>1>>>>><1>;>1111>1>402203>1>1111",
"1113131>1-+=:>;>11>404>21>11111>1113131>1-+=:>;>11>404>21>111111",
"1>39893>1-@%#$@-1>>121>>>1>111>11>39893>1-@%#$@-1>>121>>>1>11111",
"1216w6>11>;=. o;1>1>>>111>11111>1216w6>11>;=. o;1>1>>>111>111111",
"402203>1>>1;X *<>>>111>11111111>402203>1>>1;X *<>>>111>111111111",
"404>21>11>><&@;1>11111111111111>404>21>11>><&@;1>111111111111111",
"121>>>1>11>1>;>1>>1111111111111>121>>>1>11>1>;>1>>11111111111111",
">>>111>11>11111>1111111>1>>>1>>1>>>111>11>11111>1111111>1>>>1>11",
"111>11>111>>>>>1>11111>1>,11>>>>111>11>111>>>>>1>11111>1>,11>>>>",
"11111>1>>>12121>1111>1>>1>;>1111>1111>1>>>12121>1111>1>>1>;>1111",
"111111>13240804>11111>111&+=:>;>1>1111>13240804>11111>111&+=:>;>",
"111111>3rq6eye3>1111>1>;-Xo&#$@-1>1111>3rq6eye3>1111>1>;-Xo&#$@-",
"111111>402=5w6>11111>1-@%@*-. o;1>1111>402=5w6>11111>1-@%@*-. o;",
"111111>1>@+;3>>1>111>1-+=;1;X *<>>1111>1>@+;3>>1>111>1-+=;1;X *<",
"11111>>,>-->>11>1111>1>;>1><&@;1>1111>>,>-->>11>1111>1>;>1><&@;1",
">>>1>1,<111111>111111>111>>1>;>1>>>1>1,<111111>111111>111>>1>;>1",
"111>>>>1>>>>1>111111>1>>>>>>,11>111>>>>1>>>>1>111111>1>>>>>>,11>",
">;>1111>1111111111111>1>,11>>>>1>;>1111>1111111111111>1>,11>>>>1",
"-+=:>;>1>1111111111>1>>1>;>1>1>1-+=:>;>1>1111111111>1>>1>;>1>111",
"-@%#$@-1>11111111111>111&+-1>1>1-@%#$@-1>11111111111>111&+-1>111",
">;=. o;1>1111111111>1>;-XX;1>1>1>;=. o;1>1111111111>1>;-XX;1>111",
">1;X *<>>1111111111>1-@%@&<>>11>>1;X *<>>1111111111>1-@%@&<>>111",
">><&@;1>1>111>>>1>1>1-+=:>1>11>1>><&@;1>1>111>>>1>1>1-+=:>1>1111",
"1>1>;>1>>11>>111>11>1>;>1>>1>1111>1>;>1>>11>>111>11>1>;>1>>1>111",
">1>>12121>>21>;>1>11>111>>1>1111>1>>12121>>21>;>1>11>111>>1>1111",
"1>1>408042704=+-1>1>1>>>1>1111111>1>408042704=+-1>1>1>>>1>111111",
"111>3eye60tr7-+-1>11111111111111111>3eye60tr7-+-1>11111111111111",
"1111>6w5=40892;>1>11>11111>111111111>6w5=40892;>1>11>11111>11111",
"11>1>>3;Oo>13111>11>1>>>>>1>111111>1>>3;Oo>13111>11>1>>>>>1>1111",
"111>11><&O-1>>>>1<>1113131>11111111>11><&O-1>>>>1<>1113131>11111",
"1111>111<;>111>11>11>39893>111111111>111<;>111>11>11>39893>11111",
"1>11111>>111>>>>11>1216w6>1111111>11111>>111>>>>11>1216w6>111111",
">1>>>>><1>;>1111>1>402203>1>1111>1>>>>><1>;>1111>1>402203>1>1111",
"1113131>1-+=:>;>11>404>21>11111>1113131>1-+=:>;>11>404>21>111111",
"1>39893>1-@%#$@-1>>121>>>1>111>11>39893>1-@%#$@-1>>121>>>1>11111",
"1216w6>11>;=. o;1>1>>>111>11111>1216w6>11>;=. o;1>1>>>111>111111",
"402203>1>>1;X *<>>>111>11111111>402203>1>>1;X *<>>>111>111111111",
"404>21>11>><&@;1>11111111111111>404>21>11>><&@;1>111111111111111",
"121>>>1>11>1>;>1>>1111111111111>121>>>1>11>1>;>1>>11111111111111"
};
