/* XPM */
static char *p_r[] = {
/* columns rows colors chars-per-pixel */
"64 64 202 2 ",
"   c #090809",
".  c #090909",
"X  c #0A0809",
"o  c #0B0809",
"O  c #09090A",
"+  c #0A090A",
"@  c #0B090A",
"#  c gray4",
"$  c #0B0A0A",
"%  c #0A0B0A",
"&  c #0B0A0B",
"*  c #0A0B0B",
"=  c #0B0B0B",
"-  c #0C0808",
";  c #0D0908",
":  c #0C0B0B",
">  c #0D0B0B",
",  c #0B0C0B",
"<  c #0C0C0B",
"1  c #0C0C0C",
"2  c #0D0C0C",
"3  c #0D0D0C",
"4  c #0E0C0C",
"5  c #0E0D0D",
"6  c #0D0E0D",
"7  c #0D0F0D",
"8  c #0E0E0D",
"9  c #0F0E0D",
"0  c #0F0E0E",
"q  c #0E0F0E",
"w  c #0F0F0E",
"e  c #100808",
"r  c #110908",
"t  c #100F0E",
"y  c #130F0F",
"u  c #150E0C",
"i  c #160E0C",
"p  c #140F0F",
"a  c #160E0E",
"s  c #170E0E",
"d  c #0E100E",
"f  c #0F100E",
"g  c #0E100F",
"h  c #0F100F",
"j  c #0F110F",
"k  c #10110F",
"l  c #14100F",
"z  c #160F10",
"x  c #121110",
"c  c #121210",
"v  c #131210",
"b  c #131211",
"n  c #141010",
"m  c #151010",
"M  c #151110",
"N  c #151111",
"B  c #161010",
"V  c #161111",
"C  c #171111",
"Z  c #171212",
"A  c #121512",
"S  c #121612",
"D  c #131713",
"F  c #181111",
"G  c #181212",
"H  c #191212",
"J  c #181313",
"K  c #191313",
"L  c #1A1313",
"P  c #191413",
"I  c #181513",
"U  c #1A1413",
"Y  c #191514",
"T  c #1A1414",
"R  c #1B1414",
"E  c #1B1514",
"W  c #191614",
"Q  c #1A1614",
"!  c #1A1715",
"~  c #1C1515",
"^  c #1C1615",
"/  c #151915",
"(  c #1B1916",
")  c #1B1A17",
"_  c #1C1816",
"`  c #1E1816",
"'  c #1E1817",
"]  c #1C1A17",
"[  c #1D1A17",
"{  c #1C1B17",
"}  c #1E1B18",
"|  c #260D0A",
" . c #2B0E0A",
".. c #291311",
"X. c #2D1311",
"o. c #20201B",
"O. c #27231E",
"+. c #27231F",
"@. c #28231F",
"#. c #28241F",
"$. c #292420",
"%. c #292520",
"&. c #2A2420",
"*. c #2A2520",
"=. c #2A2521",
"-. c #2B2621",
";. c #2B2722",
":. c #2C2722",
">. c #202A20",
",. c #222C22",
"<. c #222D22",
"1. c #232D23",
"2. c #232E23",
"3. c #242D23",
"4. c #242D24",
"5. c #242E24",
"6. c #242F24",
"7. c #2C2822",
"8. c #2C2823",
"9. c #2D2823",
"0. c #2D2923",
"q. c #2E2923",
"w. c #2E2924",
"e. c #2F2924",
"r. c #2F2A24",
"t. c #302B25",
"y. c #312C26",
"u. c #322D26",
"i. c #322D27",
"p. c #243024",
"a. c #253025",
"s. c #253125",
"d. c #273026",
"f. c #273127",
"g. c #263226",
"h. c #273227",
"j. c #273327",
"k. c #273427",
"l. c #283026",
"z. c #273328",
"x. c #283328",
"c. c #293328",
"v. c #283428",
"b. c #293428",
"n. c #293429",
"m. c #293529",
"M. c #2A3429",
"N. c #2A3529",
"B. c #293629",
"V. c #2A352A",
"C. c #2A362A",
"Z. c #2B362A",
"A. c #2A372A",
"S. c #2B372A",
"D. c #2B372B",
"F. c #2B382B",
"G. c #2B392B",
"H. c #2C382B",
"J. c #2C382C",
"K. c #2C392C",
"L. c #2D392D",
"P. c #2C3A2C",
"I. c #2D3A2D",
"U. c #2D3B2D",
"Y. c #2E3B2D",
"T. c #2D3B2E",
"R. c #2E3B2E",
"E. c #2E3C2E",
"W. c #2E3D2E",
"Q. c #2F3D2F",
"!. c #2F3E2F",
"~. c #303E30",
"^. c #303F30",
"/. c #541E14",
"(. c #581E13",
"). c #5D1E13",
"_. c #611D11",
"`. c #621F12",
"'. c #651D10",
"]. c #582219",
"[. c #5B2219",
"{. c #314131",
"}. c #324232",
"|. c #324332",
" X c #344333",
".X c #334433",
"XX c #344434",
"oX c #344534",
"OX c #354534",
"+X c #344634",
"@X c #354635",
"#X c #364836",
"$X c #374836",
"%X c #364936",
"&X c #374936",
"*X c #374937",
"=X c #384B38",
"-X c #3A4E3A",
";X c #D54B2D",
":X c #DA482A",
">X c #CE4E33",
",X c #D24C30",
/* pixels */
"I.I.I.I.I.I.I.I.I.K.I.I.I.I.I.K.I.I.I.I.I.I.I.K.I.K.K.K.I.K.I.I.I.I.I.I.I.I.I.I.I.K.I.I.I.I.I.K.I.I.I.I.I.I.I.K.I.K.K.K.I.K.I.I.",
"I.I.I.I.I.I.K.I.I.I.K.K.K.K.K.I.K.I.I.I.I.I.K.I.K.L.I.I.K.K.K.K.I.K.I.I.I.I.K.I.I.I.K.K.K.K.K.I.K.I.I.I.I.I.K.I.K.L.I.I.K.K.K.K.",
"I.I.I.I.I.K.I.K.K.K.I.U.I.U.I.K.I.I.I.I.K.I.K.K.I.K.F.K.I.I.I.I.K.I.I.I.I.K.I.K.K.K.I.U.I.U.I.K.I.I.I.I.K.I.K.K.I.K.F.K.I.I.I.I.",
"I.I.I.I.I.I.K.I.R.U.E..X^..XE.K.I.I.I.I.I.K.I.I.I.B.p.A.G.K.F.K.I.K.I.I.I.I.K.I.R.U.E..X^..XE.K.I.I.I.I.I.K.I.I.I.B.p.A.G.K.F.K.",
"I.I.I.I.I.I.K.R.@XXXQ.+X%X+XR.K.I.I.I.I.K.I.K.F.D.2.5.B.s.v.a.D.I.K.I.I.I.I.K.R.@XXXQ.+X%X+XR.K.I.I.I.I.K.I.K.F.D.2.5.B.s.v.a.D.",
"I.I.I.I.I.I.K.E..XU.A.W.oXQ.K.I.I.I.I.I.K.I.D.a.m.a.C.D.<.,.5.F.I.K.I.I.I.I.K.E..XU.A.W.oXQ.K.I.I.I.I.I.K.I.D.a.m.a.C.D.<.,.5.F.",
"I.I.I.I.I.I.K.I.K.a.p.F.R.K.K.I.K.I.I.I.K.I.D.p.A.F.I.F.2.,.C.P.K.K.I.I.I.I.K.I.K.a.p.F.R.K.K.I.K.I.I.I.K.I.D.p.A.F.I.F.2.,.C.P.",
"I.I.I.I.I.K.K.L.K.D.D.K.K.I.I.K.I.I.I.I.K.I.K.F.K.I.K.P.B.a.F.I.K.I.I.I.I.K.K.L.K.D.D.K.K.I.I.K.I.I.I.I.K.I.K.F.K.I.K.P.B.a.F.I.",
"K.K.K.I.K.I.L.P.I.I.I.I.I.I.K.I.I.I.I.I.I.K.I.I.I.K.K.I.K.F.K.I.K.K.K.I.K.I.L.P.I.I.I.I.I.I.K.I.I.I.I.I.I.K.I.I.I.K.K.I.K.F.K.I.",
"I.I.I.K.K.K.K.I.K.K.K.K.I.K.I.I.I.I.I.I.K.I.K.K.K.K.K.K.L.I.I.K.I.I.I.K.I.I.I.L.K.K.K.K.I.K.I.I.I.I.I.I.K.I.K.K.K.K.K.K.L.I.I.K.",
"K.F.K.I.I.I.I.K.I.I.I.I.I.I.I.I.I.I.I.I.I.K.I.K.L.I.I.K.K.K.K.I.K.F.K.I.K.K.K.I.K.I.I.I.I.I.I.I.I.I.I.I.I.K.I.K.L.I.I.K.K.K.K.I.",
"D.p.A.G.K.F.K.I.K.I.I.I.I.I.I.I.I.I.I.K.I.K.K.I.K.F.K.I.K.K.K.I.D.p.A.F.R.E.I.I.I.K.I.I.I.I.I.I.I.I.I.K.I.K.K.I.K.F.K.I.K.I.I.I.",
"D.a.m.s.v.a.D.I.K.I.I.I.I.I.I.I.I.I.I.I.K.I.I.I.B.p.D.I.I.I.I.T.F.s.B.k.=X-XE.K.I.I.K.I.I.I.I.I.I.I.I.I.K.I.I.I.B.p.D.I.K.I.I.I.",
"K.F.A.<.,.5.F.I.K.I.I.I.I.I.I.I.I.I.I.K.I.K.F.D.2.1.F.K.N.n.M.M.b.v.f.3.OX&X!.R.I.K.K.I.K.I.I.I.I.I.I.K.I.K.F.D.2.2.F.I.K.I.I.I.",
"K.I.F.2.,.C.P.K.K.I.I.I.I.I.I.I.I.I.I.K.I.D.a.m.s.A.T.V.{ Y Q W Q ! W Y ! o.*X-XQ.I.I.K.I.I.I.I.I.I.I.K.I.D.a.m.a.B.P.K.K.I.I.I.",
"K.K.P.B.a.F.I.K.I.K.I.I.I.K.K.K.I.K.I.K.I.D.p.C.b.b.V.d._ L U L L L U T H [  X$XS.M.K.K.K.K.K.K.I.K.I.K.I.D.p.A.G.K.I.K.I.I.I.I.",
"I.K.I.K.F.K.I.K.K.I.I.K.K.I.I.I.K.I.I.K.I.K.P.N.{ Y W _ -.w.w.w.w.w.w.w.w.;.} ( W { C.T.K.I.I.I.K.I.I.K.I.K.F.K.I.K.K.I.K.I.I.I.",
"K.I.K.K.I.U.I.U.I.K.K.U.I.K.F.K.I.K.I.K.K.J.Z.d._ L L ^ %.8.:.:.:.:.:.:.8.%.~ K L _ d.C.J.K.F.K.I.K.I.I.K.I.I.I.K.K.I.K.I.I.I.I.",
"I.K.I.K.E..X^..XE.U.!..XE.A.p.D.I.K.K.K.T.C.) _ ;.w.e.=.v 8 w 0 0 0 0 w 8 v =.r.w.;._ ) Z.K.p.D.I.K.I.K.I.K.K.K.I.K.I.I.I.I.I.I.",
"I.I.I.K.R.+X%X+XQ..X#X@X!.D.p.D.I.K.I.J.C.d._ ~ =.8.9.+.8 . # # # # # # . 8 +.9.8.=.~ _ l.c.6.F.I.K.I.I.I.I.I.I.I.I.I.I.I.I.I.I.",
"I.I.I.I.K.Q.oXW.A.E..X^.}.U.F.K.I.K.I.N.{ _ ;.%.x 5 w 9 = = = = = = = = = = 9 w 5 x %.;._ ] c.I.K.K.I.I.K.I.I.I.I.I.K.I.I.I.I.I.",
"I.I.K.I.K.K.R.F.6.5.K.I.R.I.I.I.K.K.I.n.Y K w.9.c 3 = # # = # = = = = = = = # = 3 c 9.w.K Y N.U.K.I.I.K.I.K.K.K.K.K.I.K.I.I.I.I.",
"I.I.I.K.I.I.K.P.B.6.D.I.K.K.K.K.I.K.I.M.! R w.y.9.+.8 O = = = # # # # # # # O 8 +.9.y.w.R ! M.I.K.P.K.I.I.I.R.I.R.I.K.I.I.I.I.I.",
"I.I.I.I.K.I.I.I.P.F.K.I.I.I.K.I.I.K.I.n.I G *.q.y.8.b 5 : = = = 9 w w w 0 w 8 v 8.y.q.*.G I n.I.K.K.I.I.K.R.}.^.}.R.K.I.I.I.I.I.",
"I.K.I.I.I.I.I.K.K.I.I.I.K.K.K.K.I.K.U.x.k > K ' w.y.9.O.8 O O 5 +.7.;.;.7.7.7.8.y.q.` J > k x.U.K.I.K.I.U.I.Q.oXQ.K.I.I.I.I.I.I.",
"K.I.K.K.K.K.K.P.I.K.F.K.I.I.I.I.K.K.U.x.d $ y J @.7.y.8.v 9 9 b 7.i.y.t.9.7.7.7.0.&.U m $ g x.U.K.I.K.E..XU.U..XR.K.I.K.I.I.I.I.",
"I.I.I.R.I.R.I.K.I.D.p.A.G.K.F.K.I.K.U.x.h # : 2 8 b 8.y.:.;.;.:.t.y.i.7.v 8 9 t P T H V $ d h.I.K.I.K.E..XE.K.U.I.K.I.I.I.I.I.I.",
"I.K.R.}.^.}.R.K.I.D.a.m.s.v.a.D.I.K.U.x.h + = # . 5 O.9.t.y.y.t.:.;.7.+.9 # $ : m C V l & 7 >.F.I.K.K.I.U.I.K.K.K.I.K.I.I.I.I.I.",
"I.U.I.Q.oXQ.K.I.I.K.F.A.<.,.5.F.I.K.U.x.h + = = = : 5 v 7.u.u.7.b 8 w t m V V V G V 4 : # 7 >.F.I.K.I.K.K.K.I.I.I.K.I.I.I.I.I.I.",
"E..XU.U..XR.K.I.K.K.I.F.2.,.C.P.K.K.U.x.h + = = = = # 9 +.:.:.+.5 . $ > V G V V F V < * # f g.I.K.K.K.I.I.I.K.I.I.I.I.I.I.I.I.I.",
"E..XE.K.U.I.K.I.I.K.K.P.B.a.F.I.K.K.U.x.h + = = # = n m t 0 w 9 = : n V C B 2 2 V m ; - X g x.U.K.I.I.I.I.I.I.I.I.I.I.I.I.I.I.I.",
"I.U.I.K.K.K.I.K.I.I.K.I.K.F.K.I.K.K.U.x.h + = = : 2 V V : $ $ $ * : n V F m : : m ../.(.| w x.U.K.K.I.I.I.I.I.I.I.I.I.I.I.I.I.I.",
"K.K.K.I.I.I.K.I.I.K.I.I.I.I.I.K.I.K.U.x.h + * : p V C C V V V n $ # $ : V V : 1 a ].>X;X_.u z.Y.K.I.I.I.I.I.I.K.I.K.K.K.I.K.I.I.",
"I.I.I.K.I.I.K.I.I.I.K.K.K.K.K.I.K.K.U.x.j # : 2 V G C G G F V m t 0 9 0 m p : 1 s [.,X:X'.i z.Y.K.I.I.I.I.I.K.I.K.L.I.I.K.K.K.K.",
"I.I.I.I.I.K.I.K.K.K.I.U.I.U.I.K.I.K.U.x.q + n V C C C C G V : t #.8.8.#.t $ % : m X.).`. .t x.Y.K.I.I.I.K.I.K.K.I.K.F.K.I.I.I.I.",
"I.I.I.I.I.I.K.I.R.U.E..X^..XE.K.I.K.I.v.S w M V C G C C G V $ 8 $.w.w.$.9 # : 2 V z r e o g x.U.K.I.I.I.I.K.I.I.I.B.p.A.G.K.F.K.",
"I.I.I.I.I.I.K.R.@XXXQ.+X%X+XR.K.I.K.I.J.m.5.h > V G G G G B : < J E E J 1 = p V F V : * # h x.U.K.I.I.I.K.I.K.F.D.2.5.B.s.v.a.D.",
"I.I.I.I.I.I.K.E..XU.A.W.oXQ.K.I.I.I.K.K.E.b.g $ V F B B F B : = y m m y = : V G G B 4 : # h x.U.K.I.I.I.K.I.D.a.m.a.C.D.<.,.5.F.",
"I.I.I.I.I.I.K.I.K.a.p.F.R.K.K.I.K.K.I.K.I.x.g $ V V 2 2 V V : # : : : : # : V G Z C V n $ g x.U.K.I.I.I.K.I.D.p.A.F.I.F.2.,.C.P.",
"I.I.I.I.I.K.K.L.K.D.D.K.K.I.I.K.I.K.I.K.I.x.g $ V V = = V V 2 : * # # # # : p V C G G V $ g x.U.K.I.I.I.K.I.K.F.K.I.K.P.B.a.F.I.",
"K.K.K.I.K.I.L.P.I.I.I.I.I.I.K.I.I.I.K.K.E.b.g $ V V : : B C V p : # = = # # : 2 B G G V $ g x.U.K.I.I.I.I.K.I.I.I.K.K.I.K.F.K.I.",
"I.I.I.K.K.K.K.I.K.K.K.K.I.K.I.I.I.K.I.J.m.4.q $ V V : : B G G V 2 = = = : : # : m G G V $ g x.U.K.I.I.I.K.I.K.K.K.K.K.K.L.I.I.K.",
"K.F.K.I.I.I.I.K.I.I.I.I.I.I.I.I.I.K.I.v.S q = : V V = = m G C C V p = = n n = : V G G V $ g x.U.K.I.I.I.I.K.I.K.L.I.I.K.K.K.K.I.",
"D.p.A.G.K.F.K.I.K.I.I.I.I.I.I.I.I.K.U.x.q . : 2 n n > 2 B G C C V n > 2 V V : = p V C V $ g x.U.K.I.I.K.I.K.K.I.K.F.K.I.K.I.I.I.",
"D.a.m.s.v.a.D.I.K.I.I.I.I.I.I.I.I.K.U.x.h $ n n > > n V C C G B 2 > n V C m : # : 2 V V $ g x.U.K.I.I.I.K.I.I.I.B.p.D.I.K.I.I.I.",
"K.F.A.<.,.5.F.I.K.I.I.I.I.I.I.I.I.K.U.x.h $ V V = : B G C C G m : : V G G m : # # = n n $ h x.U.K.I.I.K.I.K.F.D.2.2.F.I.K.I.I.I.",
"K.I.F.2.,.C.P.K.K.I.I.I.I.I.I.I.I.K.U.x.q @ V V : : V G G G G V : : m G G m : # = = : : . q x.U.K.I.I.K.I.D.a.m.a.B.P.K.K.I.I.I.",
"K.K.P.B.a.F.I.K.I.K.I.I.I.K.K.K.I.K.I.v.S w N n = : p V m m V n > 2 B G G m : # = = * , q S v.I.K.K.I.K.I.D.p.A.G.K.I.K.I.I.I.I.",
"I.K.I.K.F.K.I.K.K.I.I.K.K.I.I.I.K.K.I.H.m.4.w + = = : : : : : > n V C C G m : # = = . 6 4.m.K.I.K.I.I.K.I.K.F.K.I.K.K.I.K.I.I.I.",
"K.I.K.K.I.U.I.U.I.K.K.U.I.K.F.K.I.K.K.K.E.m.S 6 = # # # # # = 2 V G C C G m : # $ = 6 D m.R.F.K.I.K.I.I.K.I.I.I.K.K.I.K.I.I.I.I.",
"I.K.I.K.E..X^..XE.U.!..XE.A.p.D.I.K.I.K.K.F.m.4.q # = = # : n V C G G G G V : * # d h.{.I.A.p.D.I.K.I.K.I.K.K.K.I.K.I.I.I.I.I.I.",
"I.I.I.K.R.+X%X+XQ..X#X@X!.D.p.D.I.K.I.I.K.K.E.v.j # = $ # : n V V V V V V n : * + j G.|.W.F.p.D.I.K.I.I.I.I.I.I.I.I.I.I.I.I.I.I.",
"I.I.I.I.K.Q.oXW.A.E..X^.}.U.F.K.I.K.I.K.I.K.I.j.q   = = # # $ $ $ $ $ $ : : = = = 1 h / W.E.D.K.I.K.I.I.K.I.I.I.I.I.K.I.I.I.I.I.",
"I.I.K.I.K.K.R.F.6.5.K.I.R.I.I.I.K.I.I.K.I.K.I.v.A 7 1 = = = q g g g g q = # = 1 1 =   d m.R.L.I.K.I.I.K.I.K.K.K.K.K.I.K.I.I.I.I.",
"I.I.I.K.I.I.K.P.B.6.D.I.K.K.K.K.I.P.K.I.I.I.R.K.A.5.7 . . q 4.n.x.x.b.4.q . = 1 1 = . d j.U.K.K.I.P.K.I.I.I.R.I.R.I.K.I.I.I.I.I.",
"I.I.I.I.K.I.I.I.P.F.K.I.I.I.K.I.I.K.I.I.K.R.}.~.XXA.A d d S m.E.I.I.E.m.S 7 1 = = 1 7 S v.U.K.I.I.K.I.I.K.R.}.^.}.R.K.I.I.I.I.I.",
"I.K.I.I.I.I.I.K.K.I.I.I.K.K.K.K.I.I.K.I.U.I.Q.oXQ.F.v.x.x.v.J.K.K.K.K.F.m.4.q . . q 5.m.F.I.K.K.I.I.K.I.U.I.Q.oXQ.K.I.I.I.I.I.I.",
"K.I.K.K.K.K.K.P.I.K.F.K.I.I.I.I.K.I.K.E..XU.U..XR.K.U.U.U.I.I.K.I.I.K.K.R.m.S d d A v.R.I.I.I.I.K.I.K.E..XU.U..XR.K.I.K.I.I.I.I.",
"I.I.I.R.I.R.I.K.I.D.p.A.G.K.F.K.I.I.K.E..XE.K.U.I.K.K.K.K.K.K.I.I.L.I.R.I.I.v.x.x.h.6.A.F.K.F.K.I.I.K.E..XE.K.U.I.K.I.I.I.I.I.I.",
"I.K.R.}.^.}.R.K.I.D.a.m.s.v.a.D.I.K.K.I.U.I.K.K.K.I.K.I.I.I.K.I.I.K.R.}.^.}.E.I.R.F.a.m.s.v.a.D.I.K.K.I.U.I.K.K.K.I.K.I.I.I.I.I.",
"I.U.I.Q.oXQ.K.I.I.K.F.A.<.,.5.F.I.K.I.K.K.K.I.I.I.K.I.I.I.I.I.K.I.U.I.Q.oXQ.K.K.K.K.F.A.<.,.5.F.I.K.I.K.K.K.I.I.I.K.I.I.I.I.I.I.",
"E..XU.U..XR.K.I.K.K.I.F.2.,.C.P.K.K.K.I.I.I.K.I.I.I.I.I.I.I.I.K.E..XU.U..XR.K.I.K.K.I.F.2.,.C.P.K.K.K.I.I.I.K.I.I.I.I.I.I.I.I.I.",
"E..XE.K.U.I.K.I.I.K.K.P.B.a.F.I.K.I.I.I.I.I.I.I.I.I.I.I.I.I.I.K.E..XE.K.U.I.K.I.I.K.K.P.B.a.F.I.K.I.I.I.I.I.I.I.I.I.I.I.I.I.I.I.",
"I.U.I.K.K.K.I.K.I.I.K.I.K.F.K.I.K.K.I.I.I.I.I.I.I.I.I.I.I.I.I.K.I.U.I.K.K.K.I.K.I.I.K.I.K.F.K.I.K.K.I.I.I.I.I.I.I.I.I.I.I.I.I.I."
};
