/* XPM */
static char *c[] = {
/* columns rows colors chars-per-pixel */
"64 64 12 1 ",
"  c #32A63F",
". c #2E8F3F",
"X c #EBD827",
"o c #37BF3F",
"O c black",
"+ c red",
"@ c #EFAD5E",
"# c #BC771F",
"$ c #FFF597",
"% c #B8A500",
"& c #660000",
"* c #FF9611",
/* pixels */
"                                                                ",
"                                                                ",
"                                                                ",
"           o o            .                o o            .     ",
"        oo ooo           .. . .         oo ooo           .. . . ",
"        o   o          . .  ...         o   o          . .  ... ",
"         ..            .    ..           ..            .    ..  ",
"                             .                               .  ",
"                                                                ",
"                                                                ",
"                                                                ",
" .                               .                              ",
" . . .                   .       . . .                   .      ",
"   ...                  ..         ...                  ..      ",
"   ..                 . .          ..                 . .       ",
"    .                 .             .                 .         ",
"                                              OO                ",
"                                            OOXO                ",
"     o o   o  .                      o o  OO$*%O                ",
"     ooo ooo  .                      oooOO$*X%#O                ",
"      o   o o                         OO$$XXX#O                 ",
"        ..                          OO$$XX*XX#O                 ",
"         .                        OO$$X++XXX#O                  ",
"                      o o      OOO$$*X+++&%#O         o o       ",
"                       o      O$$$XXXX+++&X#O          o        ",
"                    o  o   OOO$XXX++XX*+&%#O        o  o        ",
"          .         o    OO$$$XXX+++&%X%X%#O        o           ",
"   o o    . . .        OO$$++XXXX+++&XXXX#O . .                 ",
"    o       ...      OO$$X+++&%*XX+&%XXX##O ...                 ",
" o  o       ..    OOO$$XX*+++&XXXXXXXXX%#O  ..                  ",
" o           .   O$$$XXXXXX+&%XXXXXXX*X#O    .                  ",
"                O$$XXXXXXXX%XXXX*X++XX%#O                       ",
"                O@#X*X++X*XX++XXX+++&%#O                        ",
"                O@@#X+++&%X+++&XX+++&%#O                        ",
"                O@@@#+++&XX+++&*XX+&%#O                         ",
"           o o   O@@@#+&%XXX+&%XXX%XX#O    o o            .     ",
"        oo ooo    O@@@#XX*XXXXXXXXXX#O  oo ooo           .. . . ",
"        o   o      O@@@#XXXX++XX*XX#O   o   o          . .  ... ",
"         ..         O@@@#XX+++&%XXX#O    ..            .    ..  ",
"                     O@@@#X+++&XXX#O                         .  ",
"                      O@@@#X+&%XX%#O                            ",
"                       O@@@#%XXXX#O                             ",
"                        O@@@#X*X%#O                             ",
" .                       O@@@#X%%O                              ",
" . . .                   .O@@@###O . .                   .      ",
"   ...                  .. O@@@#O  ...                  ..      ",
"   ..                 . .   OOOOO  ..                 . .       ",
"    .                 .             .                 .         ",
"                                                                ",
"                                                                ",
"     o o   o  .                      o o   o  .                 ",
"     ooo ooo  .                      ooo ooo  .                 ",
"      o   o o                         o   o o                   ",
"        ..                              ..                      ",
"         .                               .                      ",
"                      o o                             o o       ",
"                       o                               o        ",
"                    o  o                            o  o        ",
"          .         o                     .         o           ",
"   o o    . . .                    o o    . . .                 ",
"    o       ...                     o       ...                 ",
" o  o       ..                   o  o       ..                  ",
" o           .                   o           .                  ",
"                                                                "
};
