/* XPM */
static char *e[] = {
/* columns rows colors chars-per-pixel */
"64 64 182 2 ",
"   c #1B0C1C",
".  c #1D1D1F",
"X  c #310F11",
"o  c #331316",
"O  c #3C1916",
"+  c #36191A",
"@  c #3B1E1C",
"#  c #1C1D20",
"$  c #201624",
"%  c #211826",
"&  c #231929",
"*  c #1D2120",
"=  c #1E2A23",
"-  c #24232A",
";  c #29222F",
":  c #232D2C",
">  c #213B26",
",  c #25362E",
"<  c #25392E",
"1  c #2A2633",
"2  c #2D2B37",
"3  c #312D3B",
"4  c #293A33",
"5  c #33323E",
"6  c #441E16",
"7  c #45211C",
"8  c #4B2418",
"9  c #522719",
"0  c #532A1D",
"q  c #592C1B",
"w  c #5D321E",
"e  c #462522",
"r  c #492A26",
"t  c #542D23",
"y  c #563026",
"u  c #5B3224",
"i  c #563128",
"p  c #59342A",
"a  c #5C382E",
"s  c #633A26",
"d  c #653B26",
"f  c #643C29",
"g  c #6A3F28",
"h  c #613E31",
"j  c #25442E",
"k  c #254B2D",
"l  c #284832",
"z  c #33413F",
"x  c #2C5236",
"c  c #296532",
"v  c #2A6A36",
"b  c #2A6C34",
"n  c #32693D",
"m  c #2C7535",
"M  c #2D7D36",
"N  c #2E7138",
"B  c #6B4027",
"V  c #66402B",
"C  c #6D442B",
"Z  c #71462B",
"A  c #744B2E",
"S  c #7D532F",
"D  c #6E4830",
"F  c #6B4836",
"G  c #724B31",
"H  c #794F30",
"J  c #775134",
"K  c #7D5533",
"L  c #7E5935",
"P  c #7C5639",
"I  c #7E5939",
"U  c #353441",
"Y  c #3C3845",
"T  c #3E3C4C",
"R  c #403F4F",
"E  c #5A484A",
"W  c #435B4E",
"Q  c #454653",
"!  c #4A4654",
"~  c #4D4956",
"^  c #4D4E5B",
"/  c #544B53",
"(  c #514F5D",
")  c #4E525C",
"_  c #4E5C5A",
"`  c #52515E",
"'  c #53595F",
"]  c #654B45",
"[  c #7D5A41",
"{  c #69595B",
"}  c #715F5E",
"|  c #786157",
" . c #534F60",
".. c #565362",
"X. c #585764",
"o. c #5A5966",
"O. c #545969",
"+. c #5D5C6B",
"@. c #605E6D",
"#. c #5A606E",
"$. c #586C6B",
"%. c #5C6371",
"&. c #66636D",
"*. c #746363",
"=. c #796865",
"-. c #786867",
";. c #796B6B",
":. c #646877",
">. c #666B79",
",. c #686978",
"<. c #776E72",
"1. c #7D7477",
"2. c #77737B",
"3. c #7B767B",
"4. c #7F787C",
"5. c #805732",
"6. c #815A35",
"7. c #825C3A",
"8. c #85603C",
"9. c #89633E",
"0. c #825E42",
"q. c #846144",
"w. c #8B6643",
"e. c #8D6840",
"r. c #866649",
"t. c #886D57",
"y. c #8C7156",
"u. c #94775A",
"i. c #856D66",
"p. c #8A746A",
"a. c #8A796C",
"s. c #9B7E62",
"d. c #807779",
"f. c #81797C",
"g. c #2E8136",
"h. c #2E8438",
"j. c #2F8A3B",
"k. c #308F3C",
"l. c #31943C",
"z. c #339A3E",
"x. c #33A13F",
"c. c #34A93F",
"v. c #378744",
"b. c #318F41",
"n. c #398B47",
"m. c #398D48",
"M. c #329441",
"N. c #399247",
"B. c #339E41",
"V. c #35A441",
"C. c #35A941",
"Z. c #37B441",
"A. c #38B741",
"S. c #39BA41",
"D. c #9E8269",
"F. c #697489",
"G. c #727683",
"H. c #737B89",
"J. c #807F87",
"K. c #7C828E",
"L. c #7B8693",
"P. c #7E8896",
"I. c #848994",
"U. c #8F8F95",
"Y. c #868D98",
"T. c #8E929A",
"R. c #92959C",
"E. c #95989F",
"W. c #8D97A4",
"Q. c #949BA5",
"!. c #939EAB",
"~. c #989EA9",
"^. c #97A0A8",
"/. c #9AA3AC",
"(. c #9CA6B2",
"). c #9EA9B5",
"_. c #A1AAB4",
"`. c #A1ADB9",
"'. c #A4B0BA",
"]. c #B2B9BF",
"[. c #CDC5BF",
"{. c #D5CFCA",
/* pixels */
"V.V.V.V.V.V.V.V.V.V.V.V.V.V.V.V.V.V.V.V.V.V.V.V.V.V.V.V.V.V.V.V.V.V.V.V.V.V.V.V.V.V.V.V.V.V.V.V.V.V.V.V.V.V.V.V.V.V.V.V.V.V.V.V.",
"V.V.V.V.C.V.V.V.V.V.V.V.V.V.V.V.V.V.V.C.V.V.V.V.V.V.V.V.V.V.V.V.V.V.V.V.V.V.V.V.V.V.V.V.V.V.V.V.V.V.V.V.V.V.V.V.V.V.V.V.V.V.V.V.",
"V.V.V.C.V.V.V.V.V.V.V.V.V.V.V.V.V.V.V.V.V.V.V.V.V.V.V.V.V.V.V.V.V.V.V.V.V.V.V.V.V.V.V.C.V.C.V.V.V.V.V.C.V.V.V.V.V.V.V.V.V.V.V.V.",
"V.V.V.V.V.V.V.V.V.V.C.A.C.A.C.V.V.V.C.V.V.V.V.V.V.B.N.V.V.V.V.V.V.V.V.V.V.C.V.V.V.C.C.A.C.Z.C.V.V.V.V.V.V.V.V.V.V.B.M.B.V.V.V.V.",
"V.V.V.V.V.V.V.V.A.A.C.A.S.A.V.V.V.V.V.V.V.V.V.V.V.M.M.B.M.B.M.B.V.V.V.V.V.V.V.C.A.Z.C.A.S.A.C.V.V.V.V.V.V.V.V.V.B.M.M.B.M.B.M.V.",
"V.C.V.V.C.C.V.C.Z.V.V.V.S.C.V.V.V.V.V.V.V.V.V.M.B.M.B.B.M.b.M.V.V.V.V.V.V.V.V.C.Z.C.B.C.A.C.V.V.V.C.C.V.V.V.V.M.B.M.B.V.b.b.M.B.",
"V.V.V.C.V.V.V.V.V.M.N.V.C.V.V.V.V.V.V.V.V.V.V.M.B.V.V.V.M.b.B.V.V.V.V.V.V.V.V.V.V.M.M.B.C.V.V.V.V.V.V.V.V.V.V.M.V.V.V.B.M.b.B.C.",
"V.V.V.V.V.V.V.V.V.V.V.V.V.V.V.V.V.V.V.V.V.V.V.V.V.V.V.V.B.M.V.V.V.V.V.V.V.V.V.V.B.V.V.V.V.V.V.V.V.V.V.V.V.V.V.V.V.V.V.C.B.M.B.V.",
"V.V.V.V.V.V.V.V.V.V.V.V.V.V.V.V.V.V.V.V.V.V.V.V.V.V.V.V.V.V.V.V.V.V.V.V.V.V.V.V.V.V.V.V.V.V.V.V.V.V.V.V.V.V.V.V.V.V.V.V.V.B.V.C.",
"V.V.V.V.V.V.V.V.V.V.V.V.V.V.V.V.C.V.V.V.V.V.V.V.V.V.V.V.V.V.V.V.V.V.V.V.V.V.V.V.V.V.V.V.V.V.V.V.C.C.V.V.V.V.V.V.V.V.V.V.B.C.V.V.",
"V.V.V.V.V.V.V.V.V.V.V.V.C.V.V.V.V.V.V.V.V.V.V.V.V.V.V.V.V.V.V.V.V.V.V.V.V.V.V.V.V.V.V.V.V.C.V.V.V.V.V.V.V.V.V.V.V.V.C.V.V.V.V.V.",
"B.M.B.V.V.V.V.V.V.V.V.V.V.V.V.V.V.V.V.V.V.V.V.V.V.B.V.V.V.V.V.V.V.N.V.V.V.V.V.V.V.V.V.V.V.V.V.V.V.V.V.V.V.V.V.V.V.B.V.V.V.V.V.V.",
"V.M.B.M.B.M.B.V.V.V.V.C.V.V.V.V.V.V.V.V.V.V.V.V.B.M.B.V.V.V.V.V.B.M.B.M.B.M.V.V.V.V.V.V.V.C.C.V.V.V.V.V.V.V.V.V.B.M.B.V.V.V.V.V.",
"V.V.V.b.b.M.V.V.V.V.V.V.V.V.C.V.V.V.V.V.V.V.V.V.M.M.V.V.V.V.V.V.V.V.B.M.b.M.B.V.V.C.V.V.V.V.V.V.V.V.V.V.V.V.V.B.M.N.V.V.V.V.V.V.",
"V.V.B.M.M.B.V.V.V.V.V.V.V.V.V.V.V.c.V.V.V.B.M.B.M.B.V.V.V.V.V.V.V.V.V.M.b.B.V.V.V.B.V.V.V.x.V.V.V.C.V.V.V.V.M.B.M.B.V.V.V.V.V.V.",
"V.V.V.B.N.V.V.V.V.V.V.V.V.V.V.V.V.V.x.C.c.V.z.V.V.C.C.C.C.c.c.c.C.V.C.B.B.B.C.C.C.C.C.C.C.V.V.V.V.V.V.V.V.V.M.B.V.V.V.V.V.V.C.V.",
"V.V.V.V.V.V.V.V.V.V.V.V.V.V.V.c.V.V.V.N.n.N.n.n.v.n.v.n.n.m.m.m.n.n.m.m.n.m.m.m.m.m.n.v.m.B.V.V.V.V.V.V.V.V.B.V.V.V.V.V.V.V.C.V.",
"V.V.V.V.V.V.V.V.V.V.V.V.V.V.B.V.V.z.n.$.%.%.%.%.%.&.%.%.%.%.#.#.#.#.#.#.#.#.#.+.%.%.%.:.$.v.l.V.V.V.V.V.V.V.C.V.V.V.V.V.V.V.V.V.",
"V.V.V.V.C.Z.C.Z.C.C.C.Z.C.B.B.B.C.b z I.!.!.Q.Q.~.Q.Q.!.!.Q.!.!.^.^.Q.W.Q.Q.Q.Q.Q.!.^.^.Y.z c V.V.V.V.V.V.V.V.V.V.V.V.V.V.C.V.V.",
"V.V.V.V.C.A.S.A.C.A.S.S.C.x.M.z.m W >./.I.>.L.P.L.L.L.L.L.L.G.,.:.G.L.L.L.L.L.L.L.L.,.I./.,.W b B.C.V.V.C.V.V.V.V.V.V.V.V.V.V.V.",
"V.V.V.C.V.C.Z.C.B.C.A.C.Z.V.V.l., @.'._.X.; ^ ) ^ ^ ^ ^ ^ ` Y % % Y ' ) ` ^ ( ^ ( ~ 1 o._._.@., M.V.V.V.V.V.V.V.V.V.V.V.V.V.V.V.",
"V.V.V.V.V.V.V.V.M.M.V.V.V.V.C.M.< +._.).{ o y e + @ r p i p e o o 7 p i i t y i i t o { )._.@.< M.V.x.V.V.V.V.V.V.V.V.V.V.V.C.V.",
"V.C.V.V.V.V.V.V.B.M.B.V.V.V.C.l.< +.).).} 9 C u 6 7 d H A H s 7 7 s A A A g u B A Z 8 { )._.+.< M.C.V.V.V.V.V.V.V.V.V.V.V.V.V.V.",
"V.V.V.V.V.V.V.V.V.B.C.V.V.V.C.l.< +.).).| u 8.C i g 6.9.9.9.G y u G 9.8.9.J u J e.7.B =.(.(.+.< M.C.V.V.V.C.Z.C.Z.C.V.C.V.V.V.V.",
"C.V.V.V.V.V.C.V.V.V.V.V.V.V.C.l.< +._.(.*.u I V f 7.7.7.7.8.G t t G 9.7.7.J p J 8.8.S a./.).+.< l.x.V.V.C.V.V.A.C.V.V.V.V.V.V.V.",
"V.V.V.V.V.V.V.V.V.V.B.V.V.x.C.l.< +._.(.| w I f s 7.q.7.8.8.D t t D w.7.7.6.G 6.8.L L a./.).+., N l.V.C.A.V.V.A.V.V.V.V.C.V.V.V.",
"V.V.V.C.C.C.V.V.V.V.M.V.B.V.V.M., +._._.*.w L D C 7.7.7.I 8.D t t D 7.7.7.7.7.7.8.L S a.(.).#.: c j.V.C.A.C.V.V.V.V.V.V.V.V.V.V.",
"V.C.C.C.C.C.C.V.C.B.M.B.M.B.B.k.< +.(.(.} w 6.8.7.7.7.7.8.8.D t t D 8.7.7.7.7.7.L I L a.^.).&.: c j.V.V.V.V.V.V.V.V.V.V.V.V.V.C.",
"V.C.V.C.Z.C.V.V.V.V.V.B.b.b.M.M., +./.H.E u L 8.7.7.I I 8.8.D t t D 8.7.7.7.7.I 7.7.6.| F.^.+.: c l.c.x.V.V.V.V.V.V.C.V.V.C.V.V.",
"C.Z.C.V.Z.C.V.V.V.V.V.V.M.b.j.n _ K.Q.~ r u L 8.7.7.8.I 8.8.D t t D 8.7.7.I 7.7.I 7.7.F / E.K.' x h.c.c.V.V.V.V.V.V.V.V.V.V.V.V.",
"C.Z.C.V.V.V.V.V.V.V.V.B.B.B.v U I.'.T.r 7 V I 8.7.7.I 7.7.8.D t t D 8.7.7.7.7.7.7.7.7.g h R.`.Y.5 c z.x.C.V.V.V.V.V.V.V.V.V.V.V.",
"V.V.V.V.V.V.V.V.V.V.V.V.V.V.v U I.'.R.p d I 8.7.7.7.7.7.7.8.D t y D 8.7.7.I 7.I 6.7.7.S 0.R._.U.5 x h.x.V.V.C.C.V.V.V.V.V.C.V.V.",
"V.V.V.V.V.V.V.V.V.V.V.V.V.C.v 3 I.`.R.a C 9.7.7.7.7.7.7.7.7.D t t D 8.7.7.7.7.8.7.7.7.6.q.R.).I.5 j M x.V.V.V.V.V.V.V.V.V.V.V.V.",
"V.C.V.V.V.V.V.V.V.V.V.V.V.V.m 5 I._.R.a B 8.7.7.7.7.7.7.7.7.D t t D 8.7.7.7.7.P L 7.7.L q.R.`.I.U k g.x.V.V.V.V.V.V.V.V.V.V.V.V.",
"V.V.V.V.V.V.V.V.V.V.V.C.V.C.v U I.`.T.a B 8.7.7.L 7.7.7.7.9.D t t D 8.7.7.7.I f C 7.7.K q.R.).I.5 k M x.V.x.V.V.V.V.B.V.V.V.V.V.",
"V.V.V.V.V.V.V.V.C.V.C.Z.C.A.m 3 I.`.T.a B 8.7.L L K 6.7.6.7.Z t t D 7.K 6.7.6.u u 7.8.5.q.R.).I.5 k g.x.V.V.V.V.V.V.M.V.V.V.V.V.",
"V.V.V.C.V.V.V.C.Z.Z.C.A.S.S.m 5 I.`.T.a g 8.7.L w.s.I P t.9.C t t C w.s.7.P t.F C 6.7.S 0.E.).I.5 k g.x.V.V.V.V.V.M.N.B.M.B.M.B.",
"V.V.V.V.V.V.V.C.Z.C.B.C.A.C.b U I._.T.a B 8.7.S D.[.} { R.y.C t t g u.{.p.] T.t.6.7.7.6.q.W.).I.5 j g.x.V.V.V.M.B.M.B.B.b.b.M.V.",
"C.V.V.V.V.V.V.V.B.B.M.V.V.C.b 5 I.`.T.a B 8.7.6.0.i.d.R./.y.C t t g u.].~.<.{ [ 7.7.7.K 0.E.).Y.5 k M z.V.x.V.M.B.V.V.V.M.b.B.V.",
"V.V.V.V.V.V.V.C.V.B.V.x.V.C.b 5 I.`.T.a B 8.7.7.A d =.J.d.r.C t t Z r.1.J.-.f H 7.7.7.5.0.E.).I.5 k g.x.V.V.V.V.V.V.V.V.B.M.V.V.",
"V.V.V.V.V.V.V.V.V.V.V.c.V.V.b 5 I.`.T.a g 7.7.7.7.P f u p 5.A t t A L p u f 6.7.7.7.6.5.q.R.).I.5 k M x.V.x.V.V.V.V.V.V.V.B.V.V.",
"V.V.V.V.V.V.V.V.V.V.V.V.V.C.b 5 I.).T.a g 7.7.7.7.7.P A J 7.D t t Z 7.H G P 7.7.7.7.7.L q.R.).I.5 k g.x.V.V.c.V.V.V.V.V.V.V.V.V.",
"V.V.V.V.V.V.V.V.V.V.V.V.V.C.b 5 I.`.T.a g e.7.7.7.7.7.7.7.9.D t t D 9.7.7.7.7.7.7.6.6.L q.E.).I.5 k m j.z.V.x.V.V.V.V.V.V.V.V.V.",
"V.M.B.V.V.V.V.V.V.V.V.V.V.V.N 5 I.`.T.a g 7.7.7.7.7.7.7.7.9.G t u G 9.7.7.7.7.7.7.7.7.5.q.W.).I.U k b b k.V.V.c.V.V.V.V.V.V.V.V.",
"B.M.B.M.M.M.V.V.V.V.V.c.V.C.b 5 I.`.W.a C 7.7.7.7.7.7.7.7.w.D t t D 0.7.7.7.7.7.I I 7.5.w.E.`.Y.U k m c k.V.V.V.B.M.V.V.V.V.V.V.",
"V.V.V.b.M.M.B.V.V.V.V.V.c.C.b 2 I.!.G.p Z 7.7.7.7.7.7.0.7.G f u u f G 7.7.7.7.7.7.7.7.6.0.G.W.Y.5 k m b k.V.V.x.M.M.V.V.V.V.V.V.",
"C.V.V.M.b.B.V.V.V.V.c.V.V.l.n Q T.H.! t Z 7.7.9.7.P 7.7.6.s t t t t s 7.7.7.7.7.7.P 7.7.P / H.T.! x c b l.V.M.B.M.B.V.V.V.V.V.V.",
"V.V.V.B.M.V.V.V.V.V.x.V.z.x ) W.).;.O 9 A 9.7.9.J s J 0.7.f 7 + o 6 f 7.0.7.7.7.G s J q.L t ;.).R.' j c k.V.M.B.V.V.V.V.V.V.V.V.",
"V.V.V.V.B.V.V.V.V.V.V.C.M.j  .)._.*.7 C 7.7.D I J u J e.7.g e X o 7 V 8.9.8.8.9.G u L 9.6.q -._._.o., c l.x.x.x.C.V.V.V.V.C.V.V.",
"V.V.V.V.V.C.C.V.V.V.C.C.M.l ..(._.-.q A L Z 0 B C t V L G u O X X O q A J A H J V 0 C K A 9 -.)./.X., b l.V.c.V.V.V.V.V.V.V.C.C.",
"V.V.V.V.C.Z.C.Z.C.V.C.A.B.j ^ /.(.-.9 u u t @ 0 t @ t u u 6 + + + + 7 y u u u u r @ t u u 9 ;.(./.' , c l.x.V.c.V.V.V.V.V.V.V.V.",
"V.V.V.V.C.A.S.Z.C.Z.A.A.B.j  ._._.U.d.d.f.f.3.4.f.2.4.f.f.2.2.2.2.2.3.f.f.f.4.f.4.2.d.f.d.d.U.(._.+.< b l.V.V.V.V.V.V.V.V.V.V.V.",
"V.V.V.V.V.C.Z.C.V.C.A.C.V.l ~ Y.I.W.(.(.).).).).).).).).)._._._._._.).).(.(.(.(._.).).(.).(.W.I.I.( , b l.V.V.x.V.V.V.V.C.V.V.V.",
"V.V.V.V.V.C.C.V.M.M.V.V.B.l Y %.O.H.!.Q.Q.Q.Q.Q.Q.Q.Q.Q.Q.Q.Q.Q.Q.Q.Q.Q.Q.Q.Q.Q.Q.Q.Q.Q.!.^.G.O.+.R 4 b l.V.c.V.V.V.V.V.V.V.V.V.",
"V.V.V.V.V.V.V.V.B.M.B.V.B.l T %.#.%.>.:.,.:.,.:.:.:.:.:.:.:.:.:.:.:.,.:.:.:.:.:.:.:.,.,.>.>.%.+.#.T 4 b l.c.c.V.V.V.V.V.V.V.V.C.",
"V.V.V.V.V.V.V.V.V.V.V.V.B.j 3 ^ Q ) O.O.O.O.O.O.O.O.O.O.O.O.O.O.O.O.O.O.O.O.O.O.O.O.O.O.O.O.) Q ~ 5 , b l.c.C.c.A.V.V.V.V.V.V.V.",
"V.V.V.V.V.V.V.V.V.V.V.V.z.> $ 1 1 T O.O.O.O.O.O.O.O.O.O.O.O.O.O.O.O.O.O.O.O.O.O.O.O.O.O.O.O.T 1 ; $ = b N.V.C.A.C.V.V.V.C.V.V.V.",
"V.V.V.V.V.V.V.V.V.V.B.V.z.>   $ 1 5 U U U U U U 5 U U U 5 U U U U U U U U U U 5 U U 5 U U U 5 1 $ X = b x.C.V.A.V.V.V.V.V.C.V.V.",
"V.V.V.V.V.V.V.V.V.V.M.V.z.m k > - & & % % % % % % % % % % % % % # % % % % % % % % % % & % & & - > > k g.c.c.V.V.V.V.V.V.V.V.V.C.",
"V.V.C.Z.C.Z.V.V.V.B.M.B.M.z.j.b > * . # # . . . . . . . . . # * # # # # . . . . . . . # # # . = c m g.V.V.V.V.V.V.V.V.V.V.V.V.V.",
"V.C.V.C.A.C.V.V.V.V.V.B.l.b.k.l.l.h.m m m m m m m m m m m m m m m m m M g.M m m m m m m b b c N M l.z.x.V.V.V.V.V.V.V.V.V.V.V.V.",
"C.Z.V.C.A.V.V.V.V.V.c.V.M.b.V.V.V.C.V.C.C.C.C.C.C.C.C.C.C.V.C.C.Z.S.C.C.S.C.C.C.C.V.C.V.N.M.V.C.x.c.V.C.V.V.V.V.C.V.V.V.V.C.V.V.",
"C.Z.C.V.V.V.V.V.V.V.V.V.B.M.V.V.x.V.c.V.V.V.V.x.x.V.V.V.V.V.V.V.C.Z.V.x.c.V.V.c.c.V.V.x.z.M.x.V.x.C.x.V.V.V.V.V.V.V.V.V.V.V.V.V.",
"V.V.V.V.V.V.V.V.V.V.V.V.V.B.V.V.V.x.V.V.V.V.x.V.V.c.V.V.x.V.x.c.V.V.V.x.V.x.V.V.V.x.V.V.c.V.V.c.V.x.V.V.V.V.V.V.C.C.V.V.V.V.V.V."
};
