/* XPM */
static char *p_f[] = {
/* columns rows colors chars-per-pixel */
"64 64 163 2 ",
"   c #10081E",
".  c #1D0D26",
"X  c #150D20",
"o  c #1C1226",
"O  c #1F1428",
"+  c #201729",
"@  c #231B2B",
"#  c #2A1D2D",
"$  c #22242C",
"%  c #2C212E",
"&  c #232C2E",
"*  c #23332D",
"=  c #28322F",
"-  c #253C2F",
";  c #242D30",
":  c #322431",
">  c #392632",
",  c #372A33",
"<  c #3C2B35",
"1  c #2A3231",
"2  c #273A34",
"3  c #2D3B32",
"4  c #412F37",
"5  c #452F38",
"6  c #473139",
"7  c #4C343B",
"8  c #4B3A3A",
"9  c #52363D",
"0  c #55393F",
"q  c #583B3D",
"w  c #284E32",
"e  c #294638",
"r  c #2A4E3A",
"t  c #324C3C",
"y  c #2A5334",
"u  c #2A5B34",
"i  c #2B523C",
"p  c #2C5B3F",
"a  c #2C6536",
"s  c #266D35",
"d  c #2C6A37",
"f  c #2A623B",
"g  c #2C6E3C",
"h  c #277C37",
"j  c #2D7138",
"k  c #2E7B3A",
"l  c #54403F",
"z  c #3A3242",
"x  c #573B40",
"c  c #5A3D41",
"v  c #2E5E40",
"b  c #365E42",
"n  c #2E6040",
"m  c #3D7641",
"M  c #574541",
"N  c #5E4143",
"B  c #5E4B44",
"V  c #465844",
"C  c #4F4653",
"Z  c #524B59",
"A  c #585848",
"S  c #624544",
"D  c #654946",
"F  c #684947",
"G  c #6C4D49",
"H  c #6D524A",
"J  c #74544D",
"K  c #79564F",
"L  c #765A4E",
"P  c #79584F",
"I  c #7C5350",
"U  c #7C5C50",
"Y  c #4A7E46",
"T  c #537B47",
"R  c #5C7549",
"E  c #547D48",
"W  c #636B4A",
"Q  c #68654B",
"!  c #70614D",
"~  c #65744C",
"^  c #7C6351",
"/  c #756B50",
"(  c #5E5865",
")  c #786F79",
"_  c #7E737A",
"`  c #826353",
"'  c #846955",
"]  c #896C57",
"[  c #8C6F58",
"{  c #8B7058",
"}  c #937657",
"|  c #92765B",
" . c #95795C",
".. c #997D5E",
"X. c #887973",
"o. c #288738",
"O. c #298B3B",
"+. c #30863C",
"@. c #318B3D",
"#. c #26903B",
"$. c #29933B",
"%. c #2C9B3C",
"&. c #32933E",
"*. c #339A3F",
"=. c #2CA335",
"-. c #2AA539",
";. c #2BAB39",
":. c #2BAB32",
">. c #31A03F",
",. c #34AA3C",
"<. c #2BB537",
"1. c #2CBA37",
"2. c #2DB438",
"3. c #33B53C",
"4. c #3BB23D",
"5. c #31BA3A",
"6. c #42BC3C",
"7. c #2EC637",
"8. c #2ECE34",
"9. c #39D336",
"0. c #39C439",
"q. c #46C13E",
"w. c #49C33F",
"e. c #4FCE3F",
"r. c #4BDB3A",
"t. c #55D73E",
"y. c #50D93C",
"u. c #59DA3E",
"i. c #5CE13E",
"p. c #55E43B",
"a. c #64EE3D",
"s. c #68F43D",
"d. c #328E41",
"f. c #3C8A41",
"g. c #2E9240",
"h. c #339341",
"j. c #3B9541",
"k. c #349C41",
"l. c #3B9D42",
"z. c #35A541",
"x. c #38A142",
"c. c #36AB41",
"v. c #37B141",
"b. c #38B441",
"n. c #39BB41",
"m. c #4D8646",
"M. c #4C8B46",
"N. c #428444",
"B. c #538347",
"V. c #558248",
"C. c #439444",
"Z. c #489145",
"A. c #419843",
"S. c #9E8060",
"D. c #817C87",
"F. c #959199",
"G. c #AE9C94",
"H. c #B9ABAB",
"J. c #D2C6BA",
"K. c #CDC4C5",
"L. c #D0C8C9",
"P. c #E5DFDD",
"I. c white",
/* pixels */
"z.z.z.z.z.z.z.z.z.z.z.z.z.z.z.z.z.z.z.z.z.z.z.z.z.z.z.z.z.z.z.z.z.z.z.z.z.z.z.z.z.z.z.z.z.z.z.z.z.z.z.z.z.z.z.z.z.z.z.z.z.z.z.z.",
"z.z.z.z.z.z.z.z.z.z.b.b.c.b.z.z.z.z.z.z.z.z.z.z.z.z.h.z.z.z.z.z.z.z.z.z.z.z.z.z.z.z.z.z.n.c.n.c.z.z.z.z.z.z.z.z.z.z.z.k.h.z.z.z.",
"z.z.z.z.z.z.z.b.n.c.b.n.n.b.z.z.z.z.z.z.z.z.z.z.z.h.d.k.h.k.h.k.c.z.z.z.z.z.z.z.z.n.n.c.n.n.n.c.z.z.z.z.z.z.z.z.z.z.k.h.h.k.h.z.",
"z.z.z.z.z.z.z.b.b.z.c.b.n.z.z.z.z.z.z.z.z.z.z.h.z.h.k.z.h.h.d.k.z.z.z.z.z.z.z.z.c.n.c.z.c.n.c.z.z.z.z.z.z.z.z.c.k.k.z.d.z.z.d.h.",
"z.z.z.z.z.z.z.c.k.h.k.c.z.z.z.z.z.z.z.z.z.z.z.h.z.k.z.z.h.d.k.z.z.z.z.z.z.z.z.z.z.c.h.h.z.c.z.z.z.z.z.z.z.z.z.z.k.h.z.z.z.z.d.d.",
"z.z.z.z.z.z.z.z.k.k.z.z.z.z.z.z.z.z.z.z.z.z.z.k.z.z.z.z.z.h.k.z.z.z.z.z.z.z.z.z.z.z.k.k.z.z.z.z.z.z.z.z.z.z.z.z.z.k.z.z.z.z.k.d.",
"z.z.z.z.z.z.z.z.z.z.z.z.z.z.z.z.z.z.z.z.z.z.z.z.z.z.z.z.z.z.k.z.z.z.z.z.z.z.z.z.z.z.z.z.z.z.z.z.z.z.z.z.z.z.z.z.z.z.z.z.z.z.z.k.",
"z.z.z.z.z.z.z.z.z.z.z.z.z.z.z.z.z.z.z.z.z.z.z.z.z.z.z.z.z.z.z.z.z.z.z.z.z.z.z.z.z.z.z.z.z.z.z.z.z.z.z.z.z.z.z.z.z.z.z.z.z.z.z.z.",
"z.z.z.z.z.z.z.z.z.z.z.z.z.z.z.z.z.z.z.z.z.z.z.z.z.z.z.z.z.z.z.z.z.z.z.z.z.z.z.z.z.z.z.z.z.z.z.z.z.z.z.z.z.z.z.z.z.z.z.z.z.z.z.z.",
"k.z.z.z.z.z.z.z.z.z.z.z.z.z.z.z.z.z.z.z.z.z.z.z.z.z.z.z.z.z.z.z.c.k.k.z.z.z.z.z.z.z.z.z.z.z.z.z.z.z.z.z.z.z.z.z.z.z.z.z.z.z.z.z.",
"d.k.k.z.k.z.z.z.z.z.z.z.z.z.c.z.z.z.z.z.z.z.z.z.z.k.z.z.z.z.z.z.z.k.k.z.k.z.k.z.z.z.z.z.z.z.z.z.z.z.z.z.z.z.z.z.z.z.z.k.z.z.z.z.",
"k.z.h.h.d.k.z.z.z.z.z.z.z.z.z.z.z.z.z.z.z.z.z.z.k.g.m.B.B.m.B.B.B.T T E m.h.h.z.z.z.z.z.z.z.z.z.z.z.z.z.z.z.z.z.x.z.h.h.z.z.z.z.",
"x.z.h.d.h.z.z.z.z.z.z.z.z.z.z.z.z.z.z.z.z.z.k.z.g.k.Q I I I I I K I I I Q g.k.z.z.z.z.z.z.z.z.z.z.z.z.z.z.z.z.z.k.k.d.k.z.z.z.z.",
"z.z.h.d.z.z.z.z.z.z.z.z.z.z.z.z.z.z.z.z.z.z.Y M.Y m./ ` ` ' ' ` U L U ` / Y M.M.M.M.M.z.z.z.z.z.z.z.z.z.z.z.z.k.h.z.k.z.z.z.z.z.",
"z.z.z.k.z.z.z.z.z.z.z.z.z.z.z.z.z.z.z.z.z.z.L I I I |  . . . . .] L ` ..{ K I I L I L x.z.z.z.z.z.z.z.z.z.z.z.k.k.z.c.z.z.z.z.z.",
"z.z.z.z.z.z.z.z.z.z.z.z.z.z.z.z.z.z.z.z.Z.Z.^ ` ^ U ' ' ' ' ' ' U H L ' ' ` U ` U ` ^ M.Z.z.z.z.z.z.z.z.z.z.z.z.z.z.z.z.z.z.z.z.",
"z.z.z.z.c.z.c.z.z.z.z.c.z.z.z.z.z.z.z.l.L U |  . . .D 9 x x x x x x x x D  . . ... .| U L l.z.z.z.z.z.z.z.z.z.z.z.z.z.z.z.z.z.z.",
"z.z.z.z.n.c.n.c.c.c.b.b.z.k.h.z.z.x.A.Z.^ U ] ] ] { M 7 7 7 7 7 7 7 7 8 N [ [ ] ] | | ^ U M.C.d.k.c.z.z.z.z.z.z.z.z.z.z.z.z.z.z.",
"z.z.z.z.b.n.n.c.c.n.n.b.z.k.h.z.z.A.P U  .{ c q q q % O O + + + O O O O : x x x N |  .|  .U K N.z.z.z.z.z.z.z.z.z.z.z.z.z.z.z.z.",
"z.z.z.z.z.n.c.z.z.b.b.c.b.z.z.z.z.A.P U  .| S N 9 9 % O + + + + O O O O % 9 9 M D |  . . .U U C.z.z.z.z.z.z.z.z.z.z.z.z.z.z.z.z.",
"z.z.z.z.z.z.c.h.h.k.z.z.z.z.z.z.z.C.L U |  .| { : + + + + + + + O O + + O + ,  .| |  . .| U I C.z.z.z.z.z.z.z.z.z.z.z.z.z.z.c.z.",
"z.z.z.z.x.c.z.z.h.k.z.z.z.z.z.z.z.j.J L | |  . ., @ @ # @ @ # @ $ # # # # + <  .| | | | | U L A.z.z.z.z.z.z.z.c.z.z.c.z.z.z.z.z.",
"z.z.z.z.z.z.z.z.z.z.z.z.z.z.z.z.c.@.# : L U |  .{ { { ] { { ] { { { { { [ [ { | { U U c M j.l.z.z.z.z.z.z.z.z.c.b.c.b.z.z.z.z.z.",
"z.z.z.z.z.z.z.z.z.z.z.z.c.x.x.,.c.@.O # J U |  . . .|  . . . . .|  .| |  . . . .| U K c x j.z.z.z.z.z.z.z.z.z.z.b.b.z.z.z.z.z.z.",
"c.z.z.z.z.z.z.z.z.z.z.q.u.i.i.y.7.=.+ # J U U U U U { ..J N J ^ U ^ U U U U U ^ U U L x x j.c.z.z.z.z.z.z.v.c.z.c.n.z.z.z.z.z.z.",
"z.z.z.z.z.z.z.z.z.k.k.w.a.a.a.p.8.;.O # J U U I L U [ ..F 9 D P I L U L U J U I L I J x x j.z.z.z.z.z.z.z.v.b.z.z.z.z.z.z.z.z.z.",
"z.z.b.c.b.c.z.z.x.q.u.r.9.0.,.,.-.$.r t J J N N J I G S G J D S 7 : : , 4 N S U J N N m f.h.z.h.z.z.z.z.z.c.c.z.z.z.z.z.z.z.z.z.",
"z.z.c.4.c.z.z.z.k.e.s.r.8.<.$.$.$.O.p b L U x x J L c x G K S 7 , o O O # 9 c J L q l k.z.g.h.g.*.z.z.z.z.z.z.z.z.z.z.z.z.z.z.z.",
"b.c.z.n.c.z.z.w.t.q.4.,.;.;.1.1.1.=.* 1 V V x x ' [ S x L [ G.L.) o + o C K.H.K J x x k.z.R W Q W C.z.z.z.z.z.z.z.z.z.z.z.z.z.z.",
"n.z.c.c.z.z.z.t.s.4.#.$.$.;.8.8.8.:.+ @ i p 8 x {  .S 7 ^ | J.I.F.X + o ( I.P.K J x M k.z.L J I K Z.c.z.z.z.z.z.z.z.z.z.z.z.z.z.",
"v.z.z.z.z.z.z.4.q.5.<.<.<.<.3.3.5.*.O @ A A D G {  .D x `  .X.D.Z o + O z D._ P L q 0 y y ^ ] ] ] ~ R C.z.z.z.z.z.z.c.z.z.z.z.z.",
"z.z.z.z.z.z.z.%.#.<.8.8.8.5.z.z.z.@.+ # L I U U | ..S x ` S.8   o + + + +   # P L c 9 O O ] ......` K m.c.z.z.z.z.z.z.z.z.z.z.z.",
"z.z.z.z.z.z.z.k.%.,.5.3.1.4.z.z.z.d.O # J P P P P J F S U [ H N < O O O $ < 6 P J 4 > > > H L [ | ` I B.z.z.z.z.z.z.z.z.z.z.z.z.",
"z.z.z.z.z.z.z.z.z.z.z.z.z.z.z.z.z.d.O % J P P P c x J U U J [ ..l o O O % q S P H + + x x x 9 ] ..` I B.z.z.z.z.z.z.z.z.z.z.z.z.",
"z.z.z.z.z.z.z.z.z.z.c.c.z.c.z.z.c.@.O $ L P P K c x H U K K ]  .L < 4 5 6 q q P H + + 9 x x x F H W ~ Z.z.z.z.z.z.z.z.z.k.z.z.z.",
"z.z.z.z.z.z.z.c.c.c.v.n.v.n.z.z.z.@.O # K P P P c x H U P J ]  .{ L ^ P J q N P J + + 0 x x x # . h c.z.z.z.z.z.z.z.z.k.h.z.z.z.",
"z.z.z.z.z.z.z.b.n.c.v.n.n.c.z.z.c.@.O # F H K P c x H U K J ' [ ` G H G F N D I H : : 6 6 5 7 3 - o.c.z.z.z.z.z.z.z.k.d.h.z.d.k.",
"z.z.z.z.z.z.z.b.c.k.z.c.b.z.z.z.z.d.o # x x J P c x G U U J U U D 0 x 0 N U P P L x 9 + + O O O.c.z.z.z.z.z.z.z.k.h.z.h.z.z.d.d.",
"z.z.z.z.z.z.z.z.k.h.k.z.z.z.z.z.z.&.* = x 6 J I x x H U U K U U F c x x N L P P L c x @ + & * @.z.z.z.z.z.z.z.z.k.h.z.z.z.z.h.d.",
"z.c.z.z.z.z.z.z.z.z.z.z.c.x.z.z.z.z.z.h.O @ J U c x G U U J K J U I G 9 S U P P P K J # + &.z.z.z.z.z.z.z.z.z.z.z.z.z.z.z.z.z.h.",
"z.z.z.z.z.z.z.z.z.z.z.z.z.z.z.z.z.z.z.&.O # H U N c G J U J J U I I G x D I L U J L J # O &.c.z.z.z.z.z.z.z.z.z.z.z.z.z.z.z.z.z.",
"z.z.z.z.z.z.z.z.z.z.z.z.z.z.z.z.z.z.c.&.$ @ J L L I N x G U K U U L U L J U I L U I J @ @ &.z.z.z.z.z.z.z.z.z.z.z.z.z.z.z.z.z.z.",
"z.z.z.z.z.z.z.z.z.z.z.z.z.z.z.z.z.z.z.&.O # G L J U c 7 G U U U L U L J J U I L J L J # O h.c.z.z.z.z.z.z.z.z.z.z.z.z.z.z.z.z.z.",
"h.z.z.z.z.z.z.z.z.z.z.z.z.z.z.z.z.z.z.*.@ + 0 x J U c x G U K J I I G x N U L I J x x + O &.z.z.z.z.z.z.z.z.z.z.z.z.z.z.z.z.z.z.",
"d.z.h.k.h.k.z.z.z.z.z.z.z.z.z.z.z.z.z.&.$ # 7 x J U c x G U J I L U G x N I U L L x 9 @ O &.z.z.z.z.z.z.z.z.z.z.z.z.k.h.z.z.z.z.",
"z.z.h.h.d.k.z.z.z.z.z.z.z.z.z.z.z.z.z.z.&.O.$ # # # x x G U F x F U F x x c 9 # # # % +.&.z.z.z.z.z.z.z.z.z.z.z.z.k.d.h.z.z.z.z.",
"z.z.h.d.k.z.z.z.z.z.z.z.c.z.z.z.z.z.z.z.z.k.$ + O O 7 x G U S x D U F x x x 7 O O O $ k.c.z.z.z.z.z.z.z.z.z.z.k.k.k.h.z.z.z.z.z.",
"z.z.k.h.z.z.z.z.z.z.z.z.z.z.z.z.z.z.z.z.z.k.$ + s h 1 # : > : # : : : # % # 1 h s O $ k.z.z.z.z.z.z.z.z.z.z.c.k.h.z.z.z.z.z.z.z.",
"z.z.z.k.z.z.z.z.z.z.z.z.z.z.z.z.z.z.z.z.z.*.$ + o.%.* o + + . + O O O O O O & %.#.@ $ *.z.z.z.z.z.z.z.z.z.z.z.z.z.z.z.z.z.z.z.z.",
"z.z.z.z.z.z.z.z.z.z.z.z.z.z.c.z.z.z.z.z.x.>.$ + f g i e $ O w k j k y O $ e r g f + @ *.z.z.z.z.z.z.z.z.z.z.z.z.z.z.z.z.z.z.z.z.",
"z.z.z.z.b.z.b.c.z.z.c.c.z.k.k.z.z.z.z.z.c.z.$ + i p p p ; O d c.c.c.j O ; v v i i + @ *.b.z.z.k.x.z.z.z.z.z.z.z.z.z.z.z.z.z.z.z.",
"z.z.z.z.n.b.n.c.c.b.n.b.z.k.h.z.z.z.z.z.z.*.$ + i p p p ; O d c.z.c.g O $ v v v i + $ c.n.z.z.h.k.c.z.z.z.z.z.z.z.z.z.z.z.z.z.z.",
"z.z.z.z.c.n.b.c.c.n.n.b.c.k.k.x.z.z.z.z.z.k.@ + i p p n ; . d c.z.c.g . ; v v v p O @ 4.b.b.c.k.z.z.z.z.z.z.z.z.z.z.z.z.z.z.z.z.",
"z.z.z.z.z.b.c.k.k.z.c.c.b.z.z.c.z.z.z.z.z.z.f u e 2 2 = w u +.c.z.z.@.u y 2 2 2 2 y u ,.z.c.z.z.z.z.z.z.z.z.z.z.z.z.z.z.z.z.z.z.",
"z.z.z.z.z.z.z.k.d.k.z.z.z.z.z.z.z.z.z.z.z.z.c.z.$ . + . k v.z.z.z.z.z.c.k . . . $ h.h.z.z.z.z.z.z.z.z.z.z.z.z.z.z.z.z.z.z.z.z.z.",
"z.z.z.z.z.z.z.z.k.k.z.z.z.z.z.z.z.z.z.z.z.z.b.z.a w w w +.z.z.z.z.z.z.c.d.w w w u z.h.z.z.z.z.z.z.z.z.z.z.z.z.z.c.z.v.z.z.z.z.z.",
"z.z.z.z.z.z.z.z.z.z.z.z.z.z.z.z.z.z.z.z.z.z.b.c.n.c.c.c.c.z.z.z.z.z.z.z.z.c.c.c.c.z.z.z.z.z.z.z.z.z.z.z.z.z.z.c.b.v.v.z.z.z.z.z.",
"z.z.z.z.z.z.z.z.z.z.z.z.z.z.z.z.z.z.z.z.c.z.c.n.c.z.z.z.z.z.z.z.z.z.z.z.z.z.z.z.z.z.z.z.z.z.z.z.z.z.z.z.z.c.c.z.c.n.z.z.z.z.z.z.",
"z.z.z.z.z.z.z.z.z.z.k.z.z.z.z.z.z.z.x.c.n.z.z.b.z.z.z.z.z.z.z.z.z.z.z.z.z.z.z.z.z.z.z.k.z.z.z.z.z.z.z.z.z.v.b.z.c.b.z.z.z.z.z.z.",
"z.z.c.z.c.c.z.z.z.k.k.z.k.z.z.z.z.z.z.c.n.z.z.z.z.z.z.z.z.z.z.z.z.z.z.c.z.z.c.z.z.z.z.d.z.k.z.z.z.z.z.z.z.c.v.z.z.z.z.z.z.z.z.z.",
"z.z.n.c.b.c.x.z.z.k.k.k.h.k.h.z.z.z.z.z.z.z.z.z.z.z.z.z.z.z.z.z.z.z.z.c.b.c.n.z.z.z.z.h.z.h.k.h.k.z.z.z.z.z.z.z.z.z.z.z.z.z.z.z.",
"z.z.z.n.c.z.z.z.z.z.z.k.d.d.k.z.z.z.z.z.z.z.z.z.z.z.z.z.z.z.z.z.z.z.c.z.c.n.z.z.z.z.z.z.z.h.d.d.z.z.z.z.z.z.z.z.z.z.z.z.z.z.z.c.",
"n.z.z.b.c.z.z.z.z.z.z.k.d.h.z.z.z.z.z.z.z.z.z.z.z.z.z.z.z.z.z.z.z.b.b.z.c.b.z.z.z.z.z.z.z.h.d.k.z.z.z.z.z.z.z.z.z.z.z.z.z.z.z.z.",
"n.c.z.z.z.z.z.z.z.z.z.z.k.h.z.z.z.z.z.z.z.z.z.z.z.z.z.z.z.z.z.z.z.c.b.z.z.z.z.z.z.z.z.z.z.z.h.z.z.z.z.z.z.z.z.z.z.z.z.z.z.z.z.z."
};
