/* XPM */
static char *w[] = {
/* columns rows colors chars-per-pixel */
"64 64 146 2 ",
"   c #2B2F35",
".  c #2C3236",
"X  c #2C3E36",
"o  c #2B3738",
"O  c #2C3B39",
"+  c #323539",
"@  c #373A3C",
"#  c #3C3F3E",
"$  c #2C4237",
"%  c #2C443B",
"&  c #2C4B3D",
"*  c #314639",
"=  c #3C423F",
"-  c #324A3F",
";  c #3A4B3F",
":  c #2E553B",
">  c #2E583A",
",  c #34563A",
"<  c #315C3F",
"1  c #3E5E3F",
"2  c #2C6637",
"3  c #2C6837",
"4  c #2F613A",
"5  c #2D6D38",
"6  c #30663A",
"7  c #306E3D",
"8  c #2D7437",
"9  c #2B7338",
"0  c #2D7E38",
"q  c #34733C",
"w  c #38723E",
"e  c #327B3C",
"r  c #3B4441",
"t  c #3E4B44",
"y  c #2D5441",
"u  c #2D5B43",
"i  c #3D5244",
"p  c #315C43",
"a  c #3D5846",
"s  c #2D6444",
"d  c #2D6C46",
"f  c #3D6648",
"g  c #316E49",
"h  c #2D7246",
"j  c #2B7448",
"k  c #2B7C4A",
"l  c #387143",
"z  c #307C42",
"x  c #32764C",
"c  c #3C734C",
"v  c #317C4D",
"b  c #387A4F",
"n  c #424341",
"m  c #484744",
"M  c #464844",
"N  c #4A4945",
"B  c #4E4F49",
"V  c #455443",
"C  c #465F4A",
"Z  c #4B5A4B",
"A  c #50504A",
"S  c #51594F",
"D  c #575A51",
"F  c #5C5E54",
"G  c #416B43",
"H  c #426349",
"J  c #4B6B4F",
"K  c #5E6156",
"L  c #64675A",
"P  c #666A5B",
"I  c #6A6E5E",
"U  c #66715E",
"Y  c #6B7561",
"T  c #747E67",
"R  c #2D8438",
"E  c #2E8939",
"W  c #37813B",
"Q  c #328C3E",
"!  c #2F9239",
"~  c #31943D",
"^  c #329A3D",
"/  c #34A43E",
"(  c #38B73F",
")  c #2F8740",
"_  c #2F8844",
"`  c #2B834B",
"'  c #2A8C4D",
"]  c #318542",
"[  c #3C8242",
"{  c #328D41",
"}  c #3A8A42",
"|  c #31854D",
" . c #318C4C",
".. c #2A924F",
"X. c #339441",
"o. c #349C41",
"O. c #338651",
"+. c #398250",
"@. c #328E53",
"#. c #388F52",
"$. c #299750",
"%. c #2A9B51",
"&. c #339352",
"*. c #369D54",
"=. c #389853",
"-. c #35A541",
";. c #36AB41",
":. c #37B041",
">. c #38B541",
",. c #3ABC41",
"<. c #2BA353",
"1. c #2BAC55",
"2. c #31A354",
"3. c #32AC56",
"4. c #35AF58",
"5. c #3EAE5B",
"6. c #2CB457",
"7. c #2DB758",
"8. c #2DBB59",
"9. c #31BA56",
"0. c #33B559",
"q. c #33BB5A",
"w. c #3ABB5C",
"e. c #439357",
"r. c #409A57",
"t. c #79856B",
"y. c #2DC35A",
"u. c #2ECA5C",
"i. c #32C45C",
"p. c #3EC45F",
"a. c #31CB5D",
"s. c #3CC85F",
"d. c #34D05F",
"f. c #39CD60",
"g. c #36D160",
"h. c #3AD461",
"j. c #3DD963",
"k. c #45CC62",
"l. c #45D464",
"z. c #49D666",
"x. c #43DE66",
"c. c #49D966",
"v. c #46E167",
"b. c #4AE469",
"n. c #4EE96B",
"m. c #50EB6C",
/* pixels */
"-.-.-.-.-.-.-.-.-.-.-.-.-.-.-.-.-.-.-.-.-.-.-.-.-.-.-.-.-.-.-.-.-.-.-.-.-.-.-.-.-.-.-.-.-.-.-.-.-.-.-.-.-.-.-.-.-.-.-.-.-.-.-.-.",
"-.-.-.-.-.-.-.-.-.-.-.-.-.-.-.-.-.-.-.-.-.-.-.-.-.-.-.-.-.-.-.-.-.-.-.-.;.-.-.-.-.-.-.-.-.-.-.-.-.-.-.-.-.-.-.-.-.-.-.-.-.-.-.-.",
"-.-.-.-.-.-.-.-.-.-.-.-.-.-.-.-.-.-.-.-.-.-.-.-.-.-.-.-.-.-.-.-.-.-.-.-.-.-.-.-.-.-.-.-.-.-.-.-.-.-.-.-.-.-.-.-.-.-.-.-.-.-.-.-.",
"-.-.-.-.-.-.-.-.-.-.-.-.-.-.-.-.-.-.-.-.;.-.-.-.-.-.-.-.-.-.-.-.-.-.-.-.-.-.-.-.-.-.-.-.-.-.-.-.-.-.-.-.-.-.-.-.-.-.-.-.-.-.-.-.",
"-.-.-.-.-.-.-.-.-.-.-.-.-.-.-.-./ :./ ;.:.-.-.-.-.-.-.-.-.-.-.-.-.-.-.-.-.-.-.-.o.-.-.-.-.-.-.-.-.-.-.-.-.-.-.-.-.-.;./ -.-.-.-.",
"-.-.-.-.-.-.-.-.-.-.-.-.-.-.-.-.( ,.:.;.i.:.-.-.-.-.-.-.-.-.-.-.-.-.-.-.-.-.-.o.{ / -.-.-.-.-.-.-.-.-.-.-.-.-.-.-.-.-./ -.-.-.-.",
"-.-.-.-.-.-.-.-.-.-.-.-.>.,.,.;./ ,.,.,.,.( -.-.-.-.-.-.;.-.-.-.-.-.-.-.-.-.X.{ { -.o.X.o.-.{ -.-.-.-.-.-.-.-.-.-.-./ ( / ( ,.,.",
"-.-.-.-.-.-.-.-.-.-.-.-.>.,.>.;./ ( ,.,.( / -.-.-.-.-.} { ] X.-.-.o.] { X.-.{ X.X.-.o.{ o.X.X.o.-.-.-.-.-.-.-.-.-.-./ / / i.>.>.",
"-.-.-.-.-.-.-.-.-.-.-.-.,.>.-.-.-.-.>.,.-.-.-.-.-.-.-.z u u ] -.-.] p u z -.X.X.-.-.o.X.{ { { o.-.-.-.-.-.-.-.-.-.-.-.-.;.,.;.-.",
"-.-.-.-.-.-.-.-.-.-.-.-.;.-.X.X.X.-.;.-.-.-.o.s s s s k ' j d s s d j ' k s s s s o.o.{ { X.-.-.-.-.-.-.-.-.-.-.-.-.-.-.-.;.o.} ",
"-.-.-.-.-.-.-.-.-.-.-.-.-.-.X.X.o.-.X.{ { { ] s d h h ' 1.$.` h h ` ..1...d h d d ] { z e { -.-.-.-.-.-.-.-.-.-.-.-.-.-.-.-.o.o.",
"-.-.-.-.-.-.-.-.-.-.-.-.-.-.-.-.-.-.d p p u u k ' $.$.6.u.u.1.$...1.a.a.6.$.$.' k u u u p h -.-.-.-.-.-.-.-.-.-.-.-.-.-.-.-.-.-.",
"-.-.-.-.-.-.-.-.-.-.-.-.-.-.-.-.o.d h k ' ' &.c.c.z.$.6.u.u.6.%.%.1.u.u.6...z.c.z.$.' ' k j d X.-.-.-.-.-.-.-.-.-.-.-.-.-.-.-.-.",
"-.-.-.-.-.-.-.-.-.-.-.-.-.-.-.X.] s ` $.<.%.<.m.m.n.4.0.8.u.6.<.<.7.u.8.7.0.b.m.m.2.%.<.$.` s ] o.-.-.-.-.-.-.-.-.-.-.-.-.-.-.-.",
"-.-.-.-.-.-.-.-.-.-.-.-.-.-.-.d s k 6.u.u.1.<.m.m.n.n.w.%.u.u.u.u.u.u.%.w.m.m.m.m.2.1.u.a.6.k s d -.-.-.-.-.-.-.-.-.-.-.-.-.-.-.",
"-.-.-.-.-.-.-.-.-.-.-.-.-.^ d h k ' 8.u.u.1.<.g.v.n.g.i.8.u.u.u.u.u.u.y.i.g.n.v.g.%.<.u.a.7...d > * Q -.-.-.-.-.-.-.-.-.-.-.-.-.",
"-.-.o./ -.-.-.-.-.-.-.-.X.] s k ` %.6.y.u.6.<.8.h.v.a.u.u.u.u.u.u.u.u.u.u.u.x.h.8.1.6.u.8.6.$.j u % q X.-.-.-.-.-.-.-.-.-.-.-.-.",
"-.o.{ -.-.-.-.-.-.-.-.-.d s k ..%.....<.u.u.y.$.6.u.u.u.u.u.u.u.u.u.u.u.u.u.u.6.$.y.u.u.%.$.$.` k k % $ -.-.-.-.-.-.-.-.-.-.-.-.",
"-.o.{ -.o.X.-.o.X.-.-.-.d d ' 6.i.l.i.6.<.<.<.$.<.1.u.u.u.u.u.u.u.u.u.u.u.u.1.<.$.<.<.<.8.f.l.*.' k % % -.o.X.-.o.X.-.-.-.-.-.-.",
"-.o.X.-.o.X.o.o.{ o.-.X.d d ' 6.s.n.d.i.$.%.<.<.<.<.u.u.u.u.u.u.u.u.u.u.u.u.<.%.%.<.$.$.8.g.m.3...j & : { { X.-.X.X.-.-.-.-.-.-.",
"-.-.-.-.o.{ { { X.-.{ u j j u ' 3.m.d.y.$.8.u.u.u.u.u.u.u.u.u.u.u.u.u.u.u.u.u.u.u.u.8.$.y.g.m.4.' u j d   5 { { { { -.-.-.-.-.-.",
"-.-.-.-.o.{ X.X.o.z h h ' ..<.6.9.0.1.1.8.y.u.u.u.u.u.u.u.u.u.u.u.u.u.u.u.u.u.u.u.u.y.8.1.3.0.%...` ` j s : > { o.-.-.-.-.-.-.-.",
"-.-.-.-.o.X.{ X.-.s s ` %.1.u.u.8.%.%.<.y.u.u.u.u.u.u.u.u.u.u.u.u.u.u.u.u.u.u.u.u.u.u.y.<.%.%.$.$...` j k & O ! o.-.-.-.-.-.-.-.",
"-.-.-.-.-.-.{ o./ s h $.8.a.u.u.u.u.u.y.$.8.u.u.u.u.u.u.u.u.u.u.u.u.u.u.u.u.u.u.u.u.8.$.y.u.u.<...k s s k & X _ o.-.-.-.-.-.-.-.",
"-.-.-.-.-.-.o.-.-.s h $.y.u.u.j.v.v.d.y.%.<.1.1.1.1.u.u.u.u.u.u.u.u.u.u.u.u.6.1.1.1.<.$.y.a.c.l.w.' k h d % X o.-.-.-.-.-.-.-.-.",
"-.-.-.-.-.-.-.-.-.s d ..7.u.u.b.n.m.g.8.%.%.%.$.$.%.u.u.u.u.u.u.u.u.u.u.u.u.<.$.$.%.%.%.8.g.m.n.z.$.` j u O $ -.-.-.-.-.-.-.-.-.",
"-.-.-.-.-.-.-.-.-.s d k ..<.u.b.m.m.4.<.u.u.y.%.8.u.u.u.u.u.u.u.u.u.u.u.u.u.u.6.$.y.u.u.<.3.n.n.z.$.` k k y X -.-.-.-.-.-.-.-.-.",
"-.-.-.-.-.-.-.;.>.d u d ` ..1.q.w.w.7.6.u.7.1.7.a.x.x.g.u.u.u.u.u.u.u.u.g.x.j.g.6.1.7.u.f.f.w.w.4.' ` j d O $ -.-.>.-.;.>.-.-.-.",
"/ -.-.-.-.-.-.;.,.s s u j ' $.%.%.$.8.u.u.1.%.a.x.m.m.j.u.u.u.u.u.u.u.a.j.m.m.v.a.<.<.u.b.k.$.$.$.k k j u % $ o.>.,.;.>.,.-.-.-.",
"-.-.-.-.-.-.-.] u x ` $.$.<.u.u.8.$.8.u.u.<.<.m.m.m.m.j.u.u.u.u.u.u.u.n.m.m.m.m.m.2.1.u.b.k.k ..$.$.d u k s y   W ,.,.,.,.-.( i.",
"-.-.-.-.-.-.-.{ u ` ..$.1.7.u.u.8.$.1.1.6.%.<.j.b.m.m.j.u.u.u.u.u.u.u.j.b.m.m.b.j.<.%.1.w.0.' ' ' ' j j k d y   W >.,.( ( / / ( ",
"-.-.-.-.-.-.-.{ u ' $.$.y.u.u.u.y.$.$.$.$.$.%.u.x.m.m.j.u.u.u.u.u.u.u.u.j.m.m.j.a.%.$.$.$.$.$.` k k k k k s y   e ;.,.;./ / / / ",
"-.-.-.-.-.-.-.{ u u d $.8.u.u.<.$.$.%.%.u.u.y.$.%.$.$.6.u.u.u.u.$.6.u.u.7.$.$.$.$.y.u.u.%.%.$.$.' u j j u u y   q -.-.-.-.{ { { ",
"-.-.-.-.-.-.-.X.j s d ' 1.6.6.6.1.$.1.6.u.u.y.$.<.1.$.6.u.u.8.6.$.1.u.u.6.$.1.<.%.y.u.u.6.1.$.$.' d u y % % & 6 { -.-.-.-.o.X.{ ",
"-.-.-.-.-.-.-.-.-.d d k $.$.$.8.8.$.8.u.u.u.y.$.6.u.$.8.u.u.1.$.$.1.u.u.6.$.u.6.$.y.u.u.u.8.$.$...k %       $ -.-.-.-.-.-.-.o.{ ",
"-.-.-.-.-.-.-.-.-.-.] u ' <.i.<.$.$.8.u.u.1.<.u.u.u.$.$.$.$.6.u.u.6.$.%.$.$.u.u.u.%.1.u.u.8.$.` k k s y   2 Q -.-.-.-.-.-.-.-.-.",
"-.-.-.-.-.-.-.-.-.[ l u ` %.6.$.' $.1.6.6.<.%.u.u.y.1.%.$.6.8.u.u.8.1.$.<.1.u.u.u.%.<.6.6.1...s u j u y   : w -.-.-.-.-.-.-.-.-.",
"-.-.-.-.-.-.-.-.-.V M u j ` $.` ` $.$.$.$.$.%.u.u.u.u.1.$.u.u.u.u.u.u.%.1.u.u.u.u.%.$.$.$.$...y o u u y   r V -.-.-.-.-.-.-.-.-.",
"-.-.-.-.-.-.-.-.-.V M M y p s ` $.$.' ` $.$.%.%.6.u.%.%.$.u.u.u.u.u.u.%.$.%.y.8.%.$.$.$.` ' $...j o   o r &.q.-.-.-.-.-.-.-.-.-.",
"-.-.-.-.-.-.-.-.-.V m M y y s ` ' ' ` ' $.$.$.' <.6.$.%.$.7.8.u.6.6.6.%...' 6.1.$.$.$...k k ' ` j O o . M @.1.^ / -.-.-.-.-.-.-.",
"-.-.-.-.-.-.-.-.-.V N m + % k k k k ' $.$.$...k ' $.$.$.$.$.6.u.%.$.$.$.' k $.$.$.$...k k k k s u u O + m c ' R ^ -.-.-.-.-.-.-.",
"-.-.-.-.:.,.-.;.>.- s 0.& X u u y O d ` $.' ` $.' ` $.$.$.k ..%.` ' $.$.' k k ` ` ..j O y s k k d u O   . x  .E / >.-.-.-.-.-.-.",
"-.-.-.-.;.>.:.:.>.6 j 0.% o y y &   u k ..k j $.' k ......k ` ` k ' ' ` k k j j k ' j O y y k j d & & &   d _ E / >.-.-.-.-.-.-.",
"-.-.-.-.-.-.,.>.-.-.o.@.$           y u k s s $.` k k k k k d u k k k u d k u s k k j u . y k u y   x v   3 R ^ / -.-.-.-.-.-.-.",
"/ ( ( / -.-.,.>.-.-.-.o.% r v t B Y t o O s k ` d s k d u s s u s u s o y u O y s k j u o O u % $ 8 |  .8 R E ( ;.-.-.-.-.-.-.-.",
"/ ( ,./ -.-.>.:.-.-.-.-.4 p b Z D t.S r . u j j s u d u u u : & y y u O O y   r y j u y o o y r ; q ]  .R R E ( ;.-.-.-.-.-.-.-.",
"/ >.i./ -.-.-.-.-.-.-.-.-.{ m F I t.t.U   y y u u y   & u u %     y y u y     O u u y         D L M W ~ R R E -.-.-.-.-.-.-.-.-.",
"-.;.;.-.-.-.-.-.-.-.-.-.-.{ m F Y t.Y P A y o o O o n @ O O u x   . . o o # n @ o O % D D F U P F M q E R R E -.-.-.-.-.-.-.-.-.",
"-.-.-.-.-.-.-.-.-.-.-.-.-.W m D L T I L K i & + $ - m @ . $ d  .$ % % . @ M H i + + # L L I T L D m q R R E Q -.-.-.-.-.-.-.-.-.",
"-.-.-.-.-.-.-.-.;.-.-.-.-.e.m m A L L K m *.0.M c O.m @ . R R R R ] @.. @ N 8.=.m m m m L L L A m m q R R ^ / / -.-.-.-.-.-.-.-.",
"-.-.-.-.-.-.-.-./ -.-.-./ / [ V H 5.J A m +.&.+ g O.+ , 5  .) R R E Q 3 : + &.v + m M N =.e.B M V q 0 R R ^ -.-.-.-.-.-.-.-.-.-.",
"-.-.-.-.-.-.-.-.-.-.-.-.;./ / G c q.f n n c | X d | X 2 R  .) R R R R R 2 X | d X # n n 2.=.M V 1 R R R Q ^ -.-.-.-.-.-.-.-.-.-.",
"-.-.-.-.-.-.-.-.-.-.-.-.-.-.-.-.o.#.-   . g  .R R R R R R R R R R R R R R R R R R X     v b N q R R R Q / -.-.-.-.-.-.;.-.-.-.-.",
"-.-.-.-.-.-.-.-.-.-.-.-.-.-.-.-./ ( Q e 8 e Q R R R R R R R R R ^ ^ ^ ^ ! R R 0 8 5 2 2 | | w e R R ^ ^ -.-.-.-.-.-.-./ -.-.-.-.",
"-.-.-.-.-.-.-.-.-.-.-.-.;.;.;.-./ ,.:./ ^ ! Q R R R R R E E E E -.-.-.-.^ R R 0 8 Q R R  .` R R R E ^ -.-.-.-.-.-.-./ / / / ;.-.",
"-.-.-.-.-.-.-.-.-.-.-.;.>.,.,.;.( ( i.,.>.( ^ R R R R ~ / / -.-.-.-.-.-.-.-.X.{ Q / ~ 8 R 0 9 o./ / / ;.-.-.-.-.-.-./ / ( ,.,.i.",
"-./ -.-.-.-.-.-.-.-.-.-.>.,.;.;.-.:.>.i./ ( -.^ ^ ^ ^ / -.-.-.-.-.-.-.o.o.-.X.X.o.-.^ W E ) R o.-.-.-.-.-.-.-.-.-.-.-.-.-.,.>.;.",
"-.-.-.-.-.-.-.-.-.-.-.-.>.>.-.-.-.-.>.>./ / -.-.-.-.-.-.-.-.-.-.-.-.-.{ X.-.X.X.-.-.o.X.{ { { -.-.-.-.-.-.-.-.-.-.-.-.-.-.,.;.-.",
"-.-.-.-.-.-.-.-.-.-.-.-.-.o.} { X.-.-.-./ / ;.-.-.-.-.-.-.-.-.-.-.-.-.X.o.-.-.-.-.-.o.{ X.X.-.-.-.-.-.-.-.-.-.-.-.-.;.-.-.-.o.} ",
"-.-.-.-.-.-.-.-.-.-.-.-.-.-.o.o.o.-.-.-./ / -.-.-.-.-.-.-.-.-.-.-.-.-.o.o.-.-.-.-.-.-.o.{ X.-.-.-.;.-.-.-.-.-.-.-.-.-.-.-.-.-.^ ",
"-.-.-.-.-.-.-.-.-.-.-.-.-.-.-.-.-.-.-.-.-.-.-.-.-.-.-.-.-.-.-.-.-.-.-.-.-.-.-.-.-.-.-.-.X.X.-.-.-.-.-.-.-.-.-.-.-.-.-.-.-.-.-.-.",
"-.-.-.-.-.-.-.-.-.-.-.-.-.-.-.-.-.-.-.-.-.-.-.-.-.-.-.-.-.-.-.-.-.-.-.-.-.-.-.-.-.-.-.-.-.-.-.-.-.-.-.-.-.-.-.-.-.-.-.-.-.-.-.-.",
"-.-.-.-.-.-.-.-.-.-.-.-.-.-.-.-.-.-.-.-.-.-.-.-.-.-.-.-.-.-.-.-.-.-.-.-.-.-.-.-.-.-.-.-.-.-.-.-.-.-.-.-.-.-.-.-.-.-.-.-.-.-.-.-.",
"-.-.-.-.-.-.-.-.-.-.-.-.-.-.-.-.-.-.-.-.-.-.-.-.-.-.-.-.-.-.-.-.-.-.-.-.-.-.-.-.-.-.-.-.-.-.-.-.-.-.-.-.-.-.-.-.-.-.-.-.-.-.-.-."
};
