/* XPM */
static char *result[] = {
/* columns rows colors chars-per-pixel */
"64 64 250 2 ",
"   c #35A541",
".  c #3ABE41",
"X  c #328E41",
"o  c #35A341",
"O  c #34923F",
"+  c #41754E",
"@  c #525762",
"#  c #535463",
"$  c #349140",
"%  c #3E7B4B",
"&  c #5F736E",
"*  c #7C858F",
"=  c #808792",
"-  c #34823F",
";  c #446653",
":  c #6E7380",
">  c #8F99A3",
",  c #838B95",
"<  c #7D848E",
"1  c #7D858F",
"2  c #348840",
"3  c #446A52",
"4  c #6F7480",
"5  c #8A939D",
"6  c #575964",
"7  c #3E3442",
"8  c #473C47",
"9  c #433946",
"0  c #423845",
"q  c #463B47",
"w  c #403744",
"e  c #5A5C67",
"r  c #369D42",
"t  c #457653",
"y  c #89929C",
"u  c #53535F",
"i  c #563C3E",
"p  c #6E504A",
"a  c #5F4343",
"s  c #583D40",
"d  c #6C4E49",
"f  c #6E4F4A",
"g  c #5E4243",
"h  c #5A3E41",
"j  c #6F504A",
"k  c #5E4A4E",
"l  c #60636F",
"z  c #8B939E",
"x  c #6E7480",
"c  c #36A442",
"v  c #446D53",
"b  c #54545F",
"n  c #5F4342",
"m  c #7A594F",
"M  c #79584F",
"N  c #694A47",
"B  c #604343",
"V  c #76554E",
"C  c #7A584F",
"Z  c #71514B",
"A  c #6F4F4A",
"S  c #78574F",
"D  c #685255",
"F  c #646774",
"G  c #8B949E",
"H  c #457A53",
"J  c #36A342",
"K  c #446C53",
"L  c #806052",
"P  c #73554C",
"I  c #6B4D48",
"U  c #7F6052",
"Y  c #826353",
"T  c #6D5957",
"R  c #457953",
"E  c #7C5B50",
"W  c #8C6F58",
"Q  c #856855",
"!  c #90735A",
"~  c #93765B",
"^  c #92765B",
"/  c #856755",
"(  c #93775B",
")  c #79655B",
"_  c #656874",
"`  c #7C5C50",
"'  c #8E7159",
"]  c #886A56",
"[  c #816253",
"{  c #95795C",
"}  c #94785C",
"|  c #876956",
" . c #7A675C",
".. c #806152",
"X. c #92755B",
"o. c #8B6D57",
"O. c #866855",
"+. c #91755B",
"@. c #8F735A",
"#. c #93775C",
"$. c #896C57",
"%. c #91745A",
"&. c #94795C",
"*. c #846654",
"=. c #94785B",
"-. c #338D42",
";. c #947A60",
":. c #94795F",
">. c #947960",
",. c #8D7059",
"<. c #8E7259",
"1. c #94795E",
"2. c #938A83",
"3. c #8D827F",
"4. c #836656",
"5. c #948A84",
"6. c #7E5E51",
"7. c #7C5C51",
"8. c #94775A",
"9. c #937A62",
"0. c #948880",
"q. c #A9ABAD",
"w. c #A39FA0",
"e. c #866959",
"r. c #A3A3A6",
"t. c #847063",
"y. c #90755B",
"u. c #77564E",
"i. c #78594E",
"p. c #8D7058",
"a. c #947A62",
"s. c #96887E",
"d. c #A2A5AA",
"f. c #BEBFC0",
"g. c #B8AEA7",
"h. c #957A60",
"j. c #B9AFA8",
"k. c #B0AFB0",
"l. c #706D74",
"z. c #846F60",
"x. c #91765C",
"c. c #8F7259",
"v. c #5F4442",
"b. c #664A46",
"n. c #896D56",
"m. c #93867E",
"M. c #C4C5C6",
"N. c #B3A8A0",
"B. c #9B846E",
"V. c #94795D",
"C. c #9D8570",
"Z. c #9B918A",
"A. c #888E97",
"S. c #6B6970",
"D. c #7F6A5C",
"F. c #604543",
"G. c #876C56",
"H. c #928A85",
"J. c #A5ADB4",
"K. c #CDCDCD",
"L. c #AEA093",
"P. c #917251",
"I. c #937555",
"U. c #94877C",
"Y. c #8F97A0",
"T. c #636775",
"R. c #79665C",
"E. c #614543",
"W. c #8F7F76",
"Q. c #99999E",
"!. c #BBBDC0",
"~. c #B7B0AB",
"^. c #A5988D",
"/. c #96897F",
"(. c #95887E",
"). c #8F8987",
"_. c #7E848D",
"`. c #69616A",
"'. c #7F685A",
"]. c #3BBC42",
"[. c #654945",
"{. c #886D56",
"}. c #8A6D58",
"|. c #83706C",
" X c #95979E",
".X c #B9BABC",
"XX c #B4B6B9",
"oX c #9097A0",
"OX c #8D959E",
"+X c #8E969F",
"@X c #635C65",
"#X c #765B55",
"$X c #8A6D57",
"%X c #77584E",
"&X c #92755A",
"*X c #8C705C",
"=X c #816D69",
"-X c #7E777C",
";X c #74757F",
":X c #646875",
">X c #636774",
",X c #68616A",
"<X c #8F725A",
"1X c #836454",
"2X c #7B675C",
"3X c #886A55",
"4X c #725852",
"5X c #644F53",
"6X c #675154",
"7X c #665154",
"8X c #745B55",
"9X c #8D6F58",
"0X c #896B56",
"qX c #826253",
"wX c #8B6E58",
"eX c #7D5C50",
"rX c #8B6E57",
"tX c #95785C",
"yX c #96795C",
"uX c #594143",
"iX c #725552",
"pX c #745953",
"aX c #846B5A",
"sX c #8A715C",
"dX c #89715C",
"fX c #89705C",
"gX c #826959",
"hX c #765B54",
"jX c #846A5A",
"kX c #72615B",
"lX c #585965",
"zX c #4C4654",
"xX c #5B5763",
"cX c #5C5763",
"vX c #5F5B64",
"bX c #615C65",
"nX c #5F5A64",
"mX c #5C5863",
"MX c #5A5763",
"NX c #676B77",
"BX c #8B949F",
"VX c #7F8792",
"CX c #828A95",
"ZX c #818A95",
"AX c #878F9A",
"SX c #909AA4",
"DX c #6E737F",
"FX c #7C848F",
"GX c #327E3F",
"HX c black",
/* pixels */
"                                                                                                                                ",
"                                                                                                                                ",
"                                                                                                                                ",
"                      .   .                         X                                 .   .                         X           ",
"                . .   . . .                       X X   X   X                   . .   . . .                       X X   X   X   ",
"                .       .                     X   X     X X X                   .       .                     X   X     X X X   ",
"                  X X                         X         X X                       X X                         X         X X     ",
"                                                          X                                                               X     ",
"                                                                                                                                ",
"                                                                                                                                ",
"                                                                                                                                ",
"  X                                                               X                                                             ",
"  X   X   X                                       X               X   X   X                                       X             ",
"      X X X               o O + @ # # # # # # # # # # # # # # # # # # # # # # # # # # # # # # @ + O o           X X             ",
"      X X                 $ % & * = = = = = = = = = = = = = = = = = = = = = = = = = = = = = = * & % $       X   X               ",
"        X                 - ; : > , < 1 1 1 1 1 1 1 1 1 1 1 1 1 1 1 1 1 1 1 1 1 1 1 1 1 1 < , > : ; -       X                   ",
"                          2 3 4 5 6 7 8 8 8 9 0 q 8 8 8 8 8 8 8 8 8 8 8 8 9 0 8 8 9 0 q 8 w e 5 4 3 2                           ",
"                          r t 4 y u i p p p a s d p p p p p p p p p p p f g h d p a s d j k l z x t r                           ",
"          .   .       .   c v 4 y b n m m M N B V C M M M M M M M M M M M Z A S M N B V C D F G x H c                           ",
"          . . .   . . .   J K 4 y b n M m L P I U Y Y Y Y Y Y Y Y Y Y Y Y Y Y Y Y P I U Y T F G x R J                           ",
"            .       .   . J R 4 y b n M E W Q U ! ~ ^ ^ ^ ^ ^ ^ ^ ^ ^ ^ ^ ^ ^ ^ ^ / U ! ( ) _ G x R J                           ",
"                X X       J R 4 y b n M ` ' ] [ ^ { } } } } } } } } } } } } } } } | [ ^ {  ._ G x R J                           ",
"                  X       J R 4 y b n M ` ' | ..X.} } } } } } } } } } } } } } } } ' o.( }  ._ G x R J                           ",
"                          J R 4 y b n M ` ' o.O.^ } +.@.#.} } } } } } } } } } } } } } } }  ._ G x R J       .   .               ",
"                          J R 4 y b n M ` ' #.^ } } $.Y +.} } } } } } } } } } } } } } } }  ._ G x R J         .                 ",
"                          J R 4 y b n M ` ' { } } } ] U %.} } } } } } } } } } } } } } } }  ._ G x R J   .     .                 ",
"                    X     J R 4 y b n M ` ' &.} } } ] U %.} } } } } } } } } } } } } } } }  ._ G x R J   .                       ",
"      .   .         X   X J K 4 y b n M ` ' &.} } } o.*.+.} } } } } =.} } } ^ ! ( } } } }  ._ G x R J                           ",
"        .               X -.K 4 y b n M ` ' &.} } } ~ X.} ;.:.#.#.:.>.} } } ,.[ <.} } } }  ._ G x R J                           ",
"  .     .               X -.R 4 y b n M ` ' &.} } } } =.1.2.3.4.4.3.5.;.} &.W 6.' { } } }  ._ G x R J                           ",
"  .                       -.R 4 y b n M 7.' &.} } } 8.9.0.q.w.e.e.w.r.t.y.{ W 6.' { } } }  ._ G x R J                           ",
"                          J R 4 y b n u.i.p.{ } } } a.s.d.f.g.h.h.j.k.l.z.x.' Y c.} } } }  ._ G x R J                           ",
"                          J R 4 y b v.Z b.n.{ } } =.m.d.M.N.B.V.V.C.Z.A.S.D.( %.( } } } }  ._ G x R J                           ",
"                          J R 4 y b v.j F.G.{ } } =.H.J.K.L.P.8.8.I.U.Y.T.R.} } } } } } }  ._ G x R J                           ",
"                          J R 4 y b v.j E.G.{ } } } W.Q.!.~.^./.(.(.)._.`.'.} } } } } } }  ._ G x R J                           ",
"                      .   ].R 4 y b v.Z [.{.{ } } } }.|. X.XXXoXOX+X_.@X#X$X} } } } #.+.(  ._ G x R J               X           ",
"                . .   . . ].R 4 y b n u.%Xp.{ } } } &X*X=X-X;X:X>X>X,X#X}.^ } } } } <X1X' 2X_ G x R J             X X   X   X   ",
"                .       . J R 4 y b n M 7.' &.} } } &.^ 3X4X5X6X6X7X8X$.^ } } } } { ' 6.9X2X_ G x R J         X   X     X X X   ",
"                  X X     J R 4 y b n M ` ' &.} } } } } #.0XqXY Y qX0X#.} } } } } { ' 6.9X2X_ G x R J         X         X X     ",
"                          J R 4 y b n M ` ' &.} } } } } } ( ^ ^ ^ ^ ( } } } } } } &.<...,.2X_ G x R J                     X     ",
"                          J R 4 y b n M ` ' &.} } } } } } } } } } } } } } } } } } } ^ c.^  ._ G x R J                           ",
"                          J R 4 y b n M ` ' &.} #.wX,.} } } } } } } } } } } } } } } } } }  ._ G x R J                           ",
"                          J R 4 y b n M ` ' &.} ^ Y / } } } } } } } } } } } } } } } } } }  ._ G x R J                           ",
"  X                       J R 4 y b n M ` ' &.} ^ Y / } } } } } } } } } } } #.~ } } } } }  ._ G x R J                           ",
"  X   X   X               J R 4 y b n M ` ' &.} ^ [ / } } } } } } } } } } } c./ ! } } } }  ._ G x R J             X             ",
"      X X X               c H 4 y b n C eXc.{ { =.rXp.tX{ { { { { { { { { { p.6.' yX{ { { 2X_ G x H c           X X             ",
"      X X                 r t 4 y u uXiXpXaXsXdXdXfXfXdXdXdXdXdXdXdXdXdXdXdXgXhXjXsXdXdXdXkXF G x t r       X   X               ",
"        X                 2 3 4 5 lXzXxXcXvXbXbXbXbXbXbXbXbXbXbXbXbXbXbXbXbXnXmXvXbXbXbXbXMXNXBX4 3 2       X                   ",
"                          - ; : > , VXCXCXCXZXZXZXZXZXZXZXZXZXZXZXZXZXZXZXZXCXCXCXZXZXZXZXZXAXSXDX; -                           ",
"                          $ % & * = = = = = = = = = = = = = = = = = = = = = = = = = = = = = = FX& % $                           ",
"          .   .       .   o GX+ @ # # # # # # # # # # # # # # # # # # # # # # # # # # # # # # @ + O o                           ",
"          . . .   . . .     X                                             . . .   . . .     X                                   ",
"            .       .   .                                                   .       .   .                                       ",
"                X X                                                             X X                                             ",
"                  X                                                               X                                             ",
"                                            .   .                                                           .   .               ",
"                                              .                                                               .                 ",
"                                        .     .                                                         .     .                 ",
"                    X                   .                                           X                   .                       ",
"      .   .         X   X   X                                         .   .         X   X   X                                   ",
"        .               X X X                                           .               X X X                                   ",
"  .     .               X X                                       .     .               X X                                     ",
"  .                       X                                       .                       X                                     ",
"                                                                                                                                "
};
