/* XPM */
static char *p_f[] = {
/* columns rows colors chars-per-pixel */
"64 64 53 1 ",
"  c #0C0B0B",
". c #120E0E",
"X c #0F110F",
"o c #13100F",
"O c #151111",
"+ c #191413",
"@ c #161A16",
"# c #1C1916",
"$ c #1D1C18",
"% c #220E0B",
"& c #26110F",
"* c #31120D",
"= c #211714",
"- c #2A1310",
"; c #221D1A",
": c #311612",
"> c #1D241D",
", c #1F281F",
"< c #25221D",
"1 c #28231F",
"2 c #20281F",
"3 c #2B2621",
"4 c #232D23",
"5 c #2E2923",
"6 c #312C26",
"7 c #263126",
"8 c #293629",
"9 c #2D3A2D",
"0 c #303F30",
"q c #4A170F",
"w c #4E180F",
"e c #5C1B0F",
"r c #531C13",
"t c #5B1F15",
"y c #661F12",
"u c #61261A",
"i c #6E2A1D",
"p c #742D1F",
"a c #472820",
"s c #742D20",
"d c #743429",
"f c #324332",
"g c #374936",
"h c #3A4D3A",
"j c #3C513C",
"k c #415641",
"l c #435A43",
"z c #4B644A",
"x c #BA361A",
"c c #B9391E",
"v c #C43E22",
"b c #CD3F20",
"n c #D84A2C",
/* pixels */
"9999999999999999990999999989999999999999999999999999999999998999",
"9999999999ffff99999999999878998999999999999900009999999999887999",
"99999990f0ffff999999999987487778999999999g00ggf00999999999844878",
"99099990f99ff99990999996878874479999999900090f009999999988878844",
"9999999997999999999999978898747999999999998790999999999987899944",
"0999999977999999999999979998878999999999998899999999999988999974",
"9999999999990999999999999999988999989999999989999999999999999988",
"9999999999999999999999999999999999999999999999999999999999989999",
"9999999999999999999999999999999999999999999899899999999999999999",
"7799999999999999999999999999999998899999999999999999999999999999",
"4999799999999999999999999798799988788889999999999999999999889989",
"977447999999999999999989742>$4>>>$$>>479999999999999989988779999",
"99447999999999999999997774$O++++OO+++478999999999099999988479999",
"974479999999999999899744>>;$;;;;#O+;$$>4,34899999999998878899999",
"9997999999999999999997#O++353563;+#33+O+OO#899999999999889999999",
"9999999999999999999944$;=#$;;;;$+OO;$##;##;>48999999999989999999",
"99990909999999899997##1653O         O355563+@4999999999999999999",
"9999fff09fff97799872#+;<<;           ;1<155;$>448999999999099999",
"9999fff09gff977897@#51.                 .3653$+,9999999999999999",
"99990f099ffff99994o#51o                 O3665+#49999999999999999",
"999999977899999994++563<               155663++49989999999999999",
"999999997799999997O+1563O      .      O563331##49999999999099999",
"99999999999999999,X +=551<1;1;;1<1<<<<151$+.X4789999999900099999",
"999999999999f99f9,  o+1563563633353335561+O .499999999990f999999",
"99999999999fllllj7X .+=+##36#.+#+$++++==#+O  499999990990f999999",
"99999999999hzzzlj9X O++OO+;3. .OOOOO+OO+OO. X4998999000990999999",
"9900f9999gllkjff94  O.. OOOO...      ..OO .@,4879999909999999999",
"999f09999jzljf777,X oo  OO  .-wq%   %qq&. X494445899999999999999",
"f99ff99hkhgf9ffgf7      =;. Ouxvy. .ebcrO  49>+@$499999999990999",
"f090990jzf777fjjj9X     ;5o =ibnd.  ybbt. .44+O++499999999999999",
"f999999fhfffffgff7X   .O35o =aps:   *ss:.   X#<<<$$4999999999999",
"999999977fjjjf999,  .oO+35o $6%.    ...+O    ;566$+,999999999999",
"9909999889gggf999,  O%O+O+..=;O.       ..    .+33;+>999999999999",
"999999999999999993  .OO.. .O++;3       ..      #3;+>899999999989",
"99999999999999999,  OO+O  OO++15O      O.       O@>4899999988999",
"9999989000fgff999>. O+OO  .OOO;5<O+O.  O         ;89999999987899",
"99999990f00gf0999,   OOO  .OOO-1+O.. ..O.      XO499999998847877",
"99999990998009999,    O.  .++O++O    OOOO      >7899999987878844",
"999999999798999994XX  OO  .++O++     OO+O     X49999999987899974",
"9999999989899899994,  OO  OO+.+O+O. .+OOO.X X>789989989998999887",
"99999999999999999994   O  OO+OOO+O. .OOOOOO  4099909999999999999",
"99899999999999998994X OOOO  OOO+O++OO+OO++.  4999999999999998999",
"99999999999999999994   OOO  .O++O+OOOO+OOO. X4999999998998999999",
"79998999999999999994    .O  .+OO++.  ++O.    4999999999999999999",
"78877889999999999984OX  .O  O+XX.+.  .OOO   X4999999999998848999",
"884448999999999999994>      XOX .+.  .     $48999999999998479999",
"9944799999999999999994X     .O   O.        709989999999878789999",
"9987999999999999999994  @@             OO .799999999999878999999",
"9998999999999999999984X >>            X,, X499999999999999999999",
"9999999999999999999997  X@     @@@     @X X499899999999999999999",
"9999f9f999999889999998X       X899@       X409978999999999999999",
"9999ffffffgf9879998997X       @899@   X   X9f0948999999999999999",
"99999gf00fgf9888999994X       @908@        9f0099999999999999999",
"99999f989800f999998997@X     X>9994XX     X809999989999999999999",
"999999984799999999999994    @8999997@    ,4999999999999999999999",
"9999999888999899999999f8@XXX499999904X X@77999999999999990099999",
"9999999899999899999999f09988999999998898899999999999999000099999",
"9999999999999999999999fff99999999999999999999999999999090g999909",
"99899999997999999980f99f9999999999999999998988999999900990999999",
"99090099898888999990f9999999999999999909998589899999900999999999",
"99f0008998884779999999999999999999900ff9998787778999999999999999",
"990f099999874489999999999999999999990f99999997448999999909999999",
"f99009999998448999999999999999999ff99f99999987479999999999999999",
"g09999998999779999999099999999999ff99999999998789998099999999999"
};
