/* XPM */
static char *c[] = {
/* columns rows colors chars-per-pixel */
"64 64 75 1 ",
"  c #151613",
". c #181714",
"X c #161914",
"o c #1A1915",
"O c #1C1D19",
"+ c #241D1B",
"@ c #1E221D",
"# c #24241F",
"$ c #28221F",
"% c #232620",
"& c #2C2622",
"* c #242E24",
"= c #2D2924",
"- c #2E2F2A",
"; c #3D2425",
": c #342B26",
"> c #362E28",
", c #253125",
"< c #273528",
"1 c #293629",
"2 c #2D3B2D",
"3 c #30332C",
"4 c #3B332C",
"5 c #303F2F",
"6 c #462B2B",
"7 c #4F2E2F",
"8 c #4B302E",
"9 c #4F2F30",
"0 c #4D3431",
"q c #433B32",
"w c #4D3A35",
"e c #543B36",
"r c #563D39",
"t c #583F3A",
"y c #2E402E",
"u c #334533",
"i c #364A36",
"p c #454236",
"a c #474238",
"s c #4D453A",
"d c #4E4B3E",
"f c #50453B",
"g c #5A413B",
"h c #524B3F",
"j c #5E4541",
"k c #544C40",
"l c #584F43",
"z c #565244",
"x c #5A5547",
"c c #5C5748",
"v c #5F5A4A",
"b c #62564A",
"n c #68564A",
"m c #645A4C",
"M c #6B5E4F",
"N c #6C6453",
"B c #6D6955",
"V c #6E6A5D",
"C c #716555",
"Z c #726A57",
"A c #746D59",
"S c #796E5E",
"D c #76725D",
"F c #79735E",
"G c #716E62",
"H c #747365",
"J c #7B7661",
"K c #7E7A62",
"L c #787669",
"P c #7D786B",
"I c #817D65",
"U c #817E6D",
"Y c #85826C",
"T c #838171",
"R c #8E8B79",
/* pixels */
"2222222222222222222252222222222222222225222222222222222222222222",
"2222222222222222222222222222222222222222222222222222222212222222",
"5222222222222222222222222222222222222222222222225222222222222222",
"22222222252u5u522222222221*2221222222222222u5i222222222221*22212",
"22222222ui5uii22222222222**1-,,222252222iu2iii22225222222**1,,,2",
"22252225u215u5222222222*1*12***222222225u222u5222222222,<*21***1",
"522222222,,222222222222*2221**12222222222,,222222522222*2222**12",
"22222222211222222222222222221,1222222212221222222222222122221,22",
"2222222222222222222222222222212222121222222222222222222222222122",
"2222122222222222222222221222222222222222222222222222222212122222",
"2122222222222222222222222222222222222222222222222222222222222222",
"2*1222222222252222222222221222221,122222222222225222222222222222",
"2,1,<*2222252222222222221*2222222,1,1,1222222222222222221*222222",
"212***222222222522222222**222222221,**222222222222222221**222222",
"221**12222222222222221,1*1222222121,*12222222222222222,<,2222222",
"2221*22222222222222222,1222222222221,122222222<1222221,122222222",
"22221222222222222222221222222225222212222222,,@X,522221222222222",
"222222222222222222222222222222222222222252,,@%kO,222222222222222",
"22222u5i225u22*1222222222222222221225uuu<*@=VvsO,512222222222252",
"22222uii5uii52*2222222222222222222225u52%1AMHz>X,222222222222222",
"222225u222u5u2<222222222222222222222,,%1HUUIJq.,2222222222222222",
"22222222**225222222222222222222552,*%>HPPIZFA4 <5222222222222222",
"22522222<*222222222222222222222<,,@-GUJgrNSZ4O,22212225522222222",
"5222222222222222222222u5u22222*%@-LUSJt76&zq.*2222222255u5222222",
"22222222222222222222525u522,,*<HTPIJIDr7;$c4 <222222225u52222222",
"22222222222222222225u22i5,,%@-GYYHtrNDn8=aqo*2222225i22u22222222",
"2222222121*222222222uy2<*%-VPYYIDr76$xAmNz:X<2222222u22222222222",
"222u5u2222,<*<*222252,*@-HHjjDDJFt7;#BIFG4o*,1*22222222222222225",
"2225i2222221***122,,*@-HTJg96&zNFAg$hKYAf=.,***22222222222232222",
"2i22i2222222**222,%@-HTYUMe8;$BKYKFADFFz-O-1**122222222222255252",
"2i2222222222<*22,3LTPYYKJFZw&kJIFFFFFZBqX*221,222222225222225222",
"222222222222222,@GRTYKDJIIFmMAKJAAggBAz>X<2222222222222222222222",
"222222222222225,ObxCZZgrNNFZgrBKAg76$fq *22222222222222222222122",
"222222222222222,ObbhMt76$zAg76:ZFg86#p> 122212222222222222222222",
"222222222222225,OlCbf77;$BFt7;+mIA8$s4o*225222222252222222122222",
"22222222522uuu22,#lNbw6:hDKAe:dDIFmBB4 1522uyuy22222222221,22222",
"22222225uu5uuu522*#lCbfMDCKKZNFIFFFApO*2uuyuiu22225222221**1,,,1",
"22522222u515u52222,#lCbhZKKAggBDAIFp *2yu225uy222522221,1,21***2",
"222222222*,25222222,#zCbhAFg76#xFYZ> 1222*,252222222221*2122**12",
"22222222221222222222*#lCbhNg7;$BYApo*222212222222222222222221,15",
"222222222222222222222,#zCbkb0&hJDh>X,y22222222222522222222222122",
"2222222222212222222222,$lCbkkVHKAqX,2222222222222222222122222222",
"22222222222222222222222,%lCxfCZAh>X12222222222222222222222222222",
"2*1222122522522222222222*%jVbkMcso*22222222252222222222521222222",
"1,1,<,1222222222222222222@%lCmfq>O,11,1y22222222252222221*222222",
"222***222222222252222221*,*%jbk-X,1***122222222222222221**222222",
"222**12222222522222221,1,12,OO@  11*#<2222225222222221,1,1222222",
"2221,12222222222222221,22222,,<112y1,yy122222222222222*222222222",
"2222122222222222222222222222222222222222222222222222222222222222",
"22212222222222<2222222222222222222122222222522222222222222222222",
"22222i5u525u22,2222222222222252222222i5u225551,12222222222222222",
"22222iii5uii52*1222222222222222222222iiu2uii51,12222222222222222",
"222225i222i5u2222222222222222222222222i522u555222222222222222252",
"22222222**222222222222222222222222222222,,2222222222222222222222",
"22222222<*<222222222222222222222222222221*2222222222225222222222",
"2222222222222222222222u552222225222222222222222222222255u2252222",
"22222222222222222222525i5222222222222222222222222222225i52222222",
"22222222222222222222i22u2222222222222222222222222215u22u22222222",
"2222222222*222222222u222222222222222222221,122222225u52222222225",
"222u5u2222*1,<*<2222222222222222225u5u2222,1,,,12222222222225222",
"2225i2222221***222222222222252222225i2222121***22222222222222222",
"5u22u2222222**1222222222225222222i22u2222222**122222222222222225",
"2u52222222221*1222222225222222225u22222222221,122222222222222222",
"2222222222222222222222222222222222222222222222222222222225225222"
};
