/* XPM */
static char *e[] = {
/* columns rows colors chars-per-pixel */
"64 64 50 1 ",
"  c #0C0B0C",
". c #110E0E",
"X c #13100F",
"o c #100F10",
"O c #141314",
"+ c #1A1414",
"@ c #151916",
"# c #1E1917",
"$ c #161718",
"% c #181618",
"& c #171C18",
"* c #1D1C1B",
"= c #221D1A",
"- c #1B211B",
"; c #1F281F",
": c #25211E",
"> c #28231F",
", c #20281F",
"< c #242527",
"1 c #2A2521",
"2 c #232D23",
"3 c #2E2924",
"4 c #272729",
"5 c #2B2D2F",
"6 c #302B25",
"7 c #322E29",
"8 c #263126",
"9 c #283327",
"0 c #273328",
"q c #2A362A",
"w c #2D3A2D",
"e c #33302E",
"r c #2D2E30",
"t c #2F3032",
"y c #323334",
"u c #393736",
"i c #303F30",
"p c #3C3836",
"a c #343538",
"s c #3A3B3B",
"d c #334433",
"f c #364936",
"g c #42403F",
"h c #494746",
"j c #524F4D",
"k c #53514F",
"l c #535353",
"z c #5B5B5B",
"x c #626262",
"c c gray42",
/* pixels */
"wwwwwwywwwwwwwwwwwwwwwwwwwwwwwwwwwwwwwwwwwwwwwwqwwwwwwwwwwwwwwww",
"wwwwwwwwwwwwwwwwwwwiwwwwwwwwwwwqwwwwwwwwwwwwwwwwwwwwwwwwwwwwwwww",
"iwwwwwwwwwwwwwwwwwwwwwwwwwqwwwwwwwwwwwwwwwqdwwwwwwwwwwwwwwwwwwww",
"wwwwwwwwwwwdddwwwwwwwwwwwq8qwwwwwwwwwwwwwwwdddwwwwwwwwwww02www0w",
"wwwwwiwwfddfffwwwwwwwwwwq22q802wwwwwwwwwfdwdfdwwwdwwwww0q220202w",
"wwwwwwwwdw9wdwwwwwwwwww8q8q0222qwwwwwwwwdwwwfwwwwwwwwww8q8wq222w",
"wwiwwwwwq88qwwwwwwwwqww2qwww22wwwwwwwwwww22qwwwwwwwwwww8qwww220w",
"wwwwwwwwwqqwwwwwwwwwwwwtwwwwq2wwwwwwwwwwwwwwwwwwwwwwwww0wwwwq2ww",
"wwwwwwwwwwwwwwwwwwwwwwwwwwwwwwwwwwwwwwwwwwwwwwwwwwwwwwwwwwwwwqww",
"wwwwwwwwwwqwwwwwwwwwwwwwwwwwwwwwwwwwwwwwwwwwwwwwwwwwwwwwqwwwwwww",
"wqwwwwwwwwwwwwwwwwwwwwwwqwwwwwwwwwwwwwwwwwwqqwwqwwwwwwwwwwwwwwww",
"q8qwwqwwwwwwwwwwwwwwwwwwwwwwwwwww8wwwwwwwwwwwdwwwwwwqwwwwqwwwwww",
"q80808qwwwwwwwqq808808802;0058802;22222000808080qqwwdqwwq2wwwwww",
"wwq8;8qwwwwwwq2-@@@@@O@$@O$O$o@O@OOO@O@$$$@$$O$$-2qwwwqq22wwqwww",
"wwq82qwwwwwwq8-*5r555555rrrrr5rr5rrr555555555555&-2qwq8q80wwwwww",
"wwqq8wwqwwqwq-O<sy55555555555rr755555555555555ys<@-wwq8qwwwwwwww",
"wwwwqwwwqwwwq,O2y@  XO o.oooooX.oooo....o.oooo%a<@;qwwqwwwwwwwww",
"wwwwwwwwwqwww0-<to ..    ...... .....  .   oo $a<&8wwwwwwwwwwwww",
"wwwqddddwdddd0&<yo O+X  X++X+X+X++XXoX.X+. Xoo*a<-0wwwwwwwwwwwww",
"wwwwqdfdwdddw0&<yO O+#XO+================Xo==o*a<-qwqwwwwwwwwwww",
"wwwwqddwqwdddq-<eo ++===>6111613=3333333>===1+*a<-qwwwwwwwwwiwww",
"wwwwwwwq88qww0-<eo X+>==37666666666666666==66**a<-0wwwwqwwwwwwww",
"wwwwwwwwq8qwqq-<ao X#>==16666666666666666>=66**a<-qwwwwwwwwwwwww",
"dwwwwwwwwqwwwq-<ao X+>>=161166663636666666666**a<-qwwwdddiwwwwww",
"qwwwwwwwwwwwqq-<ao o+>3366>=17666676666666666=*a<-wwwwwdwwwwwwww",
"qwwwwqwwwwqwwq-2yo.X=13663==16666666666666663**a<-0wdwwdwwwwwwww",
"wwwwqwwwwq8qwq-<ao o+>6666==16666666666666663**a<-0wdwwwwwwwiwww",
"wwwdddwwwq8q88@<ao X+>6666>=16666666663336663**a<-wwwwwwwwwwwwww",
"wwwddwwwwwqq8;@<eo X==6666333673677766==16364**a<-qwwwwwwwwwwwww",
"ddwwdwwwwwww8;-<ao X+>6666667pe:=eu766==16663**a<-qwwwwwwwwwwwww",
"wdwwwwwwwwwq92-<ao +=>666667sjh11hh4363=16663**a<-qwwwwwwiwwwwit",
"wwwwwwwwwwwww0-<yo o+=66667skxk77kj3=6==16666**a<-qwwwwwwwwwwiww",
"wwwwwwwwwqwwwq-<ao .o>6667ajclp67uga**6136663#*a4-twwqwwwwwwwwww",
"wwwwwwwwwwwqwq-<ao .o=6666plck7667ua*=6666663#*a<-qwwwwwwwwwwwww",
"wwwwwwwwwwwwwq-4eo .o=6666ehzzhpuuar%=6666663#*a<-0wwwwwwwwwwwww",
"wwwwwwwwwwwddd-<yo o+=666614gzlgssr++>6666613**a<-qww0www020qwqw",
"wwwwwwwwddwdfd-<yo o+>666611154**%%+=666661=:**a<-0wwwwwq28q808q",
"wwdwwwwwdd0ddw-<yO X+>666663=+oooo+>1766661=:*<a<-wwwww008qw222q",
"wwwwwwwww88qw0-<ao X+16666663=*#=#:1666666>===*a<-0wwww2qqwq22ww",
"wwwwwwqwwqwqwq-<ao.X+1666666633331166666661=:#*a<-qwwww0wwww08qw",
"wwwwwwwwwwwww0-<to X=>66636666666666666666611#*a<-qwwqwwwwwwwqww",
"wwwwwqwwwwwwwq-<ao X+=66311366366666666666666**a<-qwwwwwwwwwwwww",
"wwwwwwwwwwqwwq*<yO X=>663==366666666666766666#*a<-qwwqwwwwwwwwww",
"w2qwwqwwwwwwwq-<yo o+>663==666666666666136664**a<-qwwwwwwqwwwwww",
"q00808wwwwwww0-<ao X+>661==373736666661:16666**a<-qwwwwwq8wwqwww",
"wqq222qwwwwqw0-<eo o+>6631136733666666>=>6663=*a<-qwwwqw22wwwwww",
"qww22qwwwwwww8*<ao oo*>>=11=::=1:::=::#o==:==@*a<*8wwq8q80wwwwww",
"www08qwwwwwww;@<a%ooo%++%O$@@%@$$%$%$$%o+$%%%O<a<@;qwq8qwqwwwwww",
"wwwwwwwwwwwwq-@<sattttttttrtttttttttttttttttryas;O;www0wwwwwwwww",
"wwqwwwwwwwqww8-*4rrrrtrrrrrrrtrr5r5t5t55rrrrrrq5*&2qwwwwwwwwwwww",
"wwwwwdddwqddw0--O@$@O$O@$OO$OO$$O@@O@$@@$$@@%OO@&20wwwwwwwwwwwww",
"wwwwwdffdddfd080000008000008008w88000wdwwwdw00;00wwwwwwwwwwwwwww",
"wwwwwddwqwdddwwwwwwwwwwwwwwwwwwwwwwwwdddwwddddqwwwwwwwwwwwwwwwww",
"wwwwqwww88qwqqwwwwwwwwwwwwwwwwwwwwwwwwwq82wwwwqwwwwwwwwwwwwwwwww",
"wwwwwwwwq8qwwwwqwwwwwwwwwwwwwwwwwwwwwwqwq8qwwwqwwwwwwwwwwwwwwiww",
"wwwwwwwwwqwwwwwwwwwwwwdddwwwwwwwwwwwwwwwwqwwwwwwwwwwwwdddwwwwwww",
"wwwwwwwwqwwwwwwwwwwwwwwdwwwwwwwwwwwwwwwwwwwwqwwwwwwwwwwditwwwwww",
"wwwwwwwwwwqwwwwwwwwwdwwdiwiwwwwwwwwwwwwwwwwwwwwwwwwidwwdwwwwwwww",
"wwqwwwwwww8qwwqwwwwwddwwwwwwwwwwwwwwwwwwwq8qwwqwwwwwdiwwwwwwwwww",
"wwqdddwwwq8q808qwwwwwwwwwwwwwwwwwwwdddwwwq8q8q8qwwwwwwwwwwwwwwww",
"wdqwddqwwqqq2;8wwwwwwtwwwwwwwwiwwwwddwwwwwqq22<wwwwwwwwwwwwwiwww",
"wddwdwqwwqdw22qwwwwwwwwwwwwwwwwwwdwwdwwwwwww22qwwwwwiwwwwwwwwwww",
"wdwqdqwwwwwqq8qwwwwwwwwwwwwwwwwwwdwwwwwwwwww08qwwwwwwwwwwwwiwwwi",
"wwwwqwwwwwwwwqwwwwwwwwwiwwwwwwwwwwwwwwwwwwwwqqwwwwwwwwwwiwwwwwww"
};
