/* XPM */
static char *p_l[] = {
/* columns rows colors chars-per-pixel */
"64 64 51 1 ",
"  c #070707",
". c #0D0707",
"X c #080708",
"o c #0C0B0B",
"O c #130E0E",
"+ c #1C0D0C",
"@ c #0F100F",
"# c #10100F",
"$ c #150F10",
"% c #151111",
"& c #191313",
"* c #141814",
"= c #1C1916",
"- c #1D1C18",
"; c #330F0A",
": c #390F09",
"> c #22100C",
", c #3B1C18",
"< c #1F281F",
"1 c #27231F",
"2 c #2B2621",
"3 c #232D23",
"4 c #2D2923",
"5 c #312C26",
"6 c #253025",
"7 c #283127",
"8 c #273328",
"9 c #2A3529",
"0 c #2D3A2D",
"q c #34352B",
"w c #303F30",
"e c #471D15",
"r c #4E1C14",
"t c #511C14",
"y c #5C1E12",
"u c #7C1E0B",
"i c #671F11",
"p c #681F11",
"a c #4F2119",
"s c #642217",
"d c #334433",
"f c #364936",
"g c #384A37",
"h c #3A4C39",
"j c #3C513C",
"k c #41533F",
"l c #465B44",
"z c #496148",
"x c #DC492A",
"c c #C2533D",
"v c #E14727",
/* pixels */
"000000000000000000000009000000000000000w000000000000000000000000",
"00000000000000000000w0000000000000000000000000000000000000000000",
"w0000000000000000w0000000090000000000000000000000000000000900000",
"00000000w00dwd0000000000003990000000000000wdwd000000000009390090",
"00000w00fdwdgdw0000000009339786900000000fdwdgd00000w000903396830",
"00000000d090dw00000w0096038033300000000wd09wdw00w000009796993339",
"00w0000003300000000000938009339000000000036900000000009390003390",
"0000000000900000000000090000969000000000090000000000000000009600",
"00000000000000000000000000000900000000000000w0000000000000900000",
"000009000000000000w000000000000000000000000000000000000000000000",
"090000000000w000000000009000000000000000000000000000000000000090",
"979900000000000000000000000999999398090000000000w000000090000000",
"9796779000000000000000009309-*&-87969600000000000000000096900000",
"0993330000000000000000093397=&&=49331390009000000000009933000000",
"00933900000000000000096967==2442=*=&%=90000000000000006969000000",
"00096000000000000000006994==2241=&&&&=69890000000000096900000000",
"000090000000000000000009=&22%@@%244442=&&=9000000000009000000000",
"000000000000000000000998==21@  o244442=$&=9990000000000000000000",
"00000ddd00ddd969000009-*22%oooooooo@o$2444==90390000000000000000",
"00000dfd0ddd0969000993==21@oooooooooX@2442&=79790000000000000000",
"00000wd090dddd900009-=22@oooo oooooXoo@@@@24==900000000000000000",
"w0000000660090000009=&42%oooooooooooooXoo$44&&9000000000000000w0",
"00000000960090000008=&4542oo ooooXoXXoXo1454&=909000000000000000",
"00000000090000900008&&2452%o@@#@@@@@@@@$4542&&90000000dwww000000",
"00000000000000000008%o&=454222224424224454=&o@80000000wdw000000w",
"00000000009000000008oo%&222455555455554242&$X@900000d00d00000000",
"00000000006990900008@o$&#oo%2555555554=&&&ooo@700000dw0000000000",
"000dwd00096969800008oo&$ooo#2422444442&$&$ooo@<90000000000000000",
"0w0wdw00009933690009Oo%%ooO&&&Oo&&&=&&&&%$ooX@<000000q0000w00w00",
"0d00d000000033909007oo%&ooO&&%o.$&$$$$$$&$ooo@8000000w0000000000",
"wd000000000096900009@o+Ooo..O$Oo&&$&$&Oo$%ooo@800000000000000000",
"00000000009009000008#;sa+;ye&Ooo$$&$&$oo$$oXo@800000000000000000",
"00000000000000000006>uxcruxc,Xoo&$oo%&%$oooooo800000000000000900",
"000000000000000000w9>uxctuvc,Xoo$%@@%%&%ooooo@900000000000000000",
"000000000000000009w6O:ir+:ptOo$%oo<<ooO&%%ooo@800000000000900000",
"0000000000wdww000009o.OXXO..oo$&#&63&%&$%#ooo*900000000008300090",
"00000000ddwdfdw00008@oXoooooooO=dd88dd=Oooo@00000000000096696939",
"0w00000wd00wdw000008@Xooo.ooooO=hj89jg-%ooo@dd0000w0000396903330",
"000000000330000000w7%oooO%$Ooo$-lz98hj42@oo@80900000000399093390",
"00000000099000000007oooo%&%$oOO=kl09ggq4@o @60000000000900099600",
"00000000000000000009#ooo$%oOO$$&=1lz09hd@ o@90000000000000900000",
"00009000000000000008#ooo$&oo%&&$#=kl99jf%oo@69000000000000000000",
"000000000000000w0008ooO%&$oo$%&&&%#-djjg=Ooo@%900000000000000000",
"97900900000000000008@o%&$Ooo$&$&&#o@dggd=#oo @900000000009000000",
"03988790000000000008@o$%oooo$&&$%#oo%%==%%ooo@600000000096009000",
"00933300000000000008@o%%oXoo$&$&&&ooo $$&%ooo@900000000963000000",
"00933900000000000008oo%&oooo$&%%$%%$oo%&%$oo @800000098969000000",
"9009300900w000000008*O%OooooO%%$&+&%oo%%&Oooo*900000096999000000",
"0000000000000000000993oo%$o oo&&&%&$oo$&&%oo39009000000000000000",
"0000000000000000090009*@%$oooo$%$$%$oX$*$$@*90000000000000000000",
"00000dwd00wd096900000096@ooo@$@ooo%&ooooo@6w09690000000000000000",
"0000wdgdwdfdd06900000093@ oo%$oooo%%oX oX@dgw9690000000000000000",
"00000wdw00dwd090000008*@oooXooXXoooXooooX#wdd00000000000000000w0",
"0000090033000000000008@Xoooooo@@@@@ooooo@#9000000000009000000000",
"0000000096900000009009o ooooX@398893o  @<39000000000000000000000",
"0000000009000000000009*@ooo@@*9000w9*@@*90000090000000dddw000000",
"000000000000000000000090@  @390900008888000000000000000dw0000000",
"00000000009000000000d0ww*@@%90000000000q009000000000f00d00000000",
"0000000009690990009wdw00998800000000000000899090000wd0000000w000",
"009ddd00006969600000000000w00900000ddd00096988890000000q00000000",
"000ddd900009<669000000w000000000000wdw90009933300000000000000000",
"0d00d00000006<909000000000000000wd00d000000933900000000000000000",
"dd00009000909800000000000000w0000dw900000000860000000w0000000000",
"9000000000000900000000000000000000000000000009000000000000w00000"
};
