/* XPM */
static char *w[] = {
/* columns rows colors chars-per-pixel */
"64 64 32 1 ",
"  c #0B0C0B",
". c #0F110F",
"X c #10110F",
"o c #121412",
"O c #161B16",
"+ c #181916",
"@ c #191E18",
"# c #1C241C",
"$ c #1F281F",
"% c #1F2820",
"& c #232521",
"* c #222C22",
"= c #292C27",
"- c #263126",
"; c #273428",
": c #293529",
"> c #2D3A2D",
", c #2F3F30",
"< c #303F30",
"1 c #334333",
"2 c #364837",
"3 c #374A38",
"4 c #3A4D3B",
"5 c #3D523E",
"6 c #3F5440",
"7 c #405642",
"8 c #445B45",
"9 c #465F49",
"0 c #476049",
"q c #4A644D",
"w c #4C684F",
"e c #4D6951",
/* pixels */
">>>>>>>>>>>>>>>>>>>>>>>>>>>>>>>>>>>>,>>>>>>>>>>>>>>>>>>>>>>>>>>>",
">>>>>>>>>>>>>>>>>>>>>>>>>>>>>>>>>>>>>>>>>:>>>>>>>>>>>>,>>>>>>>>>",
">,>>><>>>>>>>>>>>>>>>>>>>>>>>>>>>>>>>>>>>>>>>>>>>>>>>>>>>>,>>><>",
",>>>>>>>><>>>>>>>>>>>>>>>>>,>>>>>>>>>:>>>>>>>>>>>>>>>>>>>>>>>>>>",
">>>>>>>>>>>>>>>>>1>>>>>>>>>>>>>>>>>>>>>>->>>>>>>>>>>>>>>>>>>>>>>",
">>>>>>>>>>>>><>>>21>21>>>>>>>>>>>>>>>>>*-:>:>>:>>>>>>>>>>>>>>>>>",
">>>>>>>>>>>><1<<112121>>>>>>>>>>>>>>>>-**::-::-:>>>>>>>>>>>>>111",
">>>>>>>>>>>>23<<>1221>>>>>>=##->>-$&*>**-::%--*->>>>>>>>>>>>,231",
">>>>>>>>>>>><1>>>>11>>>:::;#  #>:# .@-*=;>-****:>>>><>>>>>>>>2<:",
">>>>>>>>>>>>>>*=-:>,>>:OoOo###ooo+O##oooO->*%*:>>>>>>>>>>>>>><>=",
">>,>>>>>>>>>>:-*;>*%%%#oooo%>;#oo#->*Ooo.####$>>>>>>>>>>>>>>>>--",
">>>>>>>>>>>>>>>>:;#.o.o#*-*1541*->451--*#o. .O-::>>>>>>>>>>>>>>>",
">>>>>>>>>>>>>>>>-OOO##*365:1551-->551;374-##OOO->>>>>>>>>>>>>>>>",
">>>>>>>>>:>>>>>*#.#;>;10e021153>>252129e01;>:#o#=>>:>>:>>>>>:>>>",
">>>>>>>>>>>>>>:@.#>43>>0ew03:454554>10ww01>44,#o+>>>>>>>>>>>>>>>",
">>>>:>>>>>>>>*@+#*164>>60q843455555148q06>>461%o +*>>:>>>>>>>>>>",
">>:>>>>>>>>>-#.#$->451>15055555555555586111431-O .#*>>>>>>>>>>>>",
">--:>>:>>>>;O.#*--;>442>1555555555555551;1421;-##@o+->>>>>>>>>>>",
">=*:::::->>>Oo*>24211>>--14555554555551;-;11115>$#.o:>->-;>>>>>>",
">:-:-*--$>;*Oo#>5q82;;:>:15555555555541>>>;;1601$O.+%**:**>>>>>>",
">:>>:****;*.Oo.#1062;1444455555556555544441;1501#ooO.#****>>>>>>",
">>>>-***;$OO#-;11211145555555556555555555541111>*##@OoO%=-:>>>>>",
">>>>:**-:o.#-1552>:>2455555655555655554555531;:-**#@#..#;>>>>>>>",
">>>>>:*-:oo-14554441:1555555555555555555552;144>*#ooO..%;>>>>>>>",
">>>>>>-::+X:15580062*;1111455555555555111>>-16861$#oX.X*>>>>>>>>",
">>>>>>>>:oX-1450eq611;;-*>4555555555551*-;:>15qe8-#o. o:>>>>>>>>",
">>>>>>>>:oX#*>50eq3>341;1455555565555531-14311qe5:###.X:>>>>>>>>",
">>>>>>>,1O.o#*11331142115086555555555885111543431*##o X:>1>>1>>>",
">>>>>>>>>O..O$;:;;155>;48we8555555568ww05>>405;-$##o. X-12,11>>1",
">>>>>>>*o+#$*>331:154110qww85555555qwwww01>5q5$$;-O.OX .*2121>11",
">>>>>>>#.#$->2553;>11;>6qee055555566qewq8>;131$$$$OO#X  *1211>>1",
">>>>>>>&.#*-15551;---;>260065555455560063>;;--*$#O##+.  #>11:>>:",
">>>>>>>$..O-1441;*-:2211::115552115521>>>133>--*#X#O.   #>>>>-**",
">>>>>>>*#.o$>1111*11551-;1$15521->551*1;;3551>--$oo.  .O*>>>>--$",
">>>>>>>>-O.#$-:11-15541;12:1441--1341;11:14551:-$#.   o;>>>>>>;$",
">>>>>>>>>-$.$>2>;-15511252;*1:1231;>-;241>1551;$##.  o$:>>>>>>>:",
">>>>>>>>:-O.#;1-$-111::5541;-115521-;1255::11>-#oo   .#->:>>>>>>",
">>>>>>:>:o  o#$$$***--:25521;445542>12542>----$O.     O;>>>>>>>>",
">>>>>>>>;o  ...#-*$$---:231*;455554;*132>-;-$$-$#.   $1>>>>>>>>:",
">>>>>>>>:o   .o#$*$$*-*#11;*-144211;**;1--*$##$#o    $1*:>>>>>>>",
">>>>>>>>>o   .OO###$-;*$$-----11:*;;$#$*-**###O.     @**->>:>>>>",
">>>>>1><>+O>O ... #$*$$$$#--*#-:*$*-####$*$..X#OX    @$#:1>>>>>>",
">>>>,11<1#$1#     .#$##$##$$$#####*###OO#$#  .#Oo... +*#>1>>>>>>",
">>>>:,11>>-$.      .#oo$######. o##. #. ##o  .O.  O#.+*-:>>>>>>>",
">>1>>>11>>>-oX@XX@X  o##O.#O..  ..   .  .#o   ...O$$@#*>,>>>>>>>",
">12,>>11>:>:#@@X+=&X .Oo  o.             ..     .O$$$#*,,>>>>>>>",
">11,:>>>>>>>>&XX@=*#                           .. #$##=>>:>>>>,>",
">>,>>>>>>>>>>*XX@=$#o         .#           ..O#OX #$##*:>>>>>>>>",
">:>>>>>>>>:>>* .+&@+X+o ..    ##o..   OX   X++&@. O$#$$>>>>>>>>>",
">>>>>>>>>>>>>&. X++X *1XO#   ######. X>-    X++   O##->>>>>>>>,>",
">>>>>>>>>>>>>:&.X:#  #-XO# .O$$$$$$#X.$$   .**X  +###->>:>>>>>>>",
">>>>><>>>>>>:>>@#>#  ##X##.#$$$####$OX##.  X--..o##$*;>>>>>>>>>>",
">>>>,>>>>>>>>>>::*O  @*######$$###$#####@X  ##Xo$#$$:>>>>>>>>>>>",
">>>>>>>>>>>>>>>>>>-####$#######$----*#$#OO+O##O#$#$:>>:>>>>>>>>>",
">>>>>>>>>>>>>>>>>21::-$##$#$*$$$:>>>:$###$$##$#$$$:>>>>>>>>>>>,,",
">>>>>><>>>>>122<<2222>-&###->:>>>>>:::*$$:*O##@*::>>>>>>>>>>>122",
">>>>>>>>>>>>12<>>1121>:---*:>>>>>>>:::-*->-####->>>>>>><>>>>>211",
">><><>>>>>>>1<>::>11>:>>>>>>>>>>>>:--:-->>:***-:>>:>>>>>>>>>>2<:",
">>>>>>>>>>>>>:=*=:>>>>>>>>>>>>>>>>:$->:>>>:***:>>>>>>>>>>>>>>>:*",
">>>>>>>>>>>>:::-:>>>>>>>:>>>>>>>>>>::>>>>>:=*->>>>>>>>>>>>>>>>:-",
"><>>><>>>>>>>>>>>>>>>>>>>>>>>>>>>>>>>>>>>:>>:=>>>:>>>>>>>>>>>>>>",
">>>>>>>>>>>>>>>>>>>>>>>>>>>>>>>>>>>>:>>>>>>>::>>>>>><>>>>>>>>>>>",
">>>>>>>>>>>>>>>>>>>>>>>>>>>>>>>>>>>>:>>>>>>>>>>>>>>>>>>>>>>>>>>>",
">>>>>>>>>>>>>>>>>>>><>>>>,>>>>>>>>>>>>>>>>>>>>>>>>>>>>>>>>>>>>>>"
};
