/* XPM */
static char * p_b_xpm[] = {
"64 64 11 1",
" 	c #35A541",
".	c #3ABE41",
"+	c #328E41",
"@	c #79584F",
"#	c #94785C",
"$	c #563A3F",
"%	c #201729",
"&	c #2ECA35",
"*	c #62EB3D",
"=	c #29973B",
"-	c #2D5B3F",
"                                                                ",
"                                                                ",
"                                                                ",
"           . .            +                . .            +     ",
"        .. ...           ++ + +         .. ...           ++ + + ",
"        .   .          + +  +++         .   .          + +  +++ ",
"         ++            +    ++           ++            +    ++  ",
"                             +                               +  ",
"                                                                ",
"                                                                ",
"                                                                ",
" +                               +                              ",
" + + +                   +       + + +                   +      ",
"   +++                  ++         +++                  ++      ",
"   ++                 + +   @@@@@@@@@@                + +       ",
"    +                 +     @@@@@@@@@@                +         ",
"                      @@@@@@##########@@@@                      ",
"                      @@@@@@##########@@@@                      ",
"     . .   .  +     @@######$$$$$$$$$$####@@  +                 ",
"     ... ...  +     @@######$$$$$$$$$$####@@  +                 ",
"      .   . .     @@####$$$$%%%%%%%%%%$$$$##@@                  ",
"        ++        @@####$$$$%%%%%%%%%%$$$$##@@                  ",
"         +        @@######%%%%%%%%%%%%%%####@@                  ",
"                  @@######%%%%%%%%%%%%%%####@@        . .       ",
"                    $$@@##########@@######@@%%         .        ",
"                    $$@@##########@@######@@%%      .  .        ",
"          +         $$@@@@@@@@@@@@@@##$$@@@@%%&&****.           ",
"   . .    + + +     $$@@@@@@@@@@@@@@##$$@@@@%%&&****            ",
"    .       +++       $$@@@@@@$$@@@@@@$$@@@@%%====&&**          ",
" .  .       ++        $$@@@@@@$$@@@@@@$$@@@@%%====&&**          ",
" .           +  @@@@  $$@@$$@@$$@@@@$$##@@@@%%&&&&====**        ",
"                @@@@  $$@@$$@@$$@@@@$$##@@@@%%&&&&====**        ",
"              @@####%%$$@@@@$$@@@@@@$$##@@@@%%    &&&&==        ",
"              @@####%%$$@@@@$$@@@@@@$$##@@@@%%    &&&&==        ",
"              @@##@@$$%%@@@@@@$$@@@@$$@@@@@@%%                  ",
"           . .@@##@@$$%%@@@@@@$$@@@@$$@@@@@@%%            +     ",
"        .. ...  %%$$$$%%@@@@@@$$@@@@$$@@@@@@%%           ++ + + ",
"        .   .   %%$$$$%%@@@@@@$$@@@@$$@@@@@@%%         + +  +++ ",
"         ++       %%%%$$@@@@@@$$@@@@@@$$@@$$%%         +    ++  ",
"                  %%%%$$@@@@@@$$@@@@@@$$@@$$%%               +  ",
"                    %%@@@@@@$$@@@@@@@@$$@@%%                    ",
"                    %%@@@@@@$$@@@@@@@@$$@@%%                    ",
"                    %%@@@@@@@@@@@@@@$$@@@@%%                    ",
" +                  %%@@@@@@@@@@@@@@$$@@@@%%                    ",
" + + +              %%$$@@@@$$@@@@@@$$@@$$%%             +      ",
"   +++              %%$$@@@@$$@@@@@@$$@@$$%%            ++      ",
"   ++                 %%%%$$$$@@$$@@$$%%%%            + +       ",
"    +                 %%%%$$$$@@$$@@$$%%%%            +         ",
"                      %%==%%%%%%%%%%%%==%%                      ",
"                      %%==%%%%%%%%%%%%==%%                      ",
"     . .   .  +       %%----%%    %%----%% .  +                 ",
"     ... ...  +       %%----%%    %%----%%..  +                 ",
"      .   . .         %%----%%    %%----%%. .                   ",
"        ++            %%----%%    %%----%%                      ",
"         +              %%%%        %%%% +                      ",
"                      . %%%%        %%%%              . .       ",
"                       .                               .        ",
"                    .  .                            .  .        ",
"          +         .                     +         .           ",
"   . .    + + +                    . .    + + +                 ",
"    .       +++                     .       +++                 ",
" .  .       ++                   .  .       ++                  ",
" .           +                   .           +                  ",
"                                                                "};
