/* XPM */
static char *a32d8e1f02324b07a6c5b24a12c363e3qDUNuKsKtjPKsgKy[] = {
/* columns rows colors chars-per-pixel */
"64 64 133 2 ",
"   c #1D1426",
".  c #1E1528",
"X  c #1E1828",
"o  c #211629",
"O  c #241A2B",
"+  c #2A1D2D",
"@  c #1F272A",
"#  c #1F2A29",
"$  c #1F322B",
"%  c #21252B",
"&  c #2D222F",
"*  c #222B2C",
"=  c #28282D",
"-  c #31212F",
";  c #23342D",
":  c #29322D",
">  c #24382D",
",  c #2F2F30",
"<  c #342430",
"1  c #3C2E35",
"2  c #462F38",
"3  c #473138",
"4  c #4C333B",
"5  c #51373C",
"6  c #543A3E",
"7  c #5B3D3F",
"8  c #294C39",
"9  c #2B543C",
"0  c #2B5C3D",
"q  c #2C633E",
"w  c #267D36",
"e  c #2D783B",
"r  c #4F433D",
"t  c #4C543E",
"y  c #3A3241",
"u  c #5A3D41",
"i  c #3B5741",
"p  c #335A40",
"a  c #564441",
"s  c #5E4142",
"d  c #594A41",
"f  c #5F4950",
"g  c #614344",
"h  c #654946",
"j  c #6A4C46",
"k  c #6D4E49",
"l  c #635047",
"z  c #645A47",
"x  c #6E504B",
"c  c #6F5E4C",
"v  c #75544D",
"b  c #78574E",
"n  c #735D4D",
"m  c #79584F",
"M  c #6D5356",
"N  c #7E5750",
"B  c #7D5A50",
"V  c #65644A",
"C  c #6E614C",
"Z  c #666A4A",
"A  c #696D4A",
"S  c #73624E",
"D  c #7B615D",
"F  c #815C52",
"G  c #826353",
"H  c #856B55",
"J  c #8A6E57",
"K  c #8B7157",
"L  c #8D7258",
"P  c #91755A",
"I  c #95795C",
"U  c #856861",
"Y  c #8A6C63",
"T  c #2C833A",
"R  c #2A8D3C",
"E  c #30843C",
"W  c #318A3D",
"Q  c #29923A",
"!  c #279C39",
"~  c #2B9D3A",
"^  c #32943E",
"/  c #349D3E",
"(  c #2CAE34",
")  c #2DA33A",
"_  c #33A43E",
"`  c #33A93E",
"'  c #2DBF35",
"]  c #3EB63F",
"[  c #2DC236",
"{  c #2EC936",
"}  c #34CC37",
"|  c #57D73D",
" . c #56DC3C",
".. c #58DD3C",
"X. c #59E23D",
"o. c #318F41",
"O. c #3A8B41",
"+. c #329441",
"@. c #3C9541",
"#. c #339E41",
"$. c #3C9C42",
"%. c #34A041",
"&. c #34A341",
"*. c #36A341",
"=. c #32A640",
"-. c #34A441",
";. c #34A541",
":. c #35A541",
">. c #37A541",
",. c #3AA142",
"<. c #3FA042",
"1. c #3EA742",
"2. c #32A840",
"3. c #32AB40",
"4. c #35A841",
"5. c #35AC41",
"6. c #36AD41",
"7. c #3CAB41",
"8. c #39AC40",
"9. c #36B241",
"0. c #37B441",
"q. c #37B541",
"w. c #38B741",
"e. c #39BA41",
"r. c #39BC41",
"t. c #448744",
"y. c #409042",
"u. c #459244",
"i. c #469444",
"p. c #42A242",
"a. c #D3D0D4",
"s. c #D8D4D6",
"d. c #E3DCDB",
/* pixels */
":.:.:.:.:.:.:.:.:.;.:.:.:.:.:.:.:.:.:.:.:.:.:.;.:.&.;.&.:.&.:.:.:.:.:.:.:.:.:.:.:.;.:.:.:.:.:.;.:.:.:.:.:.:.:.&.:.;.;.&.:.;.:.:.",
":.:.:.:.:.:.:.&.:.:.:.:.:.&.:.&.:.:.:.:.:.:.&.:.&.:.:.:.:.&.;.&.:.;.:.:.:.:.:.&.:.:.:.:.&.:.:.;.:.:.:.:.:.:.;.:.&.:.:.:.;.&.;.&.",
":.:.:.:.:.:.&.:.&.;.&.;.;.;.;.:.;.:.:.:.&.:.&.;.:.;.&.&.:.:.:.:.&.:.:.:.:.:.;.:.;.&.;.:.:.&.;.:.&.:.:.:.&.:.&.;.:.;.&.&.:.:.:.:.",
":.:.:.:.:.;.:.;.4.4.4.q.6.q.:.&.:.:.:.:.:.;.:.:.&.#.+.&.&.&.&.:.:.;.:.:.:.;.:.&.4.4.4.q.6.q.:.;.:.:.:.:.:.;.:.:.&.#.+.&.&.&.&.&.",
":.:.:.:.:.:.;.:.e.q.4.q.r.q.4.;.:.:.:.:.&.:.;.&.&.+.+.#.+.#.+.#.:.&.:.:.:.:.&.:.w.q.4.q.r.w.:.&.:.:.:.:.&.:.&.&.#.+.+.&.+.#.+.#.",
":.:.:.:.:.:.;.:.q.:.:.:.q.6.&.:.&.:.:.:.&.:.&.+.#.+.#.&.o.o.+.&.:.;.:.:.:.:.;.4.q.:.;.4.w.:.;.:.;.:.:.:.;.:.&.+.#.+.#.#.+.o.+.&.",
":.:.:.:.:.:.&.:.:.+.+.&.2.;.:.;.:.:.:.:.&.:.&.+.#.&.;.&.+.o.#.:.:.;.:.:.:.&.&.:.&.+.+.&.2.;.:.;.:.:.:.:.&.:.&.+.#.&.&.&.+.o.#.;.",
":.:.:.:.:.:.:.:.&.&.&.:.:.:.&.:.:.:.:.:.;.:.&.&.:.:.:.&.#.+.&.&.&.:.:.:.:.:.;.:.&.&.&.;.:.:.&.:.:.:.:.:.;.:.&.&.&.:.&.&.#.+.&.:.",
"&.;.&.:.;.:.:.:.:.:.:.:.&.:.&.:.:.:.:.:.:.;.:.:.:.&.;.:.&.&.;.:.;.&.;.:.&.:.:.&.:.:.:.:.&.:.;.:.:.:.:.;.;.;.;.:.:.:.&.:.:.&.#.:.",
":.:.:.:.&.&.&.:.&.&.;.&.:.;.:.:.:.:.:.:.&.:.&.;.;.;.&.&.:.:.:.&.:.:.:.&.&.:.;.:.;.&.&.;.:.;.:.:.:.:.:.;.&.;.;.&.:.:.&.&.;.;.:.:.",
";.&.&.&.:.:.:.&.:.:.:.:.:.:.:.:.:.:.:.:.:.&.:.&.:.:.:.;.&.&.;.:.&.&.;.:.:.:.:.&.:.:.:.:.:.:.:.:.:.:.;.;.:.:.:.:.;.:.:.:.;.;.;.;.",
"&.+.&.&.&.&.:.:.;.:.:.:.:.:.:.:.:.:.:.&.:.;.;.:.&.&.&.:.;.:.&.:.&.+.&.&.&.&.&.:.;.:.:.:.:.:.:.:.:.:.;.:.:.&.&.:.;.&.&.:.&.;.;.;.",
"&.+.#.+.#.+.&.&.&.:.:.:.:.:.:.:.:.:.:.:.;.:.:.;.#.+.#.:.;.:.&.:.#.+.#.+.#.+.&.&.&.:.:.:.:.:.:.:.:.:.:.:.&.:.:.&.#.+.&.:.:.:.:.;.",
"&.&.#.+.o.+.&.&.;.:.:.:.:.:.:.:.:.:.:.&.:.&.&.&.+.+.&.:.&.:.;.:.:.&.&.o.o.+.&.:.;.:.:.:.:.:.:.:.:.:.;.:.:.&.:.&.+.+.&.:.&.:.:.;.",
"&.:.&.+.o.#.;.:.&.:.:.:.:.:.:.:.:.:.:.&.:.&.+.#.+.#.:.&.:.:.:.:.:.:.&.+.o.#.&.:.&.:.:.:.:.:.:.:.:.:.:.&.:.&.+.#.+.#.:.&.:.:.:.;.",
":.&.&.#.+.&.:.&.:.;.:.:.:.;.&.;.:.:.:.&.&.&.+.&.&.&.:.:.:.:.&.:.&.;.&.#.+.&.:.&.:.;.:.:.:.&.;.&.:.&.:.:.:.&.+.#.&.,.:.;.;.:.:.:.",
":.&.:.&.&.&.:.&.:.:.:.:.:.:.&.:.&.:.:.&.:.&.&.&.:.:.&.:.&.:.:.:.:.&.:.;.&.:.:.;.:.:.:.:.;.:.:.:.:.;.:.&.:.:.&.&.:.:.:.:.:.:.:.:.",
"&.:.&.:.:.;.&.;.;.:.;.2.:.&.&.&.:.&.:.:.;.:.:.:.;.&.:.;.:.:.:.:.;.:.;.:.:.2.;.;.:.;.:.2.:.&.&.&.;.;.:.&.&.;.:.:.&.;.:.&.;.;.:.:.",
":.;.:.;.4.q.6.q.4.:.6.q.:.&.+.&.:.&.:.:.:.&.;.&.:.:.:.:.:.:.:.:.:.&.:.:.:.q.6.q.:.:.4.q.:.;.+.&.:.:.:.:.:.:.&.;.&.;.;.:.:.:.:.:.",
":.:.:.&.4.e.r.q.4.q.e.q.4.;.+.&.:.:.:.:.:.:.:.:._ :.:.:.:.&.:.&.&.:.:.:.:.q.r.w.4.q.r.w.4.#.+.&.:.&.:.:.;.:.:.;.:.:.:.:.:.:.:.:.",
":.:.;.:.:.4.q.4.&.:.q.6.9.&.&.;.:.:.:.:.;.:.:.;.:._ &.;._ :.:._ _ :.;.&.:.4.q.:.&.4.q.6.9.&.&.;.;.;.:.:.&.&.:.;.:.;.:.:.:.:.:.:.",
":.:.:.&.:.&.2.;.+.+.&.&.:.:.:.:.&.:.:.:.&.:.:.:.;.;.$.$.$.$.$.$.$.$.$.$.&.&.:.;.+.+.&.;.:.:.:.:.&.:.:.;.:.:.:.&.&.;.;.&.:.:.:.:.",
":.:.:.:.&.:.:.:.#.+.&.:.;.&.:.&.:.;.&._ :.:.2.&.6.$.Z n C C S C C S S Z $.` ;.&./ +.&.:._ :.&.;.:.&.:.;.:.:.:.:.&.:.:.:.:.:.:.:.",
":.:.:.:.;.:.:.:.;.&.&.:.;.:.&.:.:.:.;.:.:.:.1.<.1.u.S B B B m B m v m S u.$.$.$.$.$.&.&.:.;.;.&.:.:.:.;.&.:.q.6.9.4.&.:.:.:.:.:.",
":.;.:.:.;.;.;.&.:.:.:.;.:.&.:.&.:._ &.:.6.,.Z S C S L P P P P L m B P L S S C C c Z $.` ;.:.&.;.:.;.;.;.4.:.:.0.4.:.:.:.:.:.:.:.",
"&.:.;.&.;.;.;.;.:.&.&.;.:.:.:.:.&.:.:.:.7.i.S B B B J L J J J J b b J J B m B m B S u.$.&.&.;.;.:.;.;.4.q.4.4.w.:.:.:.&.:.:.:.:.",
":.:.:.:.;.2.:.&.:.#.+.&.&.&.&.:.:.:.&.,.A S L P P J h s g g g u u s s h J P P P P L n Z $.;.&.&.;.:.;.;.q.4.&.:.:.:.:.:.:.:.:.:.",
":.;.:.9.6.9.:.;.:.&.+.#.+.#.+.#.:.&.$.u.S B J L L H 6 3 4 4 4 4 4 4 3 6 H L K L I P F S t.@.+.&.:.&.;.;.:.:.:.&.;.;.;.:.:.:.:.:.",
";.2.;.:.w.6.&.:.:.&.&.#.+.o.+.&._ $.Z S L J h s g 6 & O + O O + O + O & 6 g s h L P P L S V O.&.:.:.:.:.&.:.:.:.;.:.:.:.:.:.:.:.",
":.q.4.4.q.:.;.:.,.:.:.&.+.o.#.&.:.$.n B P L 6 3 4 3 o X X o X X X X X O 3 4 3 7 J I I L F c @.:.:.&.&.;.:.:.;.;.:.:.:.:.:.:.:.:.",
"4.q.:.;.4.;.:.&.:.;.&.:.#.+.&.:.2.$.S B P J & . + O o o o X o X o o o o O O o < H I I L m n $.:.&.;.:.:.:.:.:.:.:.:.:.:.:.:.:.:.",
":.;.;.:.;.:.;.:.;.;.:.:.&.&.&.&.2.$.c m L J 1 & o X o o o o o o X o o o o o & 1 J I P L B C $.:.:.:.:.;.:.:.:.:.:.:.:.:.:.:.:.:.",
":.&.:.;.:.:.:.:.;.&.;.;._ :.,._ ;.$.n B P P J n +   X     X   X     X X   + n J P P I P N n $.:.:.:.:.:.:.:.:.&.:.:.:.&.:.;.:.:.",
":.:.:.&.:.:.:.&.&.;.&.&.:.1.` ` 2.$.z v L P I K 1 & < & & & & & & - - - + 1 K I P P L J S Z $.:.:.:.:.:.:.:.:.:.:.&.:.:.:.&.;.&.",
":.:.:.:.:.&.:.:.;.&.;.;.:.8. ...} ( ; < v G L P J H H H H H J H H H H H H J P P S m g d y.:.:.` _ :._ :.&.:.&.&.:.&.&.&.:.:.:.:.",
":.:.:.:.:.:.:.:.2.` ;.9.;.|  ...} ( $ & h n J L I P P L I I I P P P P P P P P J b x s t y.7.$.$.<.&.:.:.:.:.:.:.:.#.+.&.&.&.&.&.",
":.:.:.:.:.:.&.:.w.q.2.e.X...` ~ ! Q q 9 p i a g J K g g L P m m B B S B B B B b s d @.p.A S C A $.2.:.:.&.:.&.&.#.+.+.#.+.#.+.#.",
":.:.:.:.:.:.:.` q.4.` ]  . .) ! ! Q 0 9 p i u s L L u s L P B m v k k x b m b v u r E @.S B B S @.$.&.` :.:.&.+.#.+.#.&.+.o.+.&.",
":.:.:.:.:.:.:.:.:.$.| ..` ) [ [ { ( ; + l c v b P L s s L P m j < & + < j b b v u 5 = : H P L L S Z $.:.&.:.&.+.#.&.:.&.+.o.#.;.",
":.:.:.:.:.:.:._ &.:. . .) ! [ [ { ( # + k B b B J H s s J P Y D &     & D Y B x 6 3 + - H I I L F c $.:.:.:.&.&.:.:.&.&.#.+.&.:.",
"&.;.;.:.&.:.:.;.:.;./ ) [ [ ` ` ` ^ % + k b b v u s x v b Y d.s.y     1 s.d.Y j - + 3 s K I I L B C $._ :.;.:.:.:.:.&.:.;.&.&.:.",
":.:.:.&.;.&.:._ :._ ! ) [ [ ` :.:.^ % + k b b v u u b B v U d.a.y     y a.d.Y j + o 4 s G K J H S A $.;.&.:.&.:.&.&.;.&.:.:.:.&.",
"&.&.&.:.:.:.:.&.&.` ' [ ` _ _ _ :.^ # O 5 s v v u u v m b v M f + .   O f M m x & o 4 u s u < , O.$.&._ :.&.:.&.:.:.:.;.&.;.&.:.",
"&.+.#.:.;.&.&.;.:.4.[ [ ` &.&.;.4.^ ; = 3 5 v v u u v m b v u 4 & O O & 4 u v x & + 4 4 4 3 = > ^ :.&.:.&.:.&.:.&.&.&.:.;.:.:.:.",
"&.+.#.+.#.+.#._ :.:._ ` :.:.:.&.&.:.^ E * < k v u u v m m v v x u 3 4 6 x b N x 6 3 + + o = E ^ ;.&.:.:.&.:.:.:.#.+.&.:.&.:.:.:.",
"&.&.&.o.o.+.&.:.&.:.:.:.:._ :.:.;.:.4.^ * + g k u u k v b B B v u u u s v N v k 6 3 O X % > ^ 4.:._ :.&.:.&.&.&.+.+.&.:.;.:.:.:.",
"&.:.&.+.o.#.:.&.:._ :.:._ &.:._ :.&.:.^ % o + < 5 u u s v m b v v M v v v v s 5 + o o % e / #.:.&.:._ :.:.&.+.#.+.#.&.:.&.:.:.:.",
":.&.:.#.+.&.:.:.:.&.:.:.:.:.&._ :.&.:.^ * X X o 3 4 5 u x m b b B m b b b k u 2 + X o * ^ 6.&._ :.:.:.&.:.&.+.#.&.&.:.;.:.:.:.:.",
":.:.:.&.;.;.:.&.:.:.:.:.;.:.:.:.:.:.4.+.% o X X o < 3 u v N N b v m b v u u < O o     % ^ 6.:.:.:.:.:.&.:.;.&.&.:.:.;.:.&.:.:.:.",
"&.:.&.:.:.;.&.;.&.;.:.2.:.&.&.;.:.&./ T ; O @ X X O 2 u k v v v m v v h u 2 O   O % % ; T +.#.;.&.;._ :.&.:.:.:.&.&.:.&.:.:.:.:.",
":.&.:.:.4.q.6.q.4.;.6.w.:.#.^ &.:.+.; $ w T 9 8 O o O < 5 g u g v B s u & . . O 8 9 T w * > T :._ &.:.&.:.;.&.;.:.;.:.:.:.:.:.:.",
":.:.:.&.:.e.e.e.6.q.q.w.6.&.+.#.Q o.# # T Q q 9 * o . o 2 5 4 5 j j u 3 O   O * 9 q R T ; * e ^ &.:.:.:.:.:.:.:.:.:.:.:.:.:.:.:.",
":.:.&.:.;.:.q.4.&.:.q.6.9.:.&.^ ; ; w T q q p 9 9 8 O o O O O O O + O O O O 8 9 0 0 0 q T w $ ; ^ :._ :.&.:.:.:.:.:.&.:.:.:.:.:.",
":.:.:.;.:.;.&.&.+.+.&.&.:._ 4.^ % # T +.0 p 9 9 9 8 * * % % % * * % % * * * 8 9 9 9 9 q R T @ @ ^ 4.:.&.:.:.&.:.&.;.:.;.:.:.:.:.",
":.:.:.:.;.:.:.;.#.+.&.:.;.&.4.^ # X 0 q 0 9 % O X * T +.^ ^ ^ ^ ^ ^ o.o.+.T * . O % 9 q q 0 O % ^ 4._ :.:.:.4.;.:.:.&.:.:.:.:.:.",
":.:.:.:.;.:.&.:.&.&.;.:.&._ :.^ $ # 8 9 9 8 ; * * > +.6.:.4.:.:.:.4.4.:.4.#.> @ % * 8 9 9 8 * > ^ :.:.:.&.:.9.6.9.4.;.:.:.:.:.:.",
":.;.:.:.:.:.:.;.:.:.:.:.&.;.:.&./ T * o O * T _ ^ ^ &.&._ ;.&.;.:.&._ :.&.&.^ W +.E * o O * T ^ _ :.;.;.2.:.4.q.4.;.:.:.:.:.:.:.",
"&.:.&.;.:.;.&.&.:.&.&.:.:.:.&._ :.^ > % * > / e.:.:.:._ :.:.:.:.:.:.&.;._ :.4.4.:.^ > % * > ^ 4.&.:.;.4.q.4.4.q.4.&.:.&.:.:.:.:.",
":.:.:.:.&.4.:.;.:.&.+.#.&._ &.&.:._ ^ ^ / ^ &.:._ :.&.:.:.:.:.&.:.:.:.4.:.4._ &.:.#.T W ^ W :._ _ :.;.:.q.4.&.:.;.:.;.:.:.:.:.:.",
":.;.4.9.6.9.4.&.:.&.+.#.+.#.+.&.:.:.:.:.6.4.:.:.:.:.:.:.:.:.:.;.:.&.:.9.6.9.:.:.:.&.#.&.#.#.+.&.:.:.:.&.;.:.:.;.:.&.:.:.:.:.:.:.",
"&.2.:.4.q.4.:.:.:.&.&.#.o.o.+.#.:.&.&._ _ ;.:.:._ :.:.:.:.:.;.:.:.2.;.4.q.4.:._ :.;.&./ W o.+.&.:.&.:.:.&.:.;.:.:.;.:.:.:.:.:.:.",
"4.q.4.4.q.4.;.:.:.:.:.&.+.o.#.:.:.;.;.:.:.:.:.:.:.:.:.:.:.:.:.&.4.q.4.:.q.:.:.:.&.:.:.&.+.o.#.&.&.:.&.:.:.:.&.:.:.:.:.:.:.:.:.:.",
":.q.4.;.:.&.&.:.:.&.&.:.#.+.&.:.&.:.:.:.:.:.:.:.:.:.:.:.:.:.:.;.4.q.4.;.:.;.:.:.:.;.;.&.#.+.&.:.&.:.:.:.:.:.:.:.:.:.:.:.:.:.:.:.",
";.;.&.:.&.:.:.:.:.:.:.:.:.&.&.:.:.&.:.:.:.:.:.:.:.:.:.:.:.:.&.:.;.:.&.:.;.:.:.:.:.:.&.:.;.&.;.:.&.:.:.:.:.:.:.:.:.:.:.:.:.:.:.:."
};
