/* XPM */
static char *_97675bedd2b4760a76497507fac0adeI5M9GUTgfOea3lC6[] = {
/* columns rows colors chars-per-pixel */
"64 64 144 2 ",
"   c #1D1427",
".  c #1E1528",
"X  c #1D1828",
"o  c #211629",
"O  c #241A2A",
"+  c #2A1D2D",
"@  c #1F272A",
"#  c #1F2A29",
"$  c #1F322B",
"%  c #21252B",
"&  c #2E222E",
"*  c #222B2C",
"=  c #28282D",
"-  c #31212F",
";  c #23352D",
":  c #29322D",
">  c #24382D",
",  c #2F2F30",
"<  c #342431",
"1  c #3C2E35",
"2  c #2E3030",
"3  c #462F38",
"4  c #473138",
"5  c #4D343B",
"6  c #51373C",
"7  c #543A3E",
"8  c #294C39",
"9  c #2B543C",
"0  c #2B5C3D",
"q  c #2C633E",
"w  c #267D36",
"e  c #4F433D",
"r  c #4C543E",
"t  c #5A3D41",
"y  c #3B5741",
"u  c #335A40",
"i  c #564441",
"p  c #5E4142",
"a  c #594A41",
"s  c #614444",
"d  c #644946",
"f  c #684C47",
"g  c #6D4E49",
"h  c #635047",
"j  c #645A47",
"k  c #645148",
"l  c #6E504A",
"z  c #6D5C49",
"x  c #74544D",
"c  c #78574E",
"v  c #735D4D",
"b  c #79584F",
"n  c #7E5750",
"m  c #7D5A50",
"M  c #6E614C",
"N  c #666A4A",
"B  c #696D4A",
"V  c #73624E",
"C  c #7D7361",
"Z  c #805B52",
"A  c #826353",
"S  c #856B55",
"D  c #8A6E57",
"F  c #8C6F58",
"G  c #8B7157",
"H  c #8D7258",
"J  c #92755A",
"K  c #95795C",
"L  c #8C6C64",
"P  c #807363",
"I  c #2C833A",
"U  c #2B8C3C",
"Y  c #30823B",
"T  c #318A3D",
"R  c #2B933B",
"E  c #279939",
"W  c #2C9D3B",
"Q  c #32943E",
"!  c #38933E",
"~  c #2CAE34",
"^  c #2CA23A",
"/  c #31A33D",
"(  c #33A93E",
")  c #2CBE35",
"_  c #33B33D",
"`  c #3EB73F",
"'  c #2DC336",
"]  c #2EC936",
"[  c #32C736",
"{  c #34CC37",
"}  c #39D236",
"|  c #40C03F",
" . c #56DB3C",
".. c #58DC3D",
"X. c #5CE43C",
"o. c #318F41",
"O. c #3B8A40",
"+. c #329441",
"@. c #3D9440",
"#. c #339E41",
"$. c #3C9C42",
"%. c #35A441",
"&. c #3AA543",
"*. c #35A941",
"=. c #3AAD40",
"-. c #37B441",
";. c #38B741",
":. c #39BB41",
">. c #449244",
",. c #549A5A",
"<. c #42A242",
"1. c #42AA4D",
"2. c #46AC51",
"3. c #4BAE56",
"4. c #4CA159",
"5. c #4DAE59",
"6. c #4AB155",
"7. c #4CB356",
"8. c #4EBD56",
"9. c #4EB059",
"0. c #5DB767",
"q. c #5FB769",
"w. c #5FB869",
"e. c #64BA6D",
"r. c #E3D7D8",
"t. c #D2E5D4",
"y. c #D0E9D3",
"u. c #D1EAD3",
"i. c #D1EDD3",
"p. c #D1EAD4",
"a. c #D5ECD7",
"s. c #E4EEE5",
"d. c #F2EFEF",
"f. c #E3F2E5",
"g. c #E4F3E6",
"h. c #E7F4E9",
"j. c #E8F4E9",
"k. c #E9F5EB",
"l. c #ECF6ED",
"z. c #EDF7EE",
"x. c #EEF7EF",
"c. c #EDFBF0",
"v. c #F0F8F1",
"b. c #FEFFFE",
/* pixels */
"%.%.%.%.%.%.%.%.%.%.%.%.%.%.%.%.%.%.&.%.%.%.%.%.%.%.%.%.%.%.%.%.%.%.%.%.%.%.%.%.%.%.%.%.%.%.%.%.%.%.%.%.%.%.%.%.%.%.%.%.%.%.%.*.",
"%.%.%.%.%.%.%.%.*.%.%.%.&.%.%.%.%.%.%.%.%.*.%.%.%.%.%.%.%.%.%.%.%.%.%.%.%.%.%.%.%.%.%.%.%.%.%.%.%.%.%.%.%.%.%.%.%.%.%.%.%.#.%.%.",
"%.&.%.*.%.%.%.%.%.%.%.%.%.%.%.%.*.%.%.%.%.%.%.%.%.%.%.%.%.%.%.%.%.%.%.%.%.%.%.%.%.%.%.%.%.*.%.%.*.%.%.%.#.%.%.%.%.%.#.%.%.%.%.%.",
"%.%.%.%.%.%.%.%.%.*.*.-.*.-.*.%.%.%.%.%.%.%.%.%.%.#.+.%.%.%.%.%.%.%.%.&.%.%.%.%.%.*.*.-.*.;.*.%.%.%.%.%.%.%.%.%.%.%.+.%.%.%.#.%.",
"%.%.%.%.%.%.%.*.-.-.*.:.:.:.%.%.%.%.%.%.%.%.%.%.%.o.+.#.+.#.+.#.%.%.%.*.%.%.%.%.;.-.*.;.:.;.*.%.%.%.%.%.%.%.%.%.#.+.+.#.+.+.+.%.",
"*.%.*.%.%.%.%.*.-.%.%.%.:.*.%.%.%.%.*.%.%.%.#.+.#.+.#.#.o.o.+.%.%.%.%.%.*.&.%.*.-.*.%.*.-.*.%.%.%.%.%.%.%.%.%.+.#.+.#.%.+.+.+.#.",
"%.%.%.&.%.%.%.%.%.+.o.%.*.%.%.%.%.%.%.%.%.%.%.+.#.%.%.%.+.o.#.%.%.%.%.%.%.%.%.%.#.+.+.%.*.%.%.%.%.%.%.%.%.%.%.+.#.%.%.#.+.+.#.*.",
"%.%.%.%.%.%.%.%.%.%.%.%.%.%.%.%.%.%.%.%.%.%.%.%.%.%.%.%.#.+.%.%.%.%.%.%.%.%.%.%.%.%.#.%.%.%.%.%.%.&.%.*.%.%.%.%.%.%.%.%.#.+.#.%.",
"%.%.%.%.%.%.%.%.%.%.%.%.%.%.%.%.%.%.%.&.%.%.%.%.%.%.%.%.%.%.%.%.%.%.%.%.%.%.%.%.%.%.%.%.%.%.%.*.*.%.%.%.%.%.%.%.%.%.%.%.%.#.%.%.",
"%.%.%.%.%.%.%.%.%.%.%.%.%.%.%.%.%.%.*.%.%.%.%.%.%.%.%.%.%.%.%.%.%.%.%.%.%.%.%.%.%.%.%.%.%.%.%.%.%.%.%.%.%.%.%.%.%.%.%.%.%.%.&.%.",
"%.%.%.%.%.%.%.%.%.%.%.%.%.%.*.%.%.%.%.%.%.%.%.%.%.%.%.%.%.%.%.%.%.%.%.%.%.%.%.%.%.%.%.%.%.%.%.*.%.%.%.%.%.%.%.%.%.%.%.%.%.%.%.%.",
"#.+.#.%.%.%.%.%.%.%.%.%.%.%.%.%.%.*.%.%.%.%.%.%.%.#.%.%.%.%.%.*.#.+.%.%.%.%.%.%.%.%.%.%.%.%.&.%.%.%.%.%.%.%.%.%.%.%.%.%.%.*.5.5.",
"%.+.#.+.#.+.#.%.%.*.%.%.%.%.%.%.%.%.%.%.%.%.%.%.#.+.#.%.%.%.%.%.#.+.#.+.+.+.#.%.%.%.%.%.%.%.%.%.%.&.*.%.%.%.#.^ E o.#.%.#.9.a.c.",
"%.%.#.o.o.+.%.%.%.%.%.%.*.%.%.%.%.%.%.%.%.%.%.%.+.+.%.%.%.%.%.%.%.%.#.o.+.+.%.%.%.%.%.%.%.*.%.%.%.%.%.%.%.%.3.5.4.4.3.5.%.&.p.c.",
"%.%.%.+.o.#.%.%.%.%.%.%.%.%.%.%.%.%.%.%.%.%.+.#.+.#.%.%.%.%.%.%.%.%.%.+.+.#.%.%.%.%.%.%.%.%.%.%.%.%.%.%.^ 3.y.l.f.f.c.p.&.*.5.5.",
"%.%.%.#.+.%.%.%.%.%.%.*.%.%.%.%.%.%.%.%.%.#.+.#.%.%.%.%.%.%.%.%.%.%.%.#.+.%.%.%.%.%.%.%.%.%.%.%.%.%.%.%.#.3.y.c.b.b.c.a.9.#.%.#.",
"%.%.%.%.#.%.%.%.%.%.%.%.%.%.%.%.%.%.%.%.%.%.%.%.%.%.%.%.%.%.%.%.%.%.%.%.%.%.%.%.%.%.%.%.%.%.%.%.%.%.*.%.%.%.1.0.j.j.q.1.&.%.%.%.",
"%.%.%.%.%.%.%.%.%.%.%.%.%.%.%.#.%.%.%.%.%.%.%.%.%.%.%.%.%.%.%.%.%.%.%.%.%.%.%.*.%.%.%.%.%.&.%.%.&.%.&.%.%.&.1.e.k.j.e.1.%.%.%.%.",
"%.%.%.%.*.-.*.;.*.*.*.;.*.#.+.%.%.%.%.%.%.%.%.%.%.%.%.%.%.%.%.%.%.%.%.%.*.-.*.-.*.%.*.-./ W R / ^ ^ %.#./ 5.a.v.b.b.v.p.9./ &.%.",
"%.%.%.%.*.;.:.;.*.-.:.;.*.%.+.%.%.%.%.%.%.%.%.%.%.%.%.%.%.%.&.%.%.%.%.%.*.-.:.;.*.-.:.:.7.5.4.9.9.9.9.6./ 3.y.l.g.g.l.p.3./ %.*.",
"%.%.%.%.%.*.;.*.%.%.-.*.-.%.%.%.%.%.%.%.%.%.%.%.%./ %.%./ %.*.%.%.%.%.%.%.%._ *.%.&._ 7.i.l.j.j.h.g.l.p.3./ 5.9.9.9.9.3.%.%.%.%.",
"%.%.%.%.%.%.%.%.+.o.%.%.*.%.%.%.%.%.%.%.%.%.%.%.%.%.$.$.$.$.$.$.$.$.$.$.%.%.%.%.+.+./ 7.p.l.j.l.b.b.v.p.5./ / / / ^ / / %.%.%.%.",
"%.*.%.%.%.%.%.%.#.o.%.%.%.%.%.%.%.%.%.%.%.%.*.*.*.&.N M M M M M M M z N $.( %.%.%.+.%.%.3.5.1.e.l.c.e.2.&.%.*.%.%.*.&.%.%.%.%.%.",
"%.%.%.%.%.%.%.%.%.%.%.%.%.%.%.%.%.%.%.%.%.%.&.&.&.>.V n m m n n n m n V >.$.$.$.$.@.%.%./ %.1.0.a.p.2.^ %.%.-.*.-.%.%.%.%.%.*.%.",
"%.%.%.%.%.%.%.%.%.%.%.%.%.%.%.%.%.%.%.%.*.&.N V M V H K J J J H m n H H V M M M v N $.%.^ 2.y.a.e.1.%./ ( %.*.-.*.%.%.%.*.%.%.&.",
"%.%.%.%.%.%.%.%.%.%.%.%.%.%.%.%.%.%.%.%.=.>.V n m m S H F F G D v x D D m n m n Z V >.&.2.e.c.l.e.2.9.6.-.%.*.-.%.%.%.%.%.%.%.%.",
"%.%.%.*.%.*.%.%.%.#.+.%.%.%.%.%.%.%.%.&.B V H H K H d p p p s p t p t f D K K H H G v C t.v.b.b.h.h.l.i.8./ &.*.%.%.%.%.%.%.%.%.",
"%.%.%.-.*.-.%.%.%.%.+.#.+.+.+.#.%.%.$.>.V m G S H m t 5 5 5 5 5 5 5 5 7 S H G G K K b L r.d.s.g.j.h.l.p.6./ %.%.%.%.%.%.%.%.%.*.",
"%.*.%.*.;.*.%.%.%.%.%.#.o.o.o.%.%.$.N V H D d p p i & O O + O + O O O & 7 p p f G K J H L P ,.9.5.5.7.3.%.%.%.%.%.%.%.%.%.&.*.%.",
"%.;.*.%.-.%.%.%.%.%.%.%.+.o.#.%.%.$.M n J F t 5 5 3 O . . . X . o o . O 3 5 5 7 G K K G b z +.^ / / / / %.%.%.%.%.*.%.%.%.%.%.%.",
"*.-.*.%.*.%.%.%.%.%.%.%.#.+.%.%.%.$.M m J S < . O O o O o o o o o o X o O O . < S K K H n M >.*.&.%.%.%.%.%.&.%.%.%.&.%.*.%.%.%.",
"%.%.%.%.%.%.%.%.%.%.%.%.%.%.%.%.%.#.M m J S 1 & O . o X o . o . o o o o o X & 1 S K J J m M $./ %.%.%.%.%.*.%.%.%.%.%.%.%.%.%.%.",
"%.%.%.%.%.%.%.%.%.%.( %.%.&.%.%.%.$.V n J J D V &   . . . . . . .         & V D J K K J Z v $.%.%.%.%.%.%.%.%.%.%.%.%.%.%.%.%.%.",
"%.%.%.%.%.%.%.%.%.%.%.%.( ( =.( *.$.j x F J K S 1 & & & & & & & - - & & & 1 D K H H H D v N $.( %.( %.%.%.%.%.%.%.%.%.%.%.%.%.%.",
"%.%.%.%.%.%.%.%.%.%.%.=...X.X. .{ ~ : < x A J K S S S D S S S S S S S S S D J J A c s a >.( %.( %.%.%.%.%.%.%.%.%.%.%.%.%.%.%.%.",
"&.%.%.( &.%.%.( &.( =.| X.X.X. .] ~ $ + h v S H K K H H K K K H K J J J J J J D b x e r ! <.>.&.&.%.%.%.%.%.%.%.%.#.+.%.%.%.#.%.",
"%.%.%.%.%.%./ %.-.:...X.} [ ^ W W R 0 9 u y i s G G s s H J m m m m m b b b b b s e >.<.B V V N ! *.%.%.%.%.%.%.#.+.+.#.+.#.+.%.",
"%.%.%.%.%.&.%.&.` `  . .[ ) ^ E W E 0 9 u y i p G G t p D J m x l l l l x c b x 7 e T ! V Z b V >.$.%.*.%.%.%.+.#.+.#.#.o.o.+.#.",
"%.&.%.*.%.( #.` .. .( W W ^ ) ' ] ~ $ & h x x v K G p p H J m x , + + < x n b x p 6 = 2 S H H H V N $./ %.%.%.+.#.%.%.%.+.o.#.%.",
"%.%.%.%.&./ %.(  . .^ E E ^ ) ] ] ~ @ O g n n m S S p p D H x s + .   + s l v x 7 4 + - S K K H n M $.*.%.%.%.#.%.%.%.%.#.+.%.%.",
"%.%.%.%.%.%.%./ / ^ ) ' ' ) ( ( *.Q % + l b v x p p g x m l < O o o o o O < x x + + 5 t G K K J n z $.%.%.%.%.%.%.%.%.%.%.#.%.%.",
"%.%.%.%.%./ %.%.R W ' [ ] ' %.%.%.Q % + g b c x t t x m m g < o o o o o o - l l + O 5 p S H S S V N $.%.%.%.%.%.%.%.%.%.%.%.%.%.",
"%.%.%.%.%.%.%.%.%./ ( ( / *.%./ *.Q @ + g n b x t t x m v x 6 3 O o X O 3 7 x l + o 5 t t 7 < , O.&.%.%.%.%.%.%.%.%.%.%.%.%.%.%.",
"%.+.#.%.%.%.%.%.%.%.%.%.%.%.%.%.*.Q @ + g x c x t t x x n x s 6 & O O & 7 s x g - + 5 5 5 5 = > +.%.%.%.%.%.%.%.%.%.%.%.%.%.%.%.",
"#.+.#.+.#.+.%./ %.%.( %.%.%.%./ %.Q % O 7 p x x 7 t x m v x x g 6 5 6 6 l x c x 7 4 & O O = I +.%.%.%.%.%.%.%.%.#.+.%.*.%.%.%.%.",
"%.%.%.o.o.o.%.&.%.%.%.%.%.%.%.%.*.Q > = 3 7 x x t t x x n n m x s t 7 t x n c x p 7 O X % > Q *.%.%.%.%.%.%.%.#.+.o.%.%.%.%.%.%.",
"%.%.%.o.o.#.%.%.%.%.%.%.%.%.&.%.%.%.Q Y * - x x t t x m x n n x x l 7 t x c n x b f + % w +.%.%.%.%.%.%.%.%.+.#.+.#.%.%.%.%.%.%.",
"%.%.%.#.+.%.%.%.%.%.%.%.%.%.%.%./ %.*.Q % + s g t t l x b x v x b c p p x c x x l d + % ! =.%./ %.%.%.%.%.%.+.#.%.%.%.%.%.%.%.%.",
"%.%.%.%.%.%.%.%.%.%.%.%.%.%.%.%.%.%.%.Q % o & & 6 t 7 s x b v n c c x x c x p 7 < + o * Q %.%.%.%.%.%.%.%.%.%.%.%.%.%.%.%.%.%.%.",
"%.%.%.%.%.%.%.%.%.%.%.*.%.%.%.%.%.%.%.Q % o . O 3 5 7 7 x x n x c c c c x g t 3 o   o % Q &.W %.%.%.%.%.%.%.%.%.%.%.%.%.%.%.%.%.",
"%.%.%.%.*.-.*.-.*.%.*.-.*.#.+.%./ %.*.+.%   o X O + 6 t x m n m b c n x p t - O o X . % Q %.+.%.%.%.%.%.%.%.%.%.%.%.%.%.%.%.*.%.",
"%.%.%.%.*.:.:.;.*.-.:.;.*.%.+.#.%.%.#.I > % O O . O 5 7 g x x x b x x d t 3 O X O % % ; T Q +.%./ %.%.%.*.%.%.%.%.%.%.%.%.&.%.%.",
"%.%.%.%.%.*.-.*.%.*.-.*.-.%.%.%.*.+.; * w I 0 8 O o O & 7 t t t x c p t & O o O 8 9 I w ; ; +.*.%.%.%.%.%.%.%.%.%.%.%.%.%.%.%.%.",
"%.%.%.%.%.%.*.%.+.+.%.%.%.%.%.%.W I ; # I U q 9 * O X o 5 6 5 6 k g t 3 O X o * 9 q U I $ # I Q %.%.%.%.%.%.%.%.%.%.%.%.%.*.%.%.",
"%.%.%.%.%.%.%.%.#.+.%.%.%.%.%.R $ # w U q q u 0 9 8 O . O O O + + + . o . O 8 9 0 0 q q U w ; > Q %./ %.%.%.%.%.*.%.%.%.%.%.%.%.",
"%.%.%.%.%.%.%.%.%.%.%.%.%.%.%.Q @ @ I U 0 9 9 9 9 8 ; % % % % * @ @ % % @ $ 8 9 9 9 9 q U I X % Q %.%.%.%.*.-.*.-.%.%.%.%.*.%.&.",
"%.%.%.%.%.%.%.%.%.%.%.%.%.%.%.Q = O 0 q 0 9 % O o * Y Q Q Q Q Q +.Q Q Q Q I * O o = 9 u q 0 O @ R %.%.%.*.%.=.-.*.%.%.*.%.%.%.%.",
"%.%.%.%.%.%.%.%.%.%.%.%.%.%.%.Q > * 8 9 9 8 * * % > +.*.%.*.%.*.%.%.%.*.*.Q > % * * 8 9 9 8 * > +.*.%.%.-.*.%.-.%.%.%.%.%.%.%.%.",
"%.%.%.*.%.*.%.%.%.#.+.%.%.%.%.%.W Y * o X * Y Q Q Q %./ %./ %./ %.%.%.%.%.%.Q Q Q I * O X * I Q %.%.%.*.-.*.%.*.%.%.%.%.%.%.*.%.",
"%.%.%.-.*.-.*.%.%.#.+.#.+.#.Q #.*.Q > % % > #.*.%.*.%.%.%.&.%.%.%.%.%.-.*.-.*.%.*.Q ; % @ ; o.%./ %.%.%.%.%.%.%.%.%.%.%.%.&.%.%.",
"%.%.%.*.-.*.%.%.%.%.%.#.o.o.o.#.( #.Q Q Q Q #.%.%.%.%.%.%.%.%.%.%.*.%.*.-.*./ %.%.%.Q T O.w o./ &.%.( %.%.%.%.%.%.%.%.*.%.%.%.%.",
"*.-.%.*.-.%.%.%.%.%.%.%.+.o.#.%.%.%.&.%.( &.%.( %.%.%.%.%.%.%.%.*.-.*.%.-.*.%.%.%.%.%.%.+.+.#.%.%.%.%.%.%.%.%.%.%.%.%.%.%.*.%.%.",
"*.-.*.%.%.%.%.%.%.%.%.%.#.+.%.%.%.%.%.%.%./ %.%.( %.%.%.%.%.%.%.%.-.*.%.%.%.%.%.%.%.%.%.+.+.#.%.%.%.%.%.%.%.%.*.&.%.%.%.%.%.%.%.",
"%.%.%.%.%.%.%.%.%.%.%.%.%.%.%.%.%.%.%.%.%.%.%.%.%.%.&.%.%.*.%.%.%.%.%.%.%.%.%.%.%.%.%.%.%.%.%.%.%.%.%.%.%.%.%.%.%.%.%.%.%.*.%.&."
};
