/* XPM */
static char *_3009012e3ad4223a1f5bfa66681b298srHOqTzkSBRH3mSO[] = {
/* columns rows colors chars-per-pixel */
"64 64 141 2 ",
"   c #1D1427",
".  c #1E1528",
"X  c #1D1828",
"o  c #211629",
"O  c #241A2A",
"+  c #2A1D2D",
"@  c #1F272A",
"#  c #1F2A29",
"$  c #1F322B",
"%  c #21252B",
"&  c #2E222E",
"*  c #222B2C",
"=  c #28282D",
"-  c #31212F",
";  c #23352D",
":  c #24382D",
">  c #2F2F30",
",  c #342431",
"<  c #3C2E35",
"1  c #2E3030",
"2  c #462F38",
"3  c #473138",
"4  c #4D343B",
"5  c #51373C",
"6  c #543A3E",
"7  c #294C39",
"8  c #2B543C",
"9  c #2B5C3D",
"0  c #2C633E",
"q  c #267D36",
"w  c #4F433D",
"e  c #4C543E",
"r  c #5A3D41",
"t  c #3B5741",
"y  c #335A40",
"u  c #564441",
"i  c #5E4142",
"p  c #594A41",
"a  c #614444",
"s  c #644945",
"d  c #684C47",
"f  c #674B48",
"g  c #6D4E49",
"h  c #635047",
"j  c #645A47",
"k  c #6E504A",
"l  c #6E5D4B",
"z  c #74544D",
"x  c #78574E",
"c  c #735D4D",
"v  c #79584F",
"b  c #7E5750",
"n  c #7D5A51",
"m  c #646747",
"M  c #6E614C",
"N  c #67694A",
"B  c #666A4A",
"V  c #73624E",
"C  c #805B52",
"Z  c #826353",
"A  c #856B55",
"S  c #8A6E56",
"D  c #8C6F58",
"F  c #8B7157",
"G  c #8D7258",
"H  c #92755A",
"J  c #95795D",
"K  c #8D6A64",
"L  c #987F6A",
"P  c #2C833A",
"I  c #2B8C3C",
"U  c #30823B",
"Y  c #318A3D",
"T  c #2A943B",
"R  c #279939",
"E  c #2B9D3A",
"W  c #32943E",
"Q  c #309F3D",
"!  c #2CAE34",
"~  c #2CA239",
"^  c #30A33D",
"/  c #33AA3E",
"(  c #2CBE35",
")  c #32B23C",
"_  c #3EB73F",
"`  c #2DC336",
"'  c #2EC936",
"]  c #32C736",
"[  c #34CC37",
"{  c #39D236",
"}  c #40C03F",
"|  c #56DB3C",
" . c #58DC3D",
".. c #57E13C",
"X. c #5CE43C",
"o. c #318F41",
"O. c #3A8B41",
"+. c #329441",
"@. c #339E41",
"#. c #3C9C42",
"$. c #35A441",
"%. c #3AA543",
"&. c #35A941",
"*. c #3AAC41",
"=. c #37B441",
"-. c #38B741",
";. c #39BA41",
":. c #448845",
">. c #459244",
",. c #439F51",
"<. c #42A242",
"1. c #43AB4E",
"2. c #46AC51",
"3. c #4BAE56",
"4. c #4DAE58",
"5. c #4DB656",
"6. c #4EB059",
"7. c #5DB767",
"8. c #5FB769",
"9. c #64B66E",
"0. c #64BA6D",
"q. c #9E866D",
"w. c #DFDDDA",
"e. c #CCE8CF",
"r. c #CFE5D3",
"t. c #D0E9D3",
"y. c #D1EAD3",
"u. c #D5ECD7",
"i. c #E6E0DC",
"p. c #E8E3DD",
"a. c #E3F2E5",
"s. c #E4F3E6",
"d. c #E7F4E9",
"f. c #EBF5EC",
"g. c #ECF6ED",
"h. c #EDF7EE",
"j. c #EEF7EF",
"k. c #EFF6F0",
"l. c #EFF8F0",
"z. c #F0F8F1",
"x. c #FFFFFF",
/* pixels */
"$.$.$.$.$.$.$.$.&.$.$.$.$.$.$.$.$.$.$.$.&.$.$.$.$.$.$.$.$.$.$.$.$.$.$.$.$.$.$.$.$.$.$.$.$.$.$.$.$.$.$.$.$.$.$.$.$.$.$.$.$.$.$.$.",
"$.$.$.$.$.$.$.$.$.$.$.$.$.%.$.$.$.$.$.$.$.$.$.$.$.$.$.$.$.$.$.$.$.$.$.$.$.$.$.$.$.$.$.$.$.$.$.$.$.$.$.$.$.$.$.$.$.$.$.$.$.$.$.$.",
"$.%.$.&.$.$.$.$.$.$.$.$.$.$.$.$.$.$.$.$.$.$.$.$.$.$.$.$.$.$.$.$.$.$.$.$.$.$.$.$.$.$.$.&.$.&.$.$.$.$.$.$.$.$.$.$.$.$.$.$.$.$.$.$.",
"$.$.$.$.$.$.$.$.$.&.&.=.&.=.&.$.&.$.%.$.$.$.$.$.$.#.+.$.$.$.$.$.$.$.$.$.$.$.$.$.&.$.&.=.&.=.&.$.$.&.$.$.$.$.$.$.$.@.+.$.$.$.@.$.",
"$.$.$.$.$.$.$.&.=.=.&.=.;.;.$.$.$.&.$.$.$.$.$.$.$.+.+.@.+.@.+.$.$.$.$.&.$.$.$.$.-.=.&.=.;.=.&.$.$.$.$.$.$.$.$.$.$.o.o.@.+.@.+.$.",
"&.$.%.&.$.$.$.&.=.$.$.&.;.&.$.$.$.$.$.$.$.$.@.+.@.+.@.$.o.o.+.$.$.$.$.%.$.&.$.&.=.$.$.&.-.&.$.$.$.$.%.$.$.$.$.+.@.o.$.@.o.o.o.@.",
"$.$.$.$.$.$.$.$.$.+.o.$.&.$.$.$.$.$.$.$.$.$.$.+.@.$.$.$.+.o.@.$.$.$.$.$.$.$.$.$.$.+.+.$.&.$.$.$.$.&.$.$.$.$.$.+.$.$.$.$.o.o.$.$.",
"$.$.$.$.$.$.$.$.$.$.$.$.$.$.$.$.$.$.$.$.$.$.$.$.$.$.$.@.@.+.@.$.$.$.$.$.$.$.$.$.$.@.$.$.$.$.$.$.$.$.$.$.$.$.$.$.$.$.$.$.$.o.$.$.",
"$.$.$.$.$.$.$.$.$.$.$.$.$.$.$.$.$.$.$.$.$.$.$.$.$.$.$.$.$.$.$.$.$.$.$.$.$.$.$.$.$.$.$.$.$.$.$.$.$.$.$.$.$.$.$.$.$.$.$.$.$.$.$.$.",
"$.$.$.$.$.$.$.$.$.$.$.$.$.$.$.$.$.$.&.$.$.$.$.$.$.$.$.$.$.$.$.$.$.$.$.$.$.$.$.$.$.$.$.$.$.$.$.$.$.$.$.$.$.$.$.$.$.$.$.$.$.&.$.$.",
"$.$.$.$.$.$.$.$.$.$.$.&.$.$.$.$.$.$.$.$.$.$.$.$.$.$.$.$.$.$.$.$.$.$.$.$.$.$.$.$.$.$.$.$.$.&.$.$.&.$.$.$.$.$.$.$.@.@.@.@.$.$.$.$.",
"@.+.@.$.$.$.$.$.$.$.$.$.$.&.$.$.$.$.&.$.$.$.$.$.$.$.$.$.$.$.$.$.$.o.$.$.$.$.$.$.$.$.$.$.$.$.$.$.$.$.$.$.$.$.$.$.3.4.5.3.&.$.$.$.",
"$.+.@.+.+.+.$.$.$.$.$.$.$.$.$.&.$.$.$.$.$.$.$.$.@.+.$.$.$.$.$.$.@.+.@.+.@.+.@.$.$.$.$.$.$.$.&.$.$.$.$.$.$.$.$.3.t.d.d.e.%.@.$.$.",
"$.$.@.o.o.+.$.$.$.%.$.&.$.$.$.$.$.$.$.$.$.$.$.$.o.o.$.$.$.$.$.$.$.$.@.o.o.o.$.$.$.$.$.$.$.&.$.$.$.%.%.&.$.$.~ 3.r.k.x.d.0.6.&.$.",
"$.$.$.+.+.@.$.$.$.$.$.$.$.$.$.$.$.$.$.$.$.$.+.@.o.@.$.$.$.$.$.$.$.$.$.o.o.$.$.$.$.$.$.$.$.$.$.@.~ $.@.~ $.@.+.@.%.9.f.x.z.r.6.@.",
"$.$.$.@.+.$.$.$.$.$.$.$.$.$.$.$.$.$.$.$.$.@.o.$.$.$.$.$.$.$.$.$.$.$.$.@.+.$.$.$.$.$.$.$.$.$.3.6.6.6.6.6.6.3.+.@.@.4.r.d.j.u.-.$.",
"$.$.$.$.$.$.$.@.$.$.$.$.$.$.$.$.$.$.$.$.$.$.@.$.$.$.$.$.$.$.%.$.$.$.$.$.$.$.$.$.$.$.$.%.^ 4.t.k.d.d.s.a.l.t.3.~ / %.3.4.6.6.&.$.",
"$.$.$.$.$.$.$.$.$.$.$.$.$.$.$.$.$.$.&.$.$.$.&.$.$.$.$.$.$.$.$.$.$.$.$.$.$.&.$.$.$.$.$.&.^ 4.t.k.d.k.x.x.l.t.6.~ $.$.@.$.~ ^ $.$.",
"$.$.$.$.&.-.&.-.&.&.&.=.&.$.+.@.$.$.$.$.$.$.$.$.$.$.$.$.$.$.$.$.$.$.$.$.$.=.&.;.&.$.&.=.$.$.,.4.2.8.k.j.0.2.%.$.&.$.%.$.$.$.$.$.",
"$.$.$.$.&.-.;.-.&.=.;.-.&.@.+.$.$.$.$.$.$.$.$.$./ %.$.$.$.$.$.$.$.$.$.$.&.=.;.=.&.=.;.=.&.$.T $.1.7.u.t.3.~ $.$.$.$.$.$.$.$.$.$.",
"$.$.$.$.$.&.-.&.$.$.=.&.=.$.$.$.$.$.$.$.$.$.$.$.$.^ $.$.$.$.$.$.$.$.$.$.^ &.=.&.$.$.=.&.-.&.E 2.t.u.7.1.$.~ $.$.$.$.$.$.$.$.&.$.",
"&.$.$.$.$.@.&.$.+.+.$.$.$.$.$.$.$.$.$.$.$.$.$.$.$.$.#.#.#.#.#.#.#.#.#.#.$.$.$.$.+.+.$.$.$.&.2.0.l.f.7.2.6.3.%.$.$.$.$.$.$.$.$.$.",
"$.$.$.$.$.$.$.$.@.+.$.$.$.$.$.$.$.$.$.$.$.$.$.$.&.%.B l M M M M l V M B #.&.$.$.@.+.$.$.Q 6.t.j.x.x.j.d.l.t.3.~ &.$.$.$.&.$.$.%.",
"$.$.$.$.$.$.$.$.$.@.$.$.$.$.$.$.$.$.$.$.$.&.%.%.%.>.V n v n n n x x v V >.#.#.#.#.#.%.$.~ 4.t.f.a.s.d.d.j.t.5.) =.$.$.$.$.$.$.$.",
"$.$.$.$.$.$.$.$.$.$.$.$.$.$.$.$.$.$.$.$.&.%.B V M V G H H H H G n n G G V M M M V B %.$.$.%.4.4.6.6.6.6.5.3.*.=.&.$.$.$.&.$.$.$.",
"$.$.$.$.$.$.$.$.$.$.$.$.$.$.$.$.$.$.$.$.*.>.V b n n S G S F F S x z S S n n n n K V >.#.$.$.@.$.^ ^ ^ ^ ) ^ $.=.$.$.$.$.$.$.$.%.",
"$.$.$.&.$.&.$.$.$.$.+.@.$.$.$.$.$.$.&.%.B V G H H F f i i i i i i i i s S H G q.i.w.A m #.&.$.$.$.$.$.&.=.&.$.&.$.$.$.$.$.$.$.$.",
"$.$.$.=.&.=.&.$.$.$.+.@.+.@.o.@.$.$.#.>.V n S G G n r 4 4 4 4 4 4 4 4 5 A G A q.p.p.K c :.+.+.$.$.$.$.$.$.$.$.$.$.$.$.$.$.$.$.&.",
"$.&.$.&.=.&.$.$.$.$.$.@.o.o.o.$.$.#.B V G S s r i u & O O + + + + O O & 6 a i f L q.H S c B O.$.$.$.$.$.$.$.$.$.$.$.$.$.$.&.$.$.",
"&.=.&.$.=.&.$.$.$.$.$.$.o.o.@.$.@.#.l n G G r 4 4 2 O . o . . . . o . O 2 4 4 6 S H J H n l #.$.$.$.$.$.$.$.$.$.$.$.&.%.$.$.$.%.",
"&.=.&.$.$.$.$.$.$.$.$.$.@.+.$.$.&.#.M n H A , o + + . o o o X o o o o o O + o - A J H H n l #.$.$.$.$.$.$.%.&.$.$.$.$.$.$.&.$.$.",
"$.$.$.$.$.$.$.$.$.$.$.$.$.$.$.$.$.#.M v H S < % X . X o . o o o o . X o o o & < A L H G n M #.$.$.$.$.$.$.$.$.$.$.$.$.$.$.$.$.$.",
"$.$.$.$.$.$.$./ $.$.$./ $.$.$.$.&.>.V C H H S c +   X . . . X . . . . .   & c S H H J H C c #.$.$.$.$.%.$.$.$.$.$.$.$.$.$.$.$.$.",
"$.$.$.$.$.$.$.%.%./ $.%.*.*./ *./ W j z S H L F < & & , & & & & & & & - & < S J H H G S V m %./ $./ $.$.$.$.$.$.$.$.$.$.$.$.$.$.",
"$.$.$.$.$.$.$.$.^ $.$.*. .X.X.| [ ! ; - z Z G H A A A A A A S A A A A A A A H G Z v d w >./ / / $.$.^ $.$.$.$.$.$.$.$.$.$.$.$.$.",
"$.$./ %.$.$.$.$.$.%./ } ..X.X.| [ ! $ & s c S F J H G G J J H G H H H H H H H G v z w e W <.>.>.%.$.$.$.$.$.$.$.$.@.+.$.$.$.@.$.",
"$.$.$.$.$.$.^ $.=._  .X.{ ] ~ E ~ T 9 7 y t u a G G a s G H n n C v V v v v v v a p W <.B V V B #.^ $.$.$.$.$.$.@.+.+.@.+.+.+.$.",
"%.$.$.$.%.$.$.&.;._ | ..` ( ~ E ~ T 9 8 y t r i F G r i S H n z z g z g x x v z 6 w Y :.V n v V >.#.$.&.$.$.@.+.@.+.@.@.+.o.+.$.",
"$.&.$.$.$./ %.*.| | / E E E ( ` ` ! $ = h l z v H F i r G H Z k - & & - k v v z r 5 * 1 A H G F V B #.^ $.$.$.+.@.$.$.$.+.o.@.$.",
"$.$.$.$.$.%.^ / | | ~ R E ~ ( ` ' ! # + k n x n S A i i S G z i +     + s z x z 6 3 + - A J J G n V #.$.$.$.$.$.$.$.$.$.@.+.$.$.",
"$.$.$.$.$.$.$.^ ^ ~ ` ` ` ` / / &.T * + g v z z i i z z n z , + o o X o + , z k - + 2 r G J J H v M #.$.$.$.$.$.$.$.$.$.$.@.$.$.",
"$.$.$.$.$.$.$.$.T E ( ] ` ( / @.&.W % + g v v z r 6 z v n g & . X o o o o - k k + o 5 a Z G A A V B #.$.$.$.$.$.$.$.$.$.$.$.$.$.",
"$.$.$.$.%.^ $.$.$.^ &./ / &.$.$.&.W % + k n v z r r z n z z 5 2 O o X + 2 6 z k + o 5 6 i r , > O.>.$.$.$.$.$.$.$.$.$.$.$.$.$.$.",
"$.+.@.$.$.$.$.$.$.$.$.$.$.$.$./ &.W % + d z v z r r z z x z a r & O O + 5 a z g - + 4 5 4 3 = : +.&.$.$.$.$.$.$.$.$.$.$.$.$.$.$.",
"$.+.@.+.@.+.@.$.$.^ $.$./ $.$.$.$.W % O 5 a z z r r z n z n z k 5 4 5 5 k z x z 6 2 + + o = U W &.$.$.$.$.$.$.$.@.+.$.$.$.$.$.$.",
"$.$.@.o.o.o.$.$.$.$.$.$.$.$.$.^ $.W : = 4 5 z z r 6 z z x z n z a 6 6 i z v x z a 5 O X % : W &.$.$.$.$.$.$.$.@.o.+.$.$.$.$.$.$.",
"$.$.$.+.o.@.$.$.$.$.$.$.$.$.$.$.$.$.W U * - z z r r z n x x x x x k 6 6 z v v x x d + % U W ^ $.$.$.@.$.$.$.+.@.+.@.&.$.$.$.$.$.",
"$.$.$.@.+.$.$.$.$.$.%.$.$.$.$.$.$.$.*.W % O s g r r k z z n x x v x i i z x z z z a + % W &.%./ $.$.$.$.$.$.+.@.$.$.$.$.$.$.$.$.",
"$.$.$.$.$.$.$.$.$.$.$.$.$.$.$.$.$.$.$.Y * o + , 4 r r i z x z x x x z z b z r r , + o % W $.^ $.~ $.&.$.$.$.$.$.$.$.$.$.$.&.$.$.",
"$.$.$.$.$.$.$.$.$.$.$.$.$.$.$.$.%.~ $.W * . . O 3 4 5 r z x n z x v x x z g r 3 O . o * W %.@.$.$.$.$.$.$.$.$.$.$.$.$.$.$.$.$.$.",
"$.$.$.$.&.=.&.=.&.$.&.=.&.@.+.$./ $.&.W %   o . O + 4 i z n x n v x n z i r & O o o   % W $.+.$.$.$.$.$.$.$.$.$.$.$.$.$.$.&.$.$.",
"$.$.$.$.&.;.;.;.&.=.;.;.&.@.+.$.$.@.@.P : % O O o O 3 6 g z z z x x z g 4 2 O X % O % : I W o.$.$.$.$.$.$.$.$.$.$.$.$.$.$.$.$.%.",
"$.$.$.$.$.&.=.&.$.$.=.&.=.$.$.$.&.@.; * q P 8 7 O o O & 6 r r a z v i r & O . O 7 9 P q $ ; +.$.$.$.$.$.$.$.$.$.$.$.$.$.$.$.$.$.",
"$.$.$.$.$.$.$.$.+.+.$.$.$.$.$.$.T P * ; P I 0 8 * O . o 4 5 4 5 f f r 2 O . o * 7 0 I P $ # P @.$.$.~ $.$.$.$.$.$.$.$.$.$.$.$.&.",
"$.$.$.$.$.$.$.$.@.+.$.$.$.$.$.W $ $ q P 0 0 y 9 8 7 X o o o + O + + . o . O 7 8 9 9 0 0 P q ; ; W $.$.$.&.$.&.$.$.$.$.$.$.$.$.$.",
"$.$.$.$.$.$.$.$.$.$.$.$.$.$.&.T @ @ P I 0 8 8 8 8 8 ; % % * % % % @ @ * # $ 7 8 8 8 8 9 I P @ % W $.$.$.$.$.-.&.=.&.$.&.$.$.$.%.",
"$.$.$.$.$.$.$.$.$.$.$.$.$.$.$.W % o 9 0 y 8 = . o * P +.W W W W +.W W W W P * o o % 8 0 0 9 O * W &.$.$.&.$.&.=.&.$.$.$.$.$.$.$.",
"$.$.$.$.$.$.$.$.$.$.$.$.$.$.$.W : * 7 8 8 7 * * % : W &.$.&.$.&.$.$.$.&.&.W : % * * 7 8 8 7 * : W $.$.&.=.$.&.=.$.$.$.$.$.&.$.$.",
"$.$.$.$.$.$.$.$.$.$.+.@.$.$.$.$.@.P * . X * P W W W $.^ $.$.$.^ $.$.$.$.$.$.W W W P * O O * q +.@.$.$.&.=.&.$.&.$.$.$.$.$.%.$.$.",
"$.$.&.=.&.=.&.$.$.@.+.@.+.@.W @.*.W : % % : $.&.&.$.%.^ $.$.$.$.$.$.$.=.&.=.&.&.&.W ; % % ; O.$.$.$.$.$.$.$.$.$.$.$.$.$.$.$.&.$.",
"$.&.$.&.=.&.$.$.$.$.$.@.o.o.o.$.%.Q W W Y W @./ $.$.$.$.$.$.$.$.$.$.$.&.=./ $.^ $.Q W Y O.q o.@./ $.$.$.$.$.$.$.$.$.$.$.$.$.$.&.",
"&.=.$.&.=.&.$.$.$.$.$.@.+.o.@.$.^ $.%.&.&./ %.$.$.$.$.$.$.$.$.$.&.=.&.$.=.&.$.%.$.$.%.$.+.+.@.^ $.$.$.$.$.$.$.$.$.&.$.$.$.$.$.$.",
"&.=.&.$.$.$.$.$.$.$.$.$.@.+.$.^ $.$.$.$.$./ $.$./ $.$.%.$.&.$.$.&.=.&.$.$.$.$.$.$.$.$.$.@.o.$.$.$.$.$.$.$.$.$.$.$.$.$.$.$.$.$.$.",
"$.$.$.$.$.$.$.$.$.$.$.$.$.$.$.$.$.$.$.$.$.$.$.$.$.$.$.$.$.$.$.$.$.$.$.$.$.$.$.$.$.$.$.$.$.$.$.$.$.$.$.$.$.&.$.$.$.%.$.$.&.%.$.$."
};
