/* XPM */
static char *_13a0661e91b444e9827f057a6b6a320gcU2LBeFAV09lgJa[] = {
/* columns rows colors chars-per-pixel */
"64 64 146 2 ",
"   c #1D1427",
".  c #1E1528",
"X  c #1E1828",
"o  c #211629",
"O  c #241A2A",
"+  c #2A1D2D",
"@  c #1F272A",
"#  c #1F2A29",
"$  c #1F322B",
"%  c #21252B",
"&  c #2E222E",
"*  c #222B2C",
"=  c #28282D",
"-  c #31212F",
";  c #23352D",
":  c #24382D",
">  c #2F2F30",
",  c #342431",
"<  c #3C2E35",
"1  c #2E3130",
"2  c #462F38",
"3  c #473138",
"4  c #4C333B",
"5  c #51363C",
"6  c #543A3E",
"7  c #294C39",
"8  c #2B543C",
"9  c #2B5C3D",
"0  c #2C633E",
"q  c #267D36",
"w  c #4F433D",
"e  c #4C513E",
"r  c #5A3D41",
"t  c #3B5741",
"y  c #335A40",
"u  c #554440",
"i  c #5E4142",
"p  c #594C41",
"a  c #614444",
"s  c #654946",
"d  c #684C47",
"f  c #6D4E49",
"g  c #635047",
"h  c #645A47",
"j  c #645148",
"k  c #6E504A",
"l  c #6F5F49",
"z  c #74544D",
"x  c #78574E",
"c  c #725E4D",
"v  c #79584F",
"b  c #7E5750",
"n  c #7D5A50",
"m  c #67664B",
"M  c #6E614C",
"N  c #666A4A",
"B  c #73624E",
"V  c #756350",
"C  c #815B52",
"Z  c #826353",
"A  c #856B55",
"S  c #8A6E57",
"D  c #82675D",
"F  c #8C6F58",
"G  c #8B7157",
"H  c #8D7258",
"J  c #91755A",
"K  c #95795C",
"L  c #8A6C62",
"P  c #987F79",
"I  c #2C833A",
"U  c #2B8C3C",
"Y  c #31833C",
"T  c #3F813F",
"R  c #318A3E",
"E  c #2B933B",
"W  c #279939",
"Q  c #2C9D3B",
"!  c #32943E",
"~  c #309F3D",
"^  c #39983E",
"/  c #2CAE34",
"(  c #2CA23A",
")  c #30A33D",
"_  c #33AA3E",
"`  c #2CBE35",
"'  c #3DB13F",
"]  c #3EB83F",
"[  c #2DC336",
"{  c #2EC936",
"}  c #32C736",
"|  c #33CB36",
" . c #39D236",
".. c #57D63D",
"X. c #56DC3C",
"o. c #58DC3D",
"O. c #57E13C",
"+. c #5BE43C",
"@. c #318F41",
"#. c #3B8C40",
"$. c #329441",
"%. c #3F9242",
"&. c #339E41",
"*. c #3C9C42",
"=. c #35A441",
"-. c #39A544",
";. c #35A941",
":. c #38AA41",
">. c #37B441",
",. c #38B641",
"<. c #34B840",
"1. c #39BB41",
"2. c #459244",
"3. c #409F41",
"4. c #449D54",
"5. c #52995A",
"6. c #42AB4D",
"7. c #49A156",
"8. c #46AD52",
"9. c #4BAE56",
"0. c #4DA05A",
"q. c #4EAC5A",
"w. c #55A558",
"e. c #4AB056",
"r. c #4EB059",
"t. c #4FB05A",
"y. c #5FB769",
"u. c #65BA6E",
"i. c #DED5D3",
"p. c #CCE7CF",
"a. c #CCE8CF",
"s. c #CFECD3",
"d. c #D0E7D3",
"f. c #D1EAD3",
"g. c #D1EAD4",
"h. c #F1EEED",
"j. c #E3F2E5",
"k. c #E7F4E8",
"l. c #E7F4E9",
"z. c #E9F5EB",
"x. c #ECF4ED",
"c. c #ECF6ED",
"v. c #F7EFF2",
"b. c #EFF8F0",
"n. c #F1F9F2",
"m. c white",
/* pixels */
"=.=.=.=.-.=.;.=.=.=.=.=.=.=.=.=.=.=.=.=.=.=.=.=.=.=.=.=.=.=.=.=.=.=.=.=.=.=.=.=.=.=.=.=.=.=.=.=.=.=.=.=.=.=.=.=.=.=.=.=.=.=.=.=.",
"=.=.=.=.=.=.=.=.=.=.=.=.=.=.=.=.-.=.;.=.=.=.=.=.=.=.=.=.=.=.=.=.=.=.=.=.=.=.=.=.=.=.=.=.=.=.=.=.=.=.=.=.=.=.=.=.=.=.=.=.=.=.=.=.",
"=.-.=.=.=.=.=.=.=.=.=.=.=.=.=.=.=.=.=.;.=.=.=.=.=.=.=.=.=.=.=.=.=.=.=.=.=.=.=.=.=.=.=.-.=.;.-.=.=.=.=.=.=.=.=.=.=.=.&.=.=.=.=.=.",
"=.=.=.;.=.=.=.=.;.=.;.>.:.>.;.=.=.=.=.=.=.=.=.=.=.&.$.=.=.=.=.=.=.=.=.=.;.=.=.=.=.=.;.,.;.<.;.=.=.=.=.=.=.=.=.=.=.&.$.=.=.=.=.=.",
"=.=.=.=.-._ =.=.>.>.;.>.1.1.=.=.=.=.=.=.=.=.=.=.=.$.$.&.$.&.$.&.=.=.=.=.=.=.-.;.>.>.;.<.1.>.;.=.=.;.;.=.=.=.=.=.&.$.$.&.$.$.$.=.",
"=.=.=.=.=.=.=.=.>.=.=.;.1.;.=.=.=.=.=.=.=.=.&.$.&.$.&.&.@.@.$.=.=.=.=.=.=.=.=.;.>.;.=.;.<.;.=.=.=.=.=.=.=.=.=.$.&.$.&.&.@.@.$.=.",
"=.=.=.=.=.=.=.=.=.$.@.=.;.=.=.=.=.=.=.=.=.=.=.$.&.=.=.=.@.@.&.=.=.=.=.=.=.=.=.=.=.@.$.=.;.=.-.=.=.-.=.=.=.=.=.$.&.=.=.=.$.@.&.=.",
";.=.-._ =.=.=.=.=.=.=.=.=.=.=.=.=.=.=.=.=.=.=.=.=.=.=.=.&.$.=.=.=.=.=.=.=.=.=.=.=.=.&.=.=.=.=.=.=.=.=.=.=.=.=.=.=.=.=.=.&.$.=.=.",
"=.=.=.=.=.=.=.=.=.=.=.=.;.=.=.=.=.=.=.=.;.=.=.=.=.=.=.=.=.=.=.=.=.=.=.=.=.=.=.=.=.=.=.=.=.=.=.=.-.=.=.=.=.=.=.=.=.=.=.=.=.&.=.=.",
"=.=.=.=.=.=.=.=.=.=.=.=.=.=.=.=.=.=.=.=.=.=.=.=.=.=.=.=.=.=.=.=.=.=.=.=.=.=.=.=.=.=.=.=.=.=.=.=.=.=.=.=.=.=.=.=.=.=.=.=.=.;.=.=.",
"=.=.=.=.=.=.=.=.=.=.=.=.=.;.=.=.=.;.=.=.=.=.=.=.=.=.=.=.=.=.=.=.=.=.=.=.=.=.=.=.=.=.=.=.=.;.=.=.=.=.=.=.=.=.=.=.=.=.&.&.=.&.=.=.",
"&.$.&.=.=.=.=.=.=.=.=.=.=.=.=.=.=.=.=.=.=.=.=.=.=.=.=.=.=.=.=.=.&.$.=.=.=.=.=.=.=.=.=.=.=.=.=.=.=.=.=.=.=.=.=.=.=.-.e.r.e.e.;.=.",
"=.@.&.$.&.$.&.=.=.-.;.=.=.=.=.=.=.=.=.=.=.=.=.=.&.$.=.=.=.=.=.=.=.$.&.$.&.$.&.-.=.=.=.=.=.=.=.=.=.;.=.=.=.=.=.=.Q 7.p.k.l.a.9.( ",
"=.=.=.@.@.$.=.=.=.=.=.=.=.=.;.=.=.=.=.=.=.=.=.=.@.@.=.=.=.-.=.=.=.=.&.@.@.$.=.=.=.=.=.=.=.=.=.=.-.=.-.=.=.=.=.=.U 0.k.m.m.l.r.( ",
"=.=.=.@.@.&.=.=.=.=.=.=.=.=.=.=.=.=.=.=.=.=.$.&.$.&.=.=.=.=.=.=.=.=.&.$.@.&.=.=.=.=.=.=.-.=.=.=.) ) ) ) ) ~ $.&.E q.k.m.m.l.t.&.",
"=.=.=.&.$.=.=.=.=.=.=.=.=.=.=.=.=.=.=.=.=.&.$.&.=.=.=.=.=.=.=.=.=.=.=.&.$.=.=.=.=.=.=.=.=.=.=.;.9.r.r.r.r.q.$.=.) 9.a.k.l.f.r.( ",
"=.=.=.=.=.=.=.=.=.=.=.=.=.=.=.-.=.=.=.=.=.=.&.=.=.=.=.=.=.=.=.=.=.=.=.=.=.=.=.=.=.=.=.=.=.=.) 9.f.c.j.j.c.f.9.) =.-.9.r.r.9.-.=.",
"=.=.=.=.=.=.=.=.=.=.=.;.=.=.=.=.=.=.;.=.=.=.;.=.=.=.=.=.=.=.=.;.=.=.=.=.=.;.=.=.=.=.=.;.=.=.) q.f.n.m.m.b.s.9.) =.=.) ) ) ) =.=.",
"=.=.=.=.;.>.;.>.;.-.;.<.;.&.$.&.=.=.=.=.=.=.=.=.=.=.=.=.=.=.=.=.=.=.=.=.=.>.:.1.;.=.:.>.;.&.$.=.6.y.z.z.y.6.-.=.=.=.=.-.=.=.=.=.",
"=.=.=.=.=.<.1.<.;.>.1.<.;.&.$.=.=.=.=.=.=.=.=.=.=.=.=.=.=.-.=.=.=.=.=.=.;.>.1.>.;.>.1.>.;.=.$.-.6.y.z.z.u.6.=.=.=.=.=.=.=.=.=.=.",
"=.=.=.=.=.;.,.;.&.;.<.;.>.=.=.=.=.=.=.=.=.=.=.=.=.=.=.=.=.=.=.=.=.=.=.=.=.=.>.=.=.=.,.;.>.=.) 9.g.n.m.m.n.g.r.) -.=.=.=.=.=.=.=.",
"=.=.=.=.=.=.=.=.$.@.=.=.=.=.=.=.=.=.=.=.=.=.=.=.=.=.=.=.=.=.=.=.=.=.=.=.=.=._ =.$.$.=.;.=.=.) q.f.c.j.j.c.f.9.( =.=.=.=.=.;.=.-.",
";.=.=.=.=.=.-.=.&.$.&.=.=.=.=.=.=.=.=.=.=.=.;.=.;.=.=.=.=.) _ _ ;.=.=.=.=.=.=.=.&.E &.) =.=._ -.9.r.r.r.r.9.:.=.;.=.=.=.=.;.=.=.",
"=.=.=.=.=.=.=.=.=.=.=.=.=.=.=.=.=.=.=.=.=.=.>.;.>.=.*.*.%.3.*.*.*.*.*.*.=.=.=.=.9.9.r.q.-.=.=.=.) ) ( ) ) ) >.;.>.=.=.=.=.=.=.=.",
"=.=.=.=.=.=.=.=.=.=.=.=.=.=.=.=.=.=.=.=.=.=.:.,.>.*.N l B M M M m M l N *._ ( t.g.c.l.p.8.( -.=.=.-.=.=.=.=.:.>.;.=.=.=.;.=.=.=.",
"=.=.=.=.=.=.=.=.=.=.=.=.=.=.=.=.=.=.=.;.>.=.*.:.*.2.V n v v v C C v C B 2.*.&.w.d.v.m.c.u.8.-.=.=.=.=.;.>.;.;.>.=.=.=.=.=.=.=.=.",
"=.=.=.;.=.;.=.=.=.=.$.&.=.=.=.=.=.=.=.;.<.=.N V M B H J J J J H x v H H B c c B D P h.m.b.f.9.) =.=.=.;.>.;.=.=.=.=.=.=.=.=.-.=.",
"=.=.=.>.;.>.;.=.=.=.$.&.$.&.@.&.=.=.=.=.*.2.V n n n S F F S F S z x A F v v C v x L i.n.x.d.4.~ -.=.=.=.=.=.=.=.=.=.=.=.=.=.;.=.",
"=.;.=.;.,.;.=.=.=.=.=.&.@.@.@.=.=.=.=.*.N V H H J F s i a i a i r 6 6 d S J H K J H L V 5.4.$.=.=.=.=.=.=.=.=.=.=.=.=.=.=.=.:.=.",
"=.,.=.;.>.;.=.=.=.=.=.&.$.@.&.=.=.=.&.2.V n A F F A 6 4 4 4 4 4 5 4 5 6 A H H H K J n c 2.Y &.=.=.=.=.=.=.=.=.=.=.-.=.=.=.=.=.=.",
";.>.;.=.=.=.=.=.=.=.=.=.&.$.=.=.=.&.m V H F s i i 6 & O + O + O + + O & 6 i i s F J J F c m *.=.=.=.=.=.-._ =.=.=.=.=.=.=.-.=.=.",
"=.=.=.=.=.=.=.=.=.=.=.=.=.=.=.=.=.*.V n J F r 3 4 3 O . . . . .   o o O 4 4 4 6 F K J J b c *.;.=.=.=.=.=.=.=.=.=.;.;.=.=.=.=.=.",
"=.=.=.=.=.=.=.=.=.=.-.-.=.=.=.=.=.*.m n J A , o + + O X O . X o o X X o + + X , A K J H n M 3.=.=.=.=.=.=.=.=.=.=.=.=.=.=.=.=.=.",
"=.=.=.=.:.=.=.=.=.) _ ) =.) =.=.=.*.l n H A < & . . . o . . O . o o o o X o + < S K J J v M *.=.=.=.=.=.=.=.=.=.=.=.=.=.=.=.=.=.",
"=.=.=.=.=.=.=.=.=.=.) -.=.=.) =.=.*.M n J J F c &   . . . . . .     o     & B H J J K J C B *._ =.=.=.=.=.=.=.=.=.=.=.=.=.=.=.=.",
"=.-.=.=.=.=.=.=.=.-.-.,.,.1.' ' ;.*.h z H J K G < & & & & & & & & & & & & < S K J H F S B N *._ =.=.=.=.=.=.=.=.=.&.$.&.=.=.=.=.",
"=.=.=.=.=.=.=.=.] >.;.] O.+.+.X.| / ; , z C H J A A A A S A A A A S A S A S H J Z x i p 3.,.) _ =.=.=.-.=.=.=.=.=.$.$.&.$.$.$.=.",
";.=.=.=.=.=.=.=.>.;.;.] O.+.+.X.| / $ & g c S H K K H H K K J J J J H H H J J H x z u e 3.-.*.*.=.=.=.) =.=.=.$.$.$.&.&.@.@.$.=.",
"=.=.=.-.=.=.=.=.=.~ ..O. .} ) Q W U 9 8 y t u s H H s i H H n n n B n n v C n c a w T 2.M B B N *._ =.=.) =.=.$.=.=.=.=.$.@.&.=.",
"=.=.=._ =._ =.=.:.' X.X.} ` ( W ( E 9 8 y t 6 i G H r i H H n z z f f k z z v z 6 w R R B C n B 2.*.=.=.=.-.=.&.=.=.=.=.&.$.=.=.",
"=.=.=.=.=.=.=._ o.o._ Q Q ( ` [ { / $ & g c z x J H r i H J V z , + + , k n b z r 5 = 1 A H H H V N &.=.=.=.=.=.=.=.=.=.=.&.=.=.",
"=.=.=.=.=.=.=.:.X.X.( W W Q ` } { / # + f n x v F A i i F H z i +   . + s k x z 5 3 + , A K K H n M *.=.=.=.=.=.=.=.=.=.=.=.=.=.",
"=.=.=.=.=.-.-.) ( ) [ [ [ ` _ _ _ ! % + f c x z i i k z n k , + o o . o + , k k & + 3 r S K K H b c *.=.=.=.=.=.=.=.=.=.=.=.=.=.",
"=.$.&.=.=.) =.=.E Q ` [ { } ) _ ;.E % & d x x z r r z x b f & O o o o o o , k k + o 4 i A G S A V N *.=.=.=.=.=.=.=.=.=.=.=.=.=.",
"&.$.&.$.&.$.=.) =.) ;.;._ =.) =.;.! % O 6 i z z r r k v v k 5 2 O X . o 2 6 z f + o 4 r i r - > #.*.=.=.=.=.=.=.=.$.=.=.=.=.=.=.",
"=.=.=.@.@.@.=.=.=.=.=.=.-.=.=.=.=.! ; = 3 6 z z r r z x v z i r & + + & 6 i x f , + 3 4 4 3 = : E ;.=.=.=.=.=.&.@.@.=.=.=.=.=.=.",
"=.=.=.@.@.&.=.=.=.) ) =._ =.=.=.=.=.! Y = - k b r r z v v v z k 5 4 4 5 f z c z r 3 + + + = I $.&.=.=.=.=.=.@.&.$.&.=.=.=.=.=.=.",
"=.=.=.=.$.&.=.=.=.=.-.=.=.=.=.=.) =.;.$.% O s d r r k z x v n z i r i i x b z f 5 3 + X @ ; ! ;.=.=.=.=.=.=.$.=.=.=.=.=.=.=.=.=.",
"=.=.=.=.=.=.=.=.=.=.=.=.=.=.=.=.=.=.=.! % o & & 4 r 6 a z x x z z z z z x z i 5 + O o % I ! ) =.=.=.) =.=.=.=.=.=.=.=.=.=.=.;.=.",
"=.=.=.=.=.=.=.=.=.=.=.=.=.=.=.=.=.=.=.! % o X O 3 5 5 r z v x x x x x x z f r 2 + . o * ! ;.&.=.=.=.-.=.=.=.=.=.=.=.=.=.=.=.=.=.",
"=.=.=.=.;.>.>.>.;.=.:.>.;.&.$.=.=.) ;.$.% o o o + + 4 i z x b b x x x z i r & O o o   % ! =.$.=.=.=.=.=.=.=.=.=.=.=.=.=.=.=.-.=.",
"=.=.=.=.;.,.,.,.;.>.1.1.;.=.@.=.=.=.! I : % O X . O 2 6 f z z z x z z d r 2 O X X O @ : R ! @.=._ =.=.=.=.=.=.=.=.=.=.=.;.=.=.=.",
"=.=.=.=.=.;.>.;.=.=.>.;.>.=.=.) ;.&.$ ; q I 8 7 O . O & 6 r r i x x r r & O o O 7 9 I q $ ; $.:.=.=.=.=.=.=.=.=.=.=.=.=.=.=.-.=.",
"-.=.=.=.=.=.=.=.$.$.=.=.=.=.=.=.E I * $ I U 0 8 * O X o 3 5 4 5 j d r 2 O . o * 8 0 U I $ $ I ! ~ =.=.=.=.=.=.=.=.=.=.=.=.=.=.=.",
"=.=.=.=.=.=.=.=.&.$.=.=.=.=.=.! $ $ q I 0 0 y 9 8 7 X o O O O O + + o o . O 7 8 9 9 0 0 I q ; : ! -._ =.=.=.=.=.=.=.=.=.=.=.=.=.",
"=.=.=.=.=.=.=.=.=.=.=.=.=.=.;.E @ @ I U 0 8 8 8 8 8 * * % * = % @ @ * % @ $ 7 8 8 8 8 0 @.I X % ! =.=.=.=.=.>.;.>.=._ -.=.=.=.;.",
"=.=.=.=.=.=.=.=.=.=.=.=.=.=.=.! % O 9 0 y 8 % O X = Y ! R ! ! E @.! ! R ! I * O X % 8 0 0 9 O @ ! =.) =.=.=.:.>.;.=.=.;.=.=.=.=.",
"=.=.=.=.=.=.=.=.=.=.=.=.=.=.=.! : * 7 8 8 7 ; * % : ! :.;.;.=.;.=.=.;.;.:.! : % = * 7 8 8 7 * : ! ;.=.;.>.;.;.>.=.=.=.=.=.=.=.=.",
"=.=.=.=.=.=.=.=.=.=.$.&.=._ =.=.Q Y * o X # I $.! ! &.=.) -.=.=.=.=.=.=.=.=.! ! ! I * O O * q $.=.=.=.;.>.;.=.=.=.=.=.=.=.=.;.=.",
"=.=.;.>.;.>.;.=.=.&.$.&.$.$.$.&.:.^ : % @ : $.;.=.;.=._ =.=.=.=.=.=.=.>.;.>.;.;.;.$.; % @ ; #.=.) =.=.=.=.=.=.=.=.=.=.=.=.=.=.-.",
"=.;.=.;.>.;.=.=.=.=.=.&.$.@.$.&.=.=.! ! ! ! &._ =.=.=.=.=.=.=.=.=.;.=.;.>.;.) =.=.=.! U q Y @.~ =.=.=.=.=.=.=.=.=.=.=.=.=.=.:.=.",
";.>.=.;.>.=.=.=.=.=.=.=.$.@.&.=.=.=.=.=.=.=.=.=.=.=.=.=.=.=.=.=.;.>.;.=.>.;.=.=.=.=.=.=.%.$.&.=.=.=.=.=.=.;.=.=.:.=.=.=.=.=.=.=.",
";.>.;.=.=.=.=.=.=.=.=.=.&.$.=.) =.) =.) =._ =.=._ =.=.=.;.=.=.=.=.>.;.=.=.=.=.=.=.=.=.=.&.$.=.=.=.=.=.=.=.=.=.=.=.=.=.=.=.-.=.=.",
"=.=.=.=.=.=.=.=.=.=.=.=.=.=.=.=.=.=.-.-.=.=.=.=.=.=.=.=.=.=.=.=.=.=.=.=.=.=.=.=.=.=.=.=.=.=.=.=.=.=.=.=.=.-.=.=.=.=.=.;.=.=.=.=."
};
