/* XPM */
static char *_54aa9d9641f47b7ed3bf5d333061ebeAguaEXWzPEuhu5oa[] = {
/* columns rows colors chars-per-pixel */
"64 64 139 2 ",
"   c #1D1427",
".  c #1E1528",
"X  c #1E1828",
"o  c #211629",
"O  c #241A2A",
"+  c #2A1D2D",
"@  c #1F272A",
"#  c #1F2A29",
"$  c #1F322B",
"%  c #21252B",
"&  c #2E222E",
"*  c #222B2C",
"=  c #28282D",
"-  c #31212F",
";  c #23352D",
":  c #29322D",
">  c #24382D",
",  c #2F2F30",
"<  c #342431",
"1  c #3C2E35",
"2  c #2E3130",
"3  c #462F38",
"4  c #473138",
"5  c #4C333B",
"6  c #51363C",
"7  c #543A3E",
"8  c #294C39",
"9  c #2B543C",
"0  c #2B5C3D",
"q  c #2C633E",
"w  c #267D36",
"e  c #4F433D",
"r  c #4C513E",
"t  c #5A3D41",
"y  c #3B5741",
"u  c #335A40",
"i  c #554440",
"p  c #5E4142",
"a  c #594C41",
"s  c #614444",
"d  c #654946",
"f  c #684C47",
"g  c #6D4E49",
"h  c #635047",
"j  c #645A47",
"k  c #645148",
"l  c #6E504A",
"z  c #6E5E49",
"x  c #74544D",
"c  c #79574E",
"v  c #725E4D",
"b  c #79584F",
"n  c #7E5750",
"m  c #7D5A50",
"M  c #6E614C",
"N  c #666A4A",
"B  c #68684A",
"V  c #74624E",
"C  c #7F7462",
"Z  c #815B52",
"A  c #826353",
"S  c #856B55",
"D  c #8A6E57",
"F  c #8C6F58",
"G  c #8B7157",
"H  c #8D7258",
"J  c #91755A",
"K  c #95795C",
"L  c #8C6C64",
"P  c #2C833A",
"I  c #2B8C3C",
"U  c #32843C",
"Y  c #3F813F",
"T  c #318C3E",
"R  c #2B933B",
"E  c #279C39",
"W  c #2D9D3B",
"Q  c #32943E",
"!  c #319C3D",
"~  c #2CAE34",
"^  c #2DA33A",
"/  c #31A33D",
"(  c #33AA3E",
")  c #2DBF35",
"_  c #32B13C",
"`  c #3DB33F",
"'  c #3EB83F",
"]  c #2DC236",
"[  c #2EC936",
"{  c #34CC37",
"}  c #56DC3C",
"|  c #58DD3D",
" . c #3A8440",
".. c #318F41",
"X. c #3B8C40",
"o. c #329441",
"O. c #339E41",
"+. c #3C9C42",
"@. c #35A441",
"#. c #39A543",
"$. c #35A941",
"%. c #39AC40",
"&. c #37B441",
"*. c #38B641",
"=. c #36B941",
"-. c #39BB41",
";. c #459244",
":. c #409E44",
">. c #52995A",
",. c #43A142",
"<. c #43A64D",
"1. c #41AB4D",
"2. c #49A156",
"3. c #49AD55",
"4. c #4BAF56",
"5. c #4CAC57",
"6. c #4CAF57",
"7. c #49A058",
"8. c #4CA259",
"9. c #4DAD59",
"0. c #4EB059",
"q. c #4EB259",
"w. c #5FB769",
"e. c #5FB869",
"r. c #E3D8D8",
"t. c #D7E1D5",
"y. c #D1E9D3",
"u. c #D1EAD3",
"i. c #D1EAD4",
"p. c #D5ECD7",
"a. c #E4EEE5",
"s. c #F2EFEF",
"d. c #E3F2E5",
"f. c #E9F5EB",
"g. c #ECF4ED",
"h. c #ECF6ED",
"j. c #EEFBF1",
"k. c #F1F8F2",
"l. c white",
/* pixels */
"@.@.@.@.$.@.@.@.#.@.@.@.@.@.@.@.@.@.@.@.@.@.@.@.@.@.@.#.@.@.@.@.@.@.@.@.@.@.@.@.@.@.@.@.@.@.@.@.@.@.@.@.@.@.@.@.@.@.@.@.@.@.@.@.",
"@.@.@.@.@.@.@.@.@.@.@.@.@.@.@.@.@.@.#.@.@.@.@.@.@.@.@.@.@.@.@.@.@.@.@.@.@.@.@.@.@.@.@.@.@.@.@.@.@.@.@.@.@.@.@.@.@.@.@.@.@.@.@.@.",
"@.#.@.@.@.@.@.@.@.@.@.@.@.@.@.@.@.$.@.@.@.@.@.@.@.@.@.@.@.@.@.@.@.@.@.@.@.@.@.@.@.@.@.@.@.@.@.@.@.@.@.@.@.@.@.@.@.@.@.@.@.@.@.@.",
"@.@.@.$.@.@.@.@.$.@.$.&.%.&.$.@.@.@.@.@.@.@.@.$.@.O.o.O.@.@.@.@.@.@.@.@.@.@.@.@.$.@.$.*.$.*.$.@.@.$.#.@.@.@.@.@.@.O.o.O.@.@.@.@.",
"@.@.#.@.@.@.@.@.=.&.$.&.-.=.@.@.@.@.@.@.@.@.@.@.@.o.o.O.o.O.o.@.@.@.@.@.@.@.@.$.*.&.$.*.-.=.$.@.@.@.@.@.@.@.@.@.@.....O.o.o.o.@.",
"@.@.@.@.@.@.@.$.&.@.@.@.=.%.@.@.@.@.@.$.@.@.O.o.O.o.O.O.......@.@.@.@.@.@.@.@.$.=.@.O.$.*.$.@.@.@.@.@.#.@.@.@.o.O...@.O.....o.@.",
"$.@.#.@.@.@.@.@.@.o.o.@.$.@.@.@.@.@.@.@.@.@.@.o.O.@.@.@.o...O.@.#.@.@.@.@.@.@.@.@.o.o.@.$.@.@.@.@.$.@.@.@.@.@.o.@.@.@.@.....O.@.",
"@.@.( @.@.@.@.@.@.@.@.@.@.@.@.@.@.@.@.@.@.@.@.#.@.@.@.@.O.o.@.@.@.@.@.@.@.@.@.@.@.@.O.@.@.@.@.@.@.@.@.@.@.@.@.@.@.@.@.@.@.o.@.@.",
"@.@.@.@.@.@.@.@.@.@.@.@.@.@.@.@.@.@.@.@.@.@.@.@.@.@.@.@.@.@.@.@.@.@.@.@.@.@.@.@.@.@.@.@.@.@.@.@.@.@.@.@.@.@.@.@.@.@.@.@.@.@.O.@.",
"@.@.@.@.@.@.@.@.@.@.@.@.@.@.@.@.@.@.$.@.@.@.@.@.@.@.@.@.@.@.@.@.@.@.@.@.@.@.@.@.@.@.@.@.@.@.@.@.@.@.@.@.@.@.@.@.@.@.@.@.@.@.@.@.",
"@.@.@.#.@.@.@.@.@.@.@.@.@.@.@.@.@.@.@.@.@.@.@.@.@.@.@.@.@.@.@.@.@.@.@.@.@.@.@.@.@.@.@.@.@.@.#.@.@.@.@.@.@.@.@.@.@.@.@.@.@.@.@.@.",
"@...O.@.@.@.@.@.@.@.@.@.@.@.$.@.@.$.@.@.@.@.@.@.@.O.@.@.@.@.@.@.O.o.@.@.@.@.@.@.@.@.@.@.$.@.@.@.@.@.@.@.@.@.@.@.@.O.@.@.@.@.@.@.",
"O.o.O.o.O.o.@.@.@.@.@.$.@.@.$.@.@.@.@.@.@.@.@.@.O.o.O.@.@.@.@.@.@.o.O.o.O.o.O.@.@.@.@.@.#.@.@.@.@.@.$.@.@.@.@.@.O.o.@.@.O.@.@.@.",
"@.@.@.....o.O.@.@.@.@.@.@.@.@.@.@.@.@.@.@.@.@.@.o.o.@.@.@.$.@.@.@.@.@.......@.@.@.@.@.@.@.@.@.@.@.@.@.@.@.@.@.@.o.o.@.$.3.3.@.@.",
"@.@.@.....O.@.@.@.@.@.@.@.@.#.@.@.@.@.@.@.@.o.O.o.O.@.@.@.@.@.@.@.@.O...o.O.@.@.@.@.@.@.$.@.@.@.@.@.@.@.@.^ ..O...O.O.3.p.p.3.@.",
"@.@.@.O.o.#.@.@.@.@.@.@.@.@.@.@.@.@.@.@.@.O.o.O.@.@.@.@.@.@.@.#.@.@.@.O.o.@.@.@.@.@.@.@.@.@.@.@.@.@.@.@.3.3.7.9.9.3.@.9.p.p.&.@.",
"@.@.@.@.@.@.@.@.@.@.#.@.@.@.@.@.@.@.@.@.@.@.@.@.@.@.@.@.@.@.@.@.@.@.@.@.@.@.@.@.@.@.@.@.@.@.@.@.@.#.@.3.u.h.d.d.h.u.3./ 0.3.@.@.",
"@.@.@.@.@.@.@.@.@.@.@.@.@.@.O.@.@.@.@.@.@.@.@.@.@.@.@.@.@.@.@.@.@.@.@.@.@.@.@.$.@.@.@.@.@.@.@.@.@.@.@.3.i.k.l.l.k.i.9.^ / / @.@.",
"@.@.@.@.$.&.$.&.$.@.$.=.@.@.o.@.@.@.@.@.@.@.@.@.#.@.@.@.@.@.$.@.@.@.@.@.$.&.%.&.$.@.$.*.@.@.o.@.@.@.@.$.1.w.f.f.w.1.#.@.@.#.@.@.",
"@.@.@.@.@.=.=.=.$.=.=.=.$.@.o.@.@.@.@.@.@.@.@.@.@.@.@.@.@.@.@.@.@.@.@.@.$.&.-.&.$.*.-.&.$.@.o.@.@.@.@.#.1.w.f.f.w.1.#.@.@.@.@.@.",
"@.@.@.@.@.$.&.$.@.@.=.@.&.@.@.@.@.@.@.@.@.@.@.@.@.@.@.@.@.@.@.@.@.@.@.@.@.$.*.( @.@.&.( ( / ^ / @.@.@.3.i.j.l.l.k.u.6./ @.@.@.@.",
"@.@.@.@.@.@.$.@.o.o.@.@.@.@.@.@.@.@.@.@.@.@.@.@./ @.@.@.@.@.@.@.@.@.@.@.O.@.@.@.o.o.3.9.0.0.0.4.@.@.^ 0.i.h.d.d.h.u.6./ #.@.@.$.",
"@.$.@.@.@.@.@.@.O.o.@.@.@.@.@.@.@.@.@.@.@.@.$.@.@.@.$.@.@.@.@.@.@.@.@.@.@.@.@.@.W 2.i.h.d.d.h.i.0.^ @.@.3.0.0.q.0.6.#.@.@.#.@.@.",
"@.@.@.@.@.@.@.@.@.O.@.@.@.@.@.@.@.@.@.@.@.#.&.$.&.@.+.+.+.+.+.+.+.+.+.+.#.@.@.@./ 5.i.j.l.l.k.i.0.@.@.@.O.^ _ ( ( / @.@.( @.@.@.",
"@.@.@.@.@.@.@.@.@.@.@.@.@.@.@.@.@.@.@.@.@.@.$.-.$.+.N z M M M z z M z N +.$.@.@.@.@.1.e.h.h.w.<.#.@.@.@.@.#.%.&.` $.@.@.$.@.@.@.",
"@.@.@.@.@.@.@.@.@.@.@.@.@.@.@.@.@.@.@.@.&.#.+.#.#.;.V m m m m m x m m V ;.+.+.+.+.:.<.e.f.f.w.1.#.@.@.$.&.$.$.&.@.@.@.@.@.@.@.@.",
"#.@.@.$.@.$.@.@.@.O.o.@.@.@.@.@.@.@.@.$.&.#.N M M V H J J J J H m m G G V M M M z C t.j.l.l.j.i.9.^ #.$.&.$.@.@.@.@.@.@.@.@.@.@.",
"@.@.@.&.$.&.@.@.@.@.o.O.o.o.o.O.@.@.@.@.O.;.V m m m D H G D H D n x G F m m m m b L r.s.a.d.h.y.9./ @.@.@.@.@.@.@.@.@.@.@.@.@.$.",
"@.$.@.$.&.$.@.@.@.@.@.O.....o.@.@.@.$.+.N V G J J D d p p p p p t t p d F J G J J H L C >.7.8.3.@.@.@.@.@.@.@.@.@.@.@.@.@.$.@.@.",
"$.&.@.$.&.$.@.@.@.@.@.@.o...O.@.@.@.+.;.V m S S H S 7 5 5 5 5 5 5 5 5 7 S G G G K H m z w U W / @.@.@.@.@.@.@.@.@.#.@.( @.@.@.@.",
"@.&.$.@.$.@.@.@.@.@.@.@.O.o.O.@.@.+.N V H F d t p t & O + + + + + + O & t p p d G K J H A V +.@.@.@.@.@.( @.@.@.@.@.@.#.$.@.@.@.",
"@.@.@.@.@.@.@.@.@.@.@.@.@.@.@.@.@.O.M m J H t t 5 3 O               . O 4 5 5 t F K K J m V +.@.@.@.@.@.#.@.@.@.@.@.@.@.@.@.@.@.",
"@.@.@.@.@.@.@.@.@.@.@.@.@.@.@.@.@.+.M m J S <   + O o X o o . O O .   O O O . < S K J J b V +.@.@.@.@.@.@.@.@.@.@.@.@.@.@.@.@.@.",
"@.@.@.@.@.@.@.@.@.@.@.@.@.@.@.@.$.+.M m J S 1 & . . O X X X o . O . O X   O & 1 S K J J b M +.@.@.@.@.@.@.@.@.@.@.@.@.@.@.@.@.@.",
"@.@.@.#.@.@.@.@.@.@.@.@.( @.@.@.@.+.M m H K D m &   . . . . .         .   & v F J K K J Z V +./ @.@.@.#.@.@.@.@.@.@.O.@.@.@.@.@.",
"@.@.@.@.@.@.@.@.@.( $.&.$.&.` _ $.O.j x G H K D 1 & & & - - & & & & < & & 1 D K J H H D V N +.( @.( @.@.@.@.@.@.@.O.o.@.@.@.@.@.",
"@.$.@.@.@.@.@.#.-.&.$.-.' ' } | { ~ : < x A J K S S S S S S S S S D S S S D H J A c s a ,.%.@.( @.@./ #.@.@.@.@.O.o.o.O.o.O.o.O.",
"@.@.( #.@.@.@.( &.@.@.$.' ' } } { ~ $ + a v S F K K H H K K J J J H J J J J J D c l e r ,.#.+.+.#.@.#./ @.@.@.o.O.o.O.O.......@.",
"@.@.@.@.@.@.@.@.#.o.o.( | } / ! E R 0 9 u y i d H H d s H J m m m m m m b m m m s i ;.;.N V V N +.@.#.@.@.@.O.o.@.@.@.@.o...O.@.",
"@.@.#.@.@.@.@.#./ / #.` | } ^ W E R 0 9 u y t s G H t t G J v m l l l l x b x x t 7 w T V c m V ;.! #.( @.@.@.@.@.@.@.@.O.o.@.@.",
"@.@.@.@.@.@.@.@.@.( | | / / ) ] [ ~ > & h z l n J H t p H J m l , + + < l m b x p 5 * 2 S H H H V N O.@.@.@.@.@.@.@.@.@.@.O.@.@.",
"@.@.@.@.@.@.@./ #.$.| } ^ E ) ] [ ~ % + g m c m D S s p D F x t +     + d l c l t 3 + < D K K H m M +.@.@.@.@.@.@.@.@.@.@.@.@.@.",
"@.@.@.@.@.@.@.@.@.( / / ] ] ( ( $.Q # + g m c x p p l x m l < + O   X O + < l l - + 3 t H K K J Z z +.@.@.@.@.@.@.@.@.@.@.@.@.@.",
"@.o.O.@.@.@.@.@.@./ E E ] ] ( / $.Q @ + k x c x t t x b m g < O . O X   O - l l + O 5 p A D S S V B +.@.@.@.@.@.@.O.@.@.@.@.@.@.",
"O.o.O.o.o.o.@.@.@.( ) ] ( / @.@.$.Q % o t p c x t t l b m l 6 3 O .   O 3 t x g + O 5 t p i < , X.+.@.@.@.@.@.@.@...#.@.@.@.@.@.",
"@.@.@...o.o.@.@.@.@.] ] $.+.( @.@.o.> = 3 5 x x t t x c b x p t - O O + t p c g - + 5 5 5 5 % > o.$.@.@.@.@.@.O.....@.@.@.@.@.@.",
"@.@.@.o...O.@./ @.( $./ @.( @./ #./ o.P = - l c t t x b b x x l t 5 5 t f x c x t 4 + + o = U Q ! @.@.@.@.@...O.o.@.$.@.@.@.@.@.",
"@.@.@.O.o.O.@.@.@.@.@.@.@.@.@.#./ @.$.o.@ O d g t t l x b b b x t t t s x n x g 6 4 O   % > o.$.@.@.@.@.@.@.o.O.@.@.@.@.@.@.@.@.",
"@.@.@.@.@.@.@.@.@.@.@.@.@.@.@.@.@./ @.T % O & & 6 t t t x b b c x x x x m c p 6 + O o * U Q @.@.@.@.@.@.@.@.@.@.@.@.@.@.@.@.@.@.",
"@.@.@.@.@.@.@.@.@.@.@.@.@.@.@.@.@.@.$.Q %     O 4 6 6 t l c c c c b c c x l 6 3 O . o % Q $.O./ @.@.@.@.@.@.@.@.@.@.@.@.@.@.@.@.",
"@.@.@.@.$.&.%.&.@.@.$.=.@.@.o.@.@.@.%.o.*   o X O + 5 p x n n n c c b x p t & O o o   % Q @.o.O.@.@.@.@.@.@.@.@.@.@.@.@.@.@.$.@.",
"@.@.@.@.$.-.-.&.$.&.-.=.%.! o.@.@.O.O.P > % O O o O 3 7 g x x x b x c g 5 3 O X O % % > U Q o.@.( @.@.@.@.@.@.@.@.@.@.@.@.@.@.@.",
"@.@.@.@.@.$.&.$.@.@.&.$.&.@.@.@.$.W ; * w P 9 8 O o O + t t t p x n p t & O o O 8 9 P w $ ; o.@.@.@.@.@.@.@.@.@.@.@.@.@.#.@.@.@.",
"@.@.@.@.@.@.$.@.o.o.@.@.@.@.@.@.R I * $ P I q 9 * O   O 5 5 5 7 k f 5 3 O X O % 9 q I P $ # P O.O.@.@.@.@.@.@.@.@.@.@.@.@.$.@.@.",
"#.@.@.@.@.@.@.@.O.o.@.@.@.@.@.R $ $ w I q q u u 9 8 X o o O O O + + O o X O 8 9 0 0 q q P w ; > Q $./ @.@.@.$.@.$.@.@.@.@.#.@.@.",
"@.@.@.@.@.@.@.@.@.@.@.@.@.@.$.Q @ X P I q 9 9 9 9 9 ; % * % % * % % % * % $ 8 9 9 9 9 q ..w @ % Q @.@.@.@.@.*.%.&.@.@.@.@.$.@.@.",
"@.@.@.@.@.@.@.@.@.@.@.@.@.@.@.R % O 0 q 0 9 % O o * U Q T Q Q Q o.Q Q T Q P * O O % 9 q q 0 O @ Q $.@.@.$.@.%.&.$.@.@.@.$.@.@.@.",
"@.@.@.@.@.@.@.@.@.@.@.@.@.@.@.Q > * 8 9 9 8 * * % > Q $.( $.@.$.$.@.$.$.%.Q > % % * 8 9 9 8 * > Q @./ $.&.@.$.&.@.@.@.@.@.@.@.@.",
"@.@.@.$.@.$.@.@.@.@.o.O.@.@.@.@.Q P % O X * P ! Q Q @.@.@.@.@.@.@.@.@./ @.@.o.Q o.P * O O * w o.O.@.@.$.&.$.@.@.@.@.@.@.@.@.@.$.",
"@.@.@.&.$.&.@.@.@.O.o.O.o.o.o.O.%.! > % * > o.%.@.@.@./ @.@.@.@.@.@.@.&.( &.$.@.$.Q > % @ ;  .$.@.@.@.@.@.@.@.@.@.@.@.@.@.#.@.@.",
"@.@.@.$.-.$.@.@.@.@.@.O.o.T o.@./ O.Q Q Q Q O.@.@.@.@.@.@.@.@.@.@.$.@.$.&.$.@.( @.@.R T w U ..! ( @.@.@.@.@.@.@.@.@.@.@.@.@.$.@.",
"$.&.@.$.&.@.@.@.@.@.@.@.o.o.O.@.#.@.#.$.( @.#.( @.@.@.@.@.@.@.@.$.&.$.@.&.$.@.@.@.@.@.@.o.o.O.@.@.@.@.@.@.@.@.@.@.@.@.@.@.@.#.@.",
"$.&.$.@.@.@.@.@.@.@.@.@.O.o.@.@.@./ #./ @.@.@.@.@.( @.@.$.@.@.@.@.&.@.@.@.@.@.@.@.@.@.@.+.o.@.@.@.@.@.@.@.@.@.@.$.@.#.@.@.@.@.@.",
"@.@.@.@.@.@.@.@.@.@.@.@.@.O.@.@.@.@.@.@.@.@.@.@.@.#.@.@.@.@.@.@.@.@.@.@.@.@.@.@.@.@.@.@.@.#.@.@.@.@.@.@.#.@.@.( #.@.@.@.$.@.@.@."
};
