/* XPM */
static char *result[] = {
/* columns rows colors chars-per-pixel */
"61 61 13 1 ",
"  c #35A541",
". c #3ABE41",
"X c #328E41",
"o c #79584F",
"O c #94785C",
"+ c #563A3F",
"@ c #201729",
"# c #62EB3D",
"$ c #2ECA35",
"% c #29973B",
"& c #2D5B3F",
"* c white",
"= c black",
/* pixels */
"                                                             ",
"          . .            X                . .            X   ",
"       .. ...           XX X X         .. ...           XX X ",
"       .   .          X X  XXX         .   .          X X  XX",
"        XX            X    XX           XX            X    XX",
"                            X                               X",
"                                                             ",
"                                                             ",
"                                                             ",
"X                               X                            ",
"X X X                   X       X X X                   X    ",
"  XXX                  XXooooooooooXX                  XX    ",
"  XX                 X X ooooooooooX                 X X     ",
"   X                 ooooOOOOOOooOOoooooo            X       ",
"                     ooooOOOOOOooOOoooooo                    ",
"                   ooOOOO++++++++++OOOOOOoo                  ",
"    . .   .  X     ooOOOO++++++++++OOOOOOoo  X               ",
"    ... ...  X   ooOO++++@@@@@@@@@@++++OOOOooX               ",
"     .   . .     ooOO++++@@@@@@@@@@++++OOOOoo                ",
"       XX        ooOOOO@@@@@@@@@@@@@@OOOOOOoo                ",
"        X        ooOOOO@@@@@@@@@@@@@@OOOOOOoo                ",
"                 @@ooOOOOOOOOOOOOOOOOOOoo++          . .     ",
"                 @@ooOOOOOOOOOOOOOOOOOOoo++           .      ",
"           ####$$@@ooooooOO++oooooooooooo++        .  .      ",
"         X ####$$@@ooooooOO++oooooooooooo++        .         ",
"  . .    ##$$%%%%&&oo++oo++oo++@@@@++oo++X X X               ",
"   .     ##$$%%%%&&oo++oo++oo++@@@@++oo++  XXX               ",
".  .   ##%%%%$$$$@@&&++OO++OO**@@@@**oo++  oooo              ",
".      ##%%%%$$$$@@&&++OO++OO**@@@@**oo++  oooo              ",
"       %%$$$$    @@ooooOO++OO@@@@@@@@oo++@@OOOOoo            ",
"       %%$$$$    @@ooooOO++OO@@@@@@@@oo++@@OOOOoo            ",
"                 @@oooo++ooooOO@@@@++oo@@++++OOoo            ",
"                 @@oooo++ooooOO@@@@++oo@@++++OOoo            ",
"          . .    @@oooo++ooooOOoooo++oo@@++++@@          X   ",
"       .. ...    @@oooo++ooooOOoooo++oo@@++++@@         XX X ",
"       .   .     @@++oo++oooooo++++oooo++@@@@         X X  XX",
"        XX       @@++oo++oooooo++++oooo++@@@@         X    XX",
"                   @@oo++oooooooo++oooooo@@                 X",
"                   @@oo++oooooooo++oooooo@@                  ",
"                   @@oooo++oooooooooooooo@@                  ",
"                   @@oooo++oooooooooooooo@@                  ",
"X                  @@++oo++oooooo++oooo++@@                  ",
"X X X              @@++oo++oooooo++oooo++@@             X    ",
"  XXX                @@@@++oo++oo++++@@@@              XX    ",
"  XX                 @@@@++oo++oo++++@@@@            X X     ",
"   X                 @@%%@@@@@@@@@@@@%%@@            X       ",
"                     @@%%@@@@@@@@@@@@%%@@                    ",
"                     @@&&&&@@    @@&&&&@@                    ",
"    . .   .  X       @@&&&&@@    @@&&&&@@ .  X               ",
"    ... ...  X       @@&&&&@@    @@&&&&@@..  X               ",
"     .   . .         @@&&&&@@    @@&&&&@@. .                 ",
"       XX              @@@@        @@@@XX                    ",
"        X              @@@@        @@@@ X                    ",
"                     . .                             . .     ",
"                      .                               .      ",
"                   .  .                            .  .      ",
"         X         .                     X         .         ",
"  . .    X X X                    . .    X X X               ",
"   .       XXX                     .       XXX               ",
".  .       XX                   .  .       XX                ",
".           X                   .           X                "
};
