/* XPM */
static char * p_l_xpm[] = {
"64 64 10 1",
" 	c #35A541",
".	c #3ABE41",
"+	c #328E41",
"@	c #2ECA35",
"#	c #79584F",
"$	c #94785C",
"%	c #563A3F",
"&	c #201729",
"*	c #FFFFFF",
"=	c #2D5B3F",
"                                                                ",
"                                                                ",
"                                                                ",
"           . .            +                . .            +     ",
"        .. ...           ++ + +         .. ...           ++ + + ",
"        .   .          + +  +++         .   .          + +  +++ ",
"         ++            +    ++           ++            +    ++  ",
"                             +                               +  ",
"                                                                ",
"                                                                ",
"                                                                ",
" +                               +                              ",
" + + +                   +       + +@@                   +      ",
"   +++                  ++         +@@                  ++      ",
"   ++                 + +   ##########@@              + +       ",
"    +                 +     ##########@@              +         ",
"                        ####$$$$$$$$$$####                      ",
"                        ####$$$$$$$$$$####                      ",
"     . .   .  +       ##$$$$%%%%%%%%%%$$$$##  +                 ",
"     ... ...  +       ##$$$$%%%%%%%%%%$$$$##  +                 ",
"      .   . .       ##$$%%%%&&&&&&&&&&%%%%$$##                  ",
"        ++          ##$$%%%%&&&&&&&&&&%%%%$$##                  ",
"         +          ##$$$$&&&&&&&&&&&&&&$$$$##                  ",
"                    ##$$$$&&&&&&&&&&&&&&$$$$##        . .       ",
"                    &&##$$$$&&&&$$$$$$$$$$##%%         .        ",
"                    &&##$$$$&&&&$$$$$$$$$$##%%      .  .        ",
"          +         &&%%%%$$$$$$$$$$%%%%####%%      .           ",
"   . .    + + +     &&%%%%$$$$$$$$$$%%%%####%%+                 ",
"    .       +++     &&%%%%%%$$$$%%%%######%%%%+                 ",
" .  .       ++      &&%%%%%%$$$$%%%%######%%%%                  ",
" .           +      &&%%%%##%%%%%%####%%##&&&&                  ",
"                    &&%%%%##%%%%%%####%%##&&&&                  ",
"                    &&%%########%%%%##%%##**&&                  ",
"                    &&%%########%%%%##%%##**&&                  ",
"                    &&########%%$$$$%%%%##&&&&                  ",
"           . .      &&########%%$$$$%%%%##&&&&            +     ",
"        .. ...        &&######%%####%%####%%&&           ++ + + ",
"        .   .         &&######%%####%%####%%&&         + +  +++ ",
"         ++           &&##%%##&&%%%%&&######&&         +    ++  ",
"                      &&##%%##&&%%%%&&######&&               +  ",
"                      &&##%%####&&&&&&%%####&&                  ",
"                      &&##%%####&&&&&&%%####&&                  ",
"                    &&%%##%%######%%##%%####&&                  ",
" +                  &&%%##%%######%%##%%####&&                  ",
" + + +              &&##%%######%%####%%%%##&&           +      ",
"   +++              &&##%%######%%####%%%%##&&          ++      ",
"   ++               &&##%%######%%####%%%%%%&&        + +       ",
"    +               &&##%%######%%####%%%%%%&&        +         ",
"                      &&%%%%%%%%######%%%%&&                    ",
"                      &&%%%%%%%%######%%%%&&                    ",
"     . .   .  +         &&&&%%########&&&& .  +                 ",
"     ... ...  +         &&&&%%########&&&&..  +                 ",
"      .   . .           &&==&&&&&&&&&&====&&.                   ",
"        ++              &&==&&&&&&&&&&====&&                    ",
"         +                &&&&      &&====&&                    ",
"                      . . &&&&      &&====&&          . .       ",
"                       .              &&&&             .        ",
"                    .  .              &&&&          .  .        ",
"          +         .                     +         .           ",
"   . .    + + +                    . .    + + +                 ",
"    .       +++                     .       +++                 ",
" .  .       ++                   .  .       ++                  ",
" .           +                   .           +                  ",
"                                                                "};
