/* XPM */
static char *p_b[] = {
/* columns rows colors chars-per-pixel */
"64 64 217 2 ",
"   c #090809",
".  c #090909",
"X  c #09090A",
"o  c #0A090A",
"O  c #0B090A",
"+  c gray4",
"@  c #0B0A0A",
"#  c #0A0B0A",
"$  c #0B0A0B",
"%  c #0A0B0B",
"&  c #0B0B0B",
"*  c #0C0A0B",
"=  c #0C0B0B",
"-  c #0D0B0B",
";  c #0C0B0C",
":  c #0C0C0C",
">  c #0D0C0C",
",  c #0C0D0C",
"<  c #0D0D0C",
"1  c gray5",
"2  c #0E0D0D",
"3  c #0D0E0D",
"4  c #0D0F0D",
"5  c #0E0E0D",
"6  c #0F0E0D",
"7  c #0E0E0E",
"8  c #0F0E0E",
"9  c #0E0F0E",
"0  c #0F0F0E",
"q  c #100F0E",
"w  c #130E0E",
"e  c #140F0F",
"r  c #0E100E",
"t  c #0E100F",
"y  c #0F100F",
"u  c #0E110F",
"i  c #0F110F",
"p  c #10110F",
"a  c #14100F",
"s  c #121110",
"d  c #101210",
"f  c #101310",
"g  c #101311",
"h  c #121210",
"j  c #131210",
"k  c #121311",
"l  c #141010",
"z  c #151010",
"x  c #161010",
"c  c #161111",
"v  c #171111",
"b  c #171212",
"n  c #171312",
"m  c #131411",
"M  c #121412",
"N  c #121512",
"B  c #121612",
"V  c #181111",
"C  c #181212",
"Z  c #191212",
"A  c #181312",
"S  c #181313",
"D  c #191313",
"F  c #1A1313",
"G  c #181413",
"H  c #191413",
"J  c #181513",
"K  c #1A1413",
"L  c #191514",
"P  c #1A1414",
"I  c #1B1414",
"U  c #1A1514",
"Y  c #1B1514",
"T  c #191614",
"R  c #1A1614",
"E  c #1A1714",
"W  c #1A1715",
"Q  c #1B1716",
"!  c #1C1515",
"~  c #1C1615",
"^  c #1B1916",
"/  c #1B1A17",
"(  c #1C1816",
")  c #1E1816",
"_  c #1C1A17",
"`  c #1C1B17",
"'  c #1D1D19",
"]  c #27231F",
"[  c #28241F",
"{  c #282420",
"}  c #292420",
"|  c #292520",
" . c #292521",
".. c #2A2420",
"X. c #2A2520",
"o. c #2A2521",
"O. c #2B2521",
"+. c #2A2621",
"@. c #2B2621",
"#. c #2B2722",
"$. c #2C2722",
"%. c #202820",
"&. c #212820",
"*. c #202920",
"=. c #212921",
"-. c #212A21",
";. c #222B22",
":. c #222C22",
">. c #222D22",
",. c #232D23",
"<. c #232E23",
"1. c #242D24",
"2. c #242E24",
"3. c #242F24",
"4. c #252E25",
"5. c #262F25",
"6. c #2C2822",
"7. c #2C2823",
"8. c #2D2823",
"9. c #2D2923",
"0. c #2E2823",
"q. c #2E2923",
"w. c #2E2924",
"e. c #2F2924",
"r. c #2F2A24",
"t. c #302B25",
"y. c #312C25",
"u. c #312C26",
"i. c #322C26",
"p. c #322D26",
"a. c #243024",
"s. c #253025",
"d. c #253125",
"f. c #263026",
"g. c #273026",
"h. c #263227",
"j. c #273227",
"k. c #273327",
"l. c #283026",
"z. c #283227",
"x. c #283328",
"c. c #293328",
"v. c #283428",
"b. c #293428",
"n. c #283528",
"m. c #293429",
"M. c #293529",
"N. c #2A3429",
"B. c #2A3529",
"V. c #293629",
"C. c #293729",
"Z. c #2A3629",
"A. c #2A352A",
"S. c #29362A",
"D. c #2A362A",
"F. c #2B362A",
"G. c #2A372A",
"H. c #2B372A",
"J. c #2B372B",
"K. c #2B382B",
"L. c #2B392B",
"P. c #2C382B",
"I. c #2C392B",
"U. c #2C382C",
"Y. c #2C392C",
"T. c #2D392D",
"R. c #2C3A2C",
"E. c #2D3A2D",
"W. c #2D3B2D",
"Q. c #2D3B2E",
"!. c #2E3B2E",
"~. c #2E3C2E",
"^. c #2E3D2E",
"/. c #2F3D2F",
"(. c #2F3E2F",
"). c #303E30",
"_. c #303F30",
"`. c #313F30",
"'. c #304030",
"]. c #304031",
"[. c #314031",
"{. c #324131",
"}. c #324232",
"|. c #334333",
" X c #344333",
".X c #334433",
"XX c #344533",
"oX c #344434",
"OX c #344534",
"+X c #354535",
"@X c #344634",
"#X c #354635",
"$X c #364836",
"%X c #364936",
"&X c #374A37",
"*X c #384B38",
"=X c #394C39",
"-X c #3A4E3A",
";X c #3B4F3B",
":X c #3B503B",
">X c #3C503C",
",X c #3C513C",
"<X c #3D523D",
"1X c #3E533E",
"2X c #415741",
"3X c #465C45",
"4X c #465D46",
"5X c #475D46",
"6X c #475E46",
"7X c #475E47",
"8X c #485F47",
"9X c #496048",
"0X c #4A6149",
"qX c #4A624A",
"wX c #4B624A",
"eX c #4B634A",
"rX c #4D654C",
/* pixels */
"E.E.E.E.E.E.E.E.E.Y.E.E.E.E.E.Y.E.E.E.E.E.E.E.Y.E.Y.Y.Y.E.Y.E.E.E.E.E.E.E.E.E.E.E.Y.E.E.E.E.E.Y.E.E.E.E.E.E.E.Y.E.Y.Y.Y.E.Y.E.E.",
"E.E.E.E.E.E.Y.E.E.E.Y.Y.Y.Y.Y.E.Y.E.E.E.E.E.Y.E.Y.T.E.E.Y.Y.Y.Y.E.Y.E.E.E.E.Y.E.E.E.Y.Y.Y.Y.Y.E.Y.E.E.E.E.E.Y.E.Y.T.E.E.Y.Y.Y.Y.",
"E.E.E.E.E.Y.E.Y.Y.Y.E.W.E.W.E.Y.E.E.E.E.Y.E.Y.Y.E.Y.K.Y.E.E.E.E.Y.E.E.E.E.Y.E.Y.Y.Y.E.W.E.W.E.Y.E.E.E.E.Y.E.Y.Y.E.Y.K.Y.E.E.E.E.",
"E.E.E.E.E.E.Y.E.!.W.~..X_..X~.Y.E.E.E.E.E.Y.E.E.E.V.a.G.L.Y.K.Y.E.Y.E.E.E.E.Y.E.!.W.~..X_..X~.Y.E.E.E.E.E.Y.E.E.E.V.a.G.L.Y.K.Y.",
"E.E.E.E.E.E.Y.!.#XoX/.@X%X@X!.Y.E.E.E.E.Y.E.Y.K.J.<.2.V.d.v.s.J.E.Y.E.E.E.E.Y.!.#XoX/.@X%X@X!.Y.E.E.E.E.Y.E.Y.K.J.<.2.V.d.v.s.J.",
"E.E.E.E.E.E.Y.~..XW.G.^.OX/.Y.E.E.E.E.E.Y.E.J.s.M.s.D.J.>.:.2.K.E.Y.E.E.E.E.Y.~..XW.G.^.OX/.Y.E.E.E.E.E.Y.E.J.s.M.s.D.J.>.:.2.K.",
"E.E.E.E.E.E.Y.E.Y.s.a.K.!.Y.Y.E.Y.E.E.E.Y.E.J.a.G.K.E.K.<.:.D.R.Y.Y.E.E.E.E.Y.E.Y.s.a.K.!.Y.Y.E.Y.E.E.E.Y.E.J.a.G.K.E.K.<.:.D.R.",
"E.E.E.E.E.Y.Y.T.Y.J.J.Y.Y.E.E.Y.E.E.E.E.Y.E.Y.K.Y.E.Y.R.V.s.K.E.Y.E.E.E.E.Y.Y.T.Y.J.J.Y.Y.E.E.Y.E.E.E.E.Y.E.Y.K.Y.E.Y.R.V.s.K.E.",
"Y.Y.Y.E.Y.E.T.R.E.E.E.E.E.E.Y.E.E.E.E.E.E.Y.E.E.E.Y.Y.E.Y.K.Y.E.Y.Y.Y.E.Y.E.T.R.E.E.E.E.E.E.Y.E.E.E.E.E.E.Y.E.E.E.Y.Y.E.Y.K.Y.E.",
"E.E.E.Y.Y.Y.Y.E.Y.Y.Y.Y.E.Y.E.E.E.E.E.E.Y.E.Y.Y.Y.Y.Y.Y.T.E.E.Y.E.E.E.Y.Y.Y.Y.E.Y.Y.Y.Y.E.Y.E.E.E.E.E.E.Y.E.Y.Y.Y.Y.Y.Y.T.E.E.Y.",
"Y.K.Y.E.E.E.E.Y.E.E.E.E.E.E.E.E.E.E.E.E.E.Y.E.Y.T.E.E.Y.Y.Y.Y.E.Y.K.Y.E.E.E.E.Y.E.E.E.E.E.E.E.E.E.E.E.E.E.Y.E.Y.T.E.E.Y.Y.Y.Y.E.",
"J.a.G.L.Y.K.Y.E.Y.E.E.E.E.E.E.E.E.E.E.Y.E.Y.Y.E.Y.K.Y.E.Y.Y.Y.E.J.a.G.K.Y.K.Y.E.Y.E.E.E.E.E.E.E.E.E.E.Y.E.Y.Y.E.Y.K.Y.E.Y.E.E.E.",
"J.s.M.d.v.s.J.E.Y.E.E.E.E.E.E.E.E.E.E.E.Y.E.E.E.V.a.J.E.E.E.E.Q.K.d.V.d.v.d.J.E.Y.E.E.E.E.E.E.E.E.E.E.E.Y.E.E.E.V.a.J.E.Y.E.E.E.",
"Y.K.G.>.:.2.K.E.Y.E.E.E.E.E.E.E.E.E.E.Y.E.Y.K.G.,.,.K.Y.B.m.N.N.b.x.z.=.&.-.G.E.Y.Y.Y.E.Y.E.E.E.E.E.E.Y.E.Y.K.J.<.<.K.E.Y.E.E.E.",
"Y.E.K.<.:.D.R.Y.Y.E.E.E.E.E.E.E.E.E.E.Y.E.J.d.S.d.G.Q.A.` L R T R E T J n ^ A.!.E.E.E.Y.E.E.E.E.E.E.E.Y.E.J.s.M.s.V.R.Y.Y.E.E.E.",
"Y.Y.R.V.s.K.E.Y.E.Y.E.E.E.Y.Y.Y.E.Y.E.Y.E.D.;.z.x.m.A.g.( F K F F F F P F ( g.B.m.B.U.Y.Y.Y.Y.Y.E.Y.E.Y.E.J.a.G.L.Y.E.Y.E.E.E.E.",
"E.Y.E.Y.K.Y.E.Y.Y.E.E.Y.Y.E.E.E.Y.E.Y.Y.!.A.^ L W R T ( @.w.w.w.w.w.w.w.w.@.( T L ` D.Q.Y.E.E.E.Y.E.E.Y.E.Y.K.Y.E.Y.Y.E.Y.E.E.E.",
"Y.E.Y.Y.E.W.E.W.E.Y.Y.W.E.Y.K.Y.E.Y.Y.U.D.g.( F K K D ~ | 7.$.$.$.$.$.$.7.| ~ F F ( g.D.U.Y.K.Y.E.Y.E.E.Y.E.E.E.Y.Y.E.Y.E.E.E.E.",
"E.Y.E.Y.~..X_..X~.W.(..X~.G.a.J.E.Y.Q.D._ ( +.w.w.w.r.o.j 5 0 8 8 8 8 0 5 j o.e.w.#.( / F.Y.a.J.E.Y.E.Y.E.Y.Y.Y.E.Y.E.E.E.E.E.E.",
"E.E.E.Y.!.@X%X@X/..X$X#X(.J.a.J.E.U.D.g.( ~ w.u.7.$.8.] 5 . + + + + + + . 5 ] 8.7.o.! ( l.c.3.K.E.Y.E.E.E.E.E.E.E.E.E.E.E.E.E.E.",
"E.E.E.E.Y./.OX^.G.~..X_.}.W.K.Y.E.B.` ( +.q.y.$.s 2 0 6 & & & & & & & & & & 6 0 2 s | #.( _ c.E.Y.Y.E.E.Y.E.E.E.E.E.Y.E.E.E.E.E.",
"E.E.Y.E.Y.Y.!.K.3.2.Y.E.!.E.E.Y.E.m.T F 8.u.u.#.j < & + & & & & & & & & & & + & < h 8.w.D L B.W.Y.E.E.Y.E.Y.Y.Y.Y.Y.E.Y.E.E.E.E.",
"E.E.E.Y.E.E.Y.R.V.3.J.E.Y.Y.Y.Y.E.m.T F q.p.u.t.8.] 5 X + + + + + + + + + + X 5 ] 8.u.w.I W N.E.Y.R.Y.E.E.E.!.E.!.E.Y.E.E.E.E.E.",
"E.E.E.E.Y.E.E.E.R.K.Y.E.E.E.Y.Y.E.B.` ( | 6.6.8.i.7.j 5 0 8 8 8 0 6 = = 6 0 5 j 7.u.q.X.C J m.W.E.E.E.E.Y.!.}._.}.!.Y.E.E.E.E.E.",
"E.Y.E.E.E.E.E.Y.Y.E.E.E.Y.Y.Y.Y.E.U.F.5.k q G ) q.u.6.$.$.$.$.$.7.} A A { 6.$.8.u.q.) S - p x.E.U.U.U.Y.W.E./.OX/.Y.E.E.E.E.E.E.",
"Y.E.Y.Y.Y.Y.Y.R.E.Y.K.Y.E.E.E.E.Y.Y.~.v.r @ z K ..q.0.w.w.w.q.0.w.O.K P w.u.7.6.9...K z @ u V.).)._._.{.OX!.W..X!.Y.E.Y.E.E.E.E.",
"E.E.E.!.E.!.E.Y.E.J.a.G.L.Y.K.Y.E.Y.E.x.9 O c Z P Y P P P P Y Y U P v P w.8.j 8 H P C c @ g OX1X8XeXwX7X$XR.R.!.E.Y.E.E.E.E.E.E.",
"E.Y.!.}._.}.!.Y.E.J.s.M.d.v.s.J.E.Y.E.v.B 0 z x v v v v v v z z v v v K O.} 2 @ z v C c @ g .X<X6XqXrX9X+X(.E.Y.E.E.T.E.E.E.E.E.",
"E.W.E./.OX/.Y.E.E.Y.K.G.>.:.2.K.W.E.W.Y.M.2.y - c C C C C c > > c C v C Y D = $ c C C c @ r 2.M.M.E.>X2X0X5X).K.E.E.Y.E.E.E.E.E.",
"~..XW.W..X!.Y.E.Y.Y.E.K.<.:.D.Y.B.m.m.B.W.v.t @ c V x x V z = = z C b v z a q q c C C c @ r 2.n.j.C.%X;X8X5X X/.E.Y.E.E.E.E.E.E.",
"~..X~.Y.W.E.Y.E.E.Y.Y.R.V.a.Y.F.` T T _ H.M.r @ c c - - c c = = z C C c - q [ | K v C c @ f XX;X-X&XG.v.M.~.6X6X).Y.E.E.E.E.E.E.",
"E.W.E.Y.Y.Y.E.Y.E.E.Y.E.R.G.B.g.( F F Q f.2.9 @ c c - - l l - > x C C c @ 6 8.w.P v C c O f @X,X;X*XG.k.h.I.3X4X).Y.E.E.E.E.E.E.",
"Y.Y.Y.E.E.E.Y.E.E.Y.E.Y.E.B.` ( +.8.w. .m 9 & = x V c l - - l c v v C c $ 6 6.w.P v C c @ i Z.(.~._.*X-X-X*XR.G.Y.E.Y.Y.E.Y.E.E.",
"E.E.E.Y.E.E.Y.E.E.E.Y.Y.E.m.T F 8.u.r.{ 2 . + = z C C c > - l c v v C c $ 5 } O.K v C c @ t k.E.U.~.=X:X:X*Xv.d.K.E.E.E.Y.Y.Y.Y.",
"E.E.E.E.E.Y.E.Y.Y.Y.E.W.W.D.T F w.r.) A > % + = z C v v c l - > x C C x = = S I C v C c @ t x.W.Y.E.~.~./.~.Y.U.Y.Y.K.Y.E.E.E.E.",
"E.E.E.E.E.E.Y.E.!.W.~..X].`.' Q +.} A w = + + = z C v v C c = & z C C x = = z v v v C c @ t x.W.Y.Y.Y.Y.Y.Y.E.E.E.V.a.G.L.Y.K.Y.",
"E.E.E.E.E.E.Y.!.#XoX/.@X%XOXP.4.k > > = & & + = z C v v C z = = x C C z & = c C v v C c @ t x.W.Y.E.E.E.E.E.Y.K.J.<.2.V.d.v.s.J.",
"E.E.E.E.E.E.Y.~..XW.G.^.OX/.!.M.N 3 & % & & + = z C v v C z = = x C C x > - l c v v c l @ y x.W.Y.E.E.E.Y.E.J.s.M.s.D.J.>.:.2.K.",
"E.E.E.E.E.E.Y.E.Y.s.a.K.!.Y.Y.K.M.1.9 . & & + = z C v v C c = & z C v v c l - > c c > = . 9 x.W.Y.E.E.E.Y.E.J.a.G.K.E.K.<.:.D.R.",
"E.E.E.E.E.Y.Y.T.Y.J.J.Y.Y.E.R.Y.!.M.B 7 & @ = > x C v v c l - > x C v v C c = & c c = & 9 B v.E.Y.E.E.E.Y.E.Y.K.Y.E.Y.R.V.s.K.E.",
"Y.Y.Y.E.Y.E.T.R.E.E.E.E.E.E.E.Y.Y.K.M.1.9 @ l c v v C x > - l c v C v v C c = & c c @ 9 1.M.U.E.Y.E.E.E.E.Y.E.E.E.Y.Y.E.Y.K.Y.E.",
"E.E.E.Y.Y.Y.Y.E.Y.Y.Y.Y.E.Y.E.E.Y.Y.~.m.t @ c C v v C x - - c C v v C v c l - > c c @ y b.~.Y.Y.E.E.E.E.Y.E.Y.Y.Y.Y.Y.Y.T.E.E.Y.",
"Y.K.Y.E.E.E.E.Y.E.E.E.E.E.E.E.Y.E.Y.E.x.t @ c C v v C v c c v v v v C x > - l c C c @ t x.E.Y.E.Y.E.E.E.E.Y.E.Y.T.E.E.Y.Y.Y.Y.E.",
"J.a.G.L.Y.K.Y.E.Y.E.E.E.E.E.E.E.E.Y.W.x.y @ l c v v v v c c v C v v C z & = c C c l @ y x.W.Y.E.E.E.E.Y.E.Y.Y.E.Y.K.Y.E.Y.E.E.E.",
"J.s.M.d.v.s.J.E.Y.E.E.E.E.E.E.E.E.Y.W.x.9 . = > c C C c > > x C C C C x = = c c > = . 9 x.W.Y.E.E.E.E.E.Y.E.E.E.V.a.J.E.Y.E.E.E.",
"Y.K.G.>.:.2.K.E.Y.E.E.E.E.E.E.E.E.Y.E.v.B 9 & & l c c e & = z V x x V z = & l l & & 9 B v.E.Y.E.E.E.E.Y.E.Y.K.J.<.<.K.E.Y.E.E.E.",
"Y.E.K.<.:.D.R.Y.Y.E.E.E.E.E.E.E.E.Y.E.U.M.1.r + $ * = = + = c c > > c c = + $ $ + r 1.M.U.E.Y.E.E.E.E.Y.E.J.s.M.s.V.R.Y.Y.E.E.E.",
"Y.Y.R.V.s.K.E.Y.E.Y.E.E.E.Y.Y.Y.E.E.Y.Y.~.v.y + 4 3 & + + = l l & & l l = & 3 4 + y v.~.Y.Y.Y.Y.E.Y.E.Y.E.J.a.G.L.Y.E.Y.E.E.E.E.",
"E.Y.E.Y.K.Y.E.Y.Y.E.E.Y.Y.E.E.E.Y.E.E.Y.E.x.r 1 *.%.4 + & + @ @ + + = = + 4 %.*.1 r x.E.Y.E.E.E.Y.E.E.Y.E.Y.K.Y.E.Y.Y.E.Y.E.E.E.",
"Y.E.Y.Y.E.W.E.W.E.Y.Y.W.E.Y.K.Y.E.Y.E.Y.W.x.r , *.%.3 + & & 9 y y 9 & # + 3 %.*.1 9 x.~.R.Y.K.Y.E.Y.E.E.Y.E.E.E.Y.Y.E.Y.E.E.E.E.",
"E.Y.E.Y.~..X_..X~.W.(..X~.G.a.J.E.Y.E.Y.W.x.y + 9 9 : & + 9 2.v.v.2.9 + & : 9 9 + y G.OX!.G.a.J.E.Y.E.Y.E.Y.Y.Y.E.Y.E.E.E.E.E.E.",
"E.E.E.Y.!.@X%X@X/..X$X#X(.J.a.J.E.Y.E.Y.W.x.i + & & ; & + i v.!.!.v.i + & ; & & o d '.$X/.J.a.J.E.Y.E.E.E.E.E.E.E.E.E.E.E.E.E.E.",
"E.E.E.E.Y./.OX^.G.~..X_.}.W.K.Y.E.Y.E.Y.W.x.9   & : : &   9 k.E.E.k.9   & : : &   d (.[.}.W.K.Y.E.Y.E.E.Y.E.E.E.E.E.Y.E.E.E.E.E.",
"E.E.Y.E.Y.Y.!.K.3.2.Y.E.!.E.E.E.Y.E.E.Y.W.v.N 9 : & & : 9 B v.E.E.v.B 9 : & & : 3 M M.W.W.E.E.E.Y.E.E.Y.E.Y.Y.Y.Y.Y.E.Y.E.E.E.E.",
"E.E.E.Y.E.E.Y.R.V.3.J.E.Y.Y.Y.Y.E.R.Y.Y.E.Y.G.1.4 . . 9 1.M.K.E.E.K.M.1.9 . . 9 :.>.D.E.Y.Y.Y.Y.E.R.Y.E.E.E.!.E.!.E.Y.E.E.E.E.E.",
"E.E.E.E.Y.E.E.E.R.K.Y.E.E.E.Y.E.E.Y.E.E.Y.!.OXK.B r r B M.~.Y.Y.Y.Y.~.M.B r r B M.R.Y.E.E.E.Y.E.E.Y.E.E.Y.!.}._.}.!.Y.E.E.E.E.E.",
"E.Y.E.E.E.E.E.Y.Y.E.E.E.Y.Y.Y.Y.E.E.Y.E.W.R./.|.D.k.x.v.K.Y.Y.E.E.Y.Y.U.v.x.x.v.U.E.E.E.Y.Y.Y.Y.E.E.Y.E.W.E./.OX/.Y.E.E.E.E.E.E.",
"Y.E.Y.Y.Y.Y.Y.R.E.Y.K.Y.E.E.E.E.Y.E.Y.~..X!.W.oX/.E.W.E.E.Y.E.E.Y.E.Y.Y.E.E.W.E.E.Y.K.Y.E.E.E.E.Y.E.Y.~..XW.W..X!.Y.E.Y.E.E.E.E.",
"E.E.E.!.E.!.E.Y.E.J.a.G.L.Y.K.Y.E.E.Y.~..X~.Y.W.R.Y.Y.Y.Y.E.Y.Y.E.T.E.!.R.W.R.Y.E.J.a.G.L.Y.K.Y.E.E.Y.~..X~.Y.W.E.Y.E.E.E.E.E.E.",
"E.Y.!.}._.}.!.Y.E.J.s.M.d.v.s.J.E.Y.Y.E.W.E.Y.Y.Y.E.Y.E.E.E.Y.E.E.Y.!.}._.}.!.Y.E.J.s.M.d.v.s.J.E.Y.Y.E.W.E.Y.Y.Y.E.Y.E.E.E.E.E.",
"E.W.E./.OX/.Y.E.E.Y.K.G.>.:.2.K.E.Y.E.Y.Y.Y.E.E.E.Y.E.E.E.E.E.Y.E.W.E./.OX/.Y.E.E.Y.K.G.>.:.2.K.E.Y.E.Y.Y.Y.E.E.E.Y.E.E.E.E.E.E.",
"~..XW.W..X!.Y.E.Y.Y.E.K.<.:.D.R.Y.Y.Y.E.E.E.Y.E.E.E.E.E.E.E.E.Y.~..XW.W..X!.Y.E.Y.Y.E.K.<.:.D.R.Y.Y.Y.E.E.E.Y.E.E.E.E.E.E.E.E.E.",
"~..X~.Y.W.E.Y.E.E.Y.Y.R.V.s.K.E.Y.E.E.E.E.E.E.E.E.E.E.E.E.E.E.Y.~..X~.Y.W.E.Y.E.E.Y.Y.R.V.s.K.E.Y.E.E.E.E.E.E.E.E.E.E.E.E.E.E.E.",
"E.W.E.Y.Y.Y.E.Y.E.E.Y.E.Y.K.Y.E.Y.Y.E.E.E.E.E.E.E.E.E.E.E.E.E.Y.E.W.E.Y.Y.Y.E.Y.E.E.Y.E.Y.K.Y.E.Y.Y.E.E.E.E.E.E.E.E.E.E.E.E.E.E."
};
