/* XPM */
static char *f34439b21fa54720e4b36328cfe15b87xza5UCt8D7Ezv8vM[] = {
/* columns rows colors chars-per-pixel */
"100 100 32 1 ",
"  c None",
". c black",
"X c #650000",
"o c #660000",
"O c #412300",
"+ c #422400",
"@ c #840000",
"# c #850000",
"$ c #B20000",
"% c #B30000",
"& c #B20606",
"* c #B30606",
"= c #BD0036",
"- c #C60404",
"; c #C70404",
": c #D00000",
"> c #D10000",
", c #DB5800",
"< c #FF5722",
"1 c #BD8852",
"2 c #BD8952",
"3 c #939393",
"4 c gray58",
"5 c #BEBBB8",
"6 c #BFBCB9",
"7 c #EBBA9B",
"8 c #EABB9B",
"9 c #EBBB9B",
"0 c #DDD9D3",
"q c #DED8D2",
"w c #DED8D3",
"e c #DED9D3",
/* pixels */
"                                                                                                    ",
"                                                                                                    ",
"                                                                                                    ",
"                                                                                                    ",
"                                                                                                    ",
"                                                                                                    ",
"                                                                                                    ",
"                                                                                                    ",
"                                                                                                    ",
"                                                                                                    ",
"                                              44                                                    ",
"                                             4qq4                                                   ",
"                                      4     4qqq4                                                   ",
"                                     4q4    4qq4                                                    ",
"                                    4qq.   4qqq.                                                    ",
"                                    4qq.  4qqqq.                                                    ",
"                                    .ee4  .eee4                                                     ",
"                                    .eee4.eeee4 44                                                  ",
"                                     4ee4.eeee.466.                                                 ",
"                    o               ooee4eeeee.466.                     44                          ",
"                   .@o             o;oee6eeeee.666.        444         4ew4                         ",
"                   .@o            o*oeeee66eee.66.        4ee.        4www.                         ",
"                   .@@o          ***oeee6666ee666.   4   4ee.         4ww.                          ",
"                    o@o         o**.+ee6666666666.. 4q. 4eee.    4   4www..                         ",
"                    .@o     @@@o#**..+6666666666o##.ee..eee.    4w.  4ww4.q.                        ",
"                    .@@.  @@::o@#*.oo+66666666#oo##.eeeeeee.    4w. .ewwewe.                        ",
"                    .&@. @:::o@@*.####o666666>>>>##oeeeeee4..4  4w. .wwwww.                         ",
"                    o&@.@::%o@@&*.##;;;o666##>>>>###.e666e4664  4e64ewwwe5.                         ",
"                     o--.%%.@@&&.###;;;;o6oooo>>>>##.6666666.  4www.ww666..44                       ",
"         o.       o. .---o.@@&&.###;;;;ooo####.>>>###.66666.   4www.we666..664                      ",
"         o%.     o%%..--o@@@@&&.###;ooo#####.o>>>>###....6.    4wwww66666.666.                      ",
"          o%..   .%%%.-o@@@@o&.@#..o**###..o>>>>>###::@@@.     .wwww66666666.                       ",
"          .o%%oo  .%%.;.####@o...*&&&&&..#o:>>>>###>>>>>#.     .00055555555.                        ",
"          .5oo%%o .%%6o*.###@@****&&&.o@##@o>>>####>>>>..      .00555555555.                        ",
"          4555o%% o%%eo*o*##@***&&&.o#@@##o.########...        .0055555555.                         ",
"          45555o%.o%%e=*********..o@@##@##@#..####...##.      oo30555O...5.                         ",
"           4555@%o%%oo=*******..@ee6%%%@@@####.##..####.     o%@.55OO$$$o5.                         ",
"           .5555o>%#>>.**.o*&o==e66@%%%%@@#...##.#####@.    @%::@OO%$$$$%o..                        ",
"           .555o>>%%>>%oo>>oo<o<ee@%$$%%%..#.##########..  @%>:>::$$$$$$%%X:..                      ",
"          45555o>%+9+%%%%>>>%o.<e6$$$$%%%%%##..#######.%.  o:>>>:::$$$$$%%o:::o                     ",
"         4666555o+999++%%@%%%%ooX$$$%%%%$%%@###.####@.@%.# oo@##::::$$$$$%@@:::o                    ",
"         46655556.9+992++++++%%%%%$$%%%@@@@@#@#.####.2@%%.o>::>>@@::$$$$$%%o::::o    33             ",
"          4..5556.26++2999992+%%$$$$%%##@@.....@##@#.22%%.:>>>>>:@@@$77$$$%o::::o   30q.            ",
"             .556.2e6.o...+992+%$$$$%%#..o..@@@@##.o222#%.::>>>>::$@7777$$%o:::::o  4q6.            ",
"              3q6.26.oooo+e+29.%$$%$X@#.@@@........#222#%.>>>>>>::$$@777$$$X:::::o 3q63             ",
"              4qe.2++oooo+ee+2.%$$%X@@##o@%%%%.o#####22#@.>>>>>>::$$%o7@@$@@:::::.o555.             ",
"             4eqee.2.oooo+6.+2.%$$X@@@@#@...43%%ooooo@##.>>>>>>>::$$$@o@@1O::::::.%55.              ",
"            3ee ee.2.ooooo...2+%$$X@@@@@@#.66633%::%.###.>>>>>>>:$$$@@o@22O::::::o%o5.              ",
"            .qq..4.22.oooo...2++%o##@oo...6666663...###.o::::>>>:%77@@@o2O17:::::o2o5.              ",
"             ..   o.2.ooo....22.o###.666666eeeee66.@###..#:::>>>%772@@@oO11777::o11%o53             ",
"                 oo.2.ooooo...2.@@#.66666eeeeee3..@@##.2%.oooo%%7712@@2o1111772:o::%o5.             ",
"                ooo +2.oo===o.2.#@@.6666666eee.2###@#.22%.%%%%oo771@@21o1111111o:::%%o              ",
"               oo.  .2o======o22+#.666666666e6.22#@..222%.$$%$$$o21@@12O11111OO1:::%%o              ",
"              oo.  .2o,,,=====+2+..6666666666663ooo##222%.$$%%$$%.@@21O .OOOO1112:%%%.              ",
"              o.   +2,,,,,,===.22.6666666666666322@###22@o$$$$$$%@.@11.   .111112$$$%.              ",
"             oo.  +2o,,,,,,===22+#..6666ee66..32222@##2#XX$$$$$$@@@O11O   O2111112$$.               ",
"             o.  .9oo,,,,,,==+2...o ..qeee6.2222222#####.%$$$$88@@@.2.     .O11111%o2.              ",
"            oo. o9oeo=,,,,==+2. .#o   .eeee.2222222#####.%%%$882@@@@O.      .O1211.11@.             ",
"            o.  .9oeoo=====+22.  .#o   4eee32222222####.2.oXX822@@@1O        ...OO@2@@.             ",
"            o.  .99oooooq=+22.   .#.   .eeee3222222##..22.%%$XX2@@21.        .1111@@@@.             ",
"            o.   .9992ooe=+22.   .@.    3ee3322222##..222.%%$%@.@@21.        .21112@@@o             ",
"            o.    +..999++22.    .@.    ...222222...##222.%%$@@@O111.        .11111@@@o             ",
"            oo.      ..9992..    o@o    .22......22###@2@.@@22@@.212O        OO1112@@.              ",
"             o.        +....    o@o     +22222222222###@@.o222@@@O1O          .111%@@.              ",
"             o.                 o@o     O11111111111@@@@o@@o21@@@.2.           .....                ",
"             o.                o@o      O21111111111@@@@o1@o2@@@@..           +222##.               ",
"             o.                o%o       O1111111111@@@o11@@o@@@2.            +222##o               ",
"         .  o.                 .%o       O1111111111@@oo12@@.@@22.            +22###o               ",
"         .oo..                 .%o        O21111112@@o.211@@.@112+            +22##o                ",
"          ...                  .%o        ...112111..@@111@@.111+              +%##.                ",
"                               .%o        .12......2@@@@21@@.211.            oo#o..                 ",
"                               .@o        O2112112112@@@@@@@o12O           oo######.                ",
"                               o@@o        O1111111111@@@@@o111.          o########.                ",
"                                o@o        O1111111111@@@@@.12O          ##ee#%####o                ",
"                                o@@o  oo    O1111111112@@@.2O.          ##e6%%%%#e##o               ",
"                                 .@@oo@.     .121111111@@...           ##e66%>%%e6##o               ",
"                                  .@@@.       ..112111...             ##e66%>>%%e6##o               ",
"                                   ...          ......               @#e666%>%%e66##.               ",
"                                                                    @#e666%>>%#e66##.               ",
"                                                                   @#e6666%>%#e666##.               ",
"                                                                  ###e666%>>#e666##o                ",
"                                                                  #oe6466%>%e6666##o                ",
"                                                                  444446%>.e66666##.                ",
"                                                                      4o>.e666666##.                ",
"                                                                       o.44466666#o                 ",
"                                                                           46646##.                 ",
"                                                                           44446##.                 ",
"                                                                             466#.                  ",
"                                                                             46##.                  ",
"                                                                              4#.                   ",
"                                                                                                    ",
"                                                                                                    ",
"                                                                                                    ",
"                                                                                                    ",
"                                                                                                    ",
"                                                                                                    ",
"                                                                                                    ",
"                                                                                                    ",
"                                                                                                    ",
"                                                                                                    "
};
